%TF.GenerationSoftware,KiCad,Pcbnew,(6.0.7)*%
%TF.CreationDate,2023-02-12T17:06:42-05:00*%
%TF.ProjectId,GPS,4750532e-6b69-4636-9164-5f7063625858,rev?*%
%TF.SameCoordinates,Original*%
%TF.FileFunction,Paste,Top*%
%TF.FilePolarity,Positive*%
%FSLAX46Y46*%
G04 Gerber Fmt 4.6, Leading zero omitted, Abs format (unit mm)*
G04 Created by KiCad (PCBNEW (6.0.7)) date 2023-02-12 17:06:42*
%MOMM*%
%LPD*%
G01*
G04 APERTURE LIST*
G04 Aperture macros list*
%AMRoundRect*
0 Rectangle with rounded corners*
0 $1 Rounding radius*
0 $2 $3 $4 $5 $6 $7 $8 $9 X,Y pos of 4 corners*
0 Add a 4 corners polygon primitive as box body*
4,1,4,$2,$3,$4,$5,$6,$7,$8,$9,$2,$3,0*
0 Add four circle primitives for the rounded corners*
1,1,$1+$1,$2,$3*
1,1,$1+$1,$4,$5*
1,1,$1+$1,$6,$7*
1,1,$1+$1,$8,$9*
0 Add four rect primitives between the rounded corners*
20,1,$1+$1,$2,$3,$4,$5,0*
20,1,$1+$1,$4,$5,$6,$7,0*
20,1,$1+$1,$6,$7,$8,$9,0*
20,1,$1+$1,$8,$9,$2,$3,0*%
G04 Aperture macros list end*
%ADD10RoundRect,0.250000X-0.250000X-0.475000X0.250000X-0.475000X0.250000X0.475000X-0.250000X0.475000X0*%
%ADD11RoundRect,0.250000X-0.475000X0.337500X-0.475000X-0.337500X0.475000X-0.337500X0.475000X0.337500X0*%
%ADD12RoundRect,0.250000X-0.337500X-0.475000X0.337500X-0.475000X0.337500X0.475000X-0.337500X0.475000X0*%
%ADD13R,1.300000X1.700000*%
%ADD14R,2.000000X1.500000*%
%ADD15R,2.000000X3.800000*%
%ADD16RoundRect,0.250000X0.250000X0.475000X-0.250000X0.475000X-0.250000X-0.475000X0.250000X-0.475000X0*%
%ADD17RoundRect,0.250000X-0.475000X0.250000X-0.475000X-0.250000X0.475000X-0.250000X0.475000X0.250000X0*%
%ADD18RoundRect,0.250000X-0.450000X0.325000X-0.450000X-0.325000X0.450000X-0.325000X0.450000X0.325000X0*%
%ADD19RoundRect,0.075000X-0.662500X-0.075000X0.662500X-0.075000X0.662500X0.075000X-0.662500X0.075000X0*%
%ADD20RoundRect,0.075000X-0.075000X-0.662500X0.075000X-0.662500X0.075000X0.662500X-0.075000X0.662500X0*%
%ADD21RoundRect,0.150000X-0.825000X-0.150000X0.825000X-0.150000X0.825000X0.150000X-0.825000X0.150000X0*%
%ADD22RoundRect,0.147500X0.147500X0.172500X-0.147500X0.172500X-0.147500X-0.172500X0.147500X-0.172500X0*%
%ADD23RoundRect,0.225000X0.225000X0.250000X-0.225000X0.250000X-0.225000X-0.250000X0.225000X-0.250000X0*%
%ADD24RoundRect,0.250000X0.337500X0.475000X-0.337500X0.475000X-0.337500X-0.475000X0.337500X-0.475000X0*%
%ADD25R,5.350000X1.000000*%
%ADD26R,1.000000X5.350000*%
%ADD27RoundRect,0.250000X0.450000X-0.350000X0.450000X0.350000X-0.450000X0.350000X-0.450000X-0.350000X0*%
%ADD28R,2.400000X2.000000*%
%ADD29RoundRect,0.250000X0.475000X-0.250000X0.475000X0.250000X-0.475000X0.250000X-0.475000X-0.250000X0*%
%ADD30RoundRect,0.250000X-0.450000X0.262500X-0.450000X-0.262500X0.450000X-0.262500X0.450000X0.262500X0*%
%ADD31RoundRect,0.250000X0.450000X-0.325000X0.450000X0.325000X-0.450000X0.325000X-0.450000X-0.325000X0*%
%ADD32RoundRect,0.250000X0.262500X0.450000X-0.262500X0.450000X-0.262500X-0.450000X0.262500X-0.450000X0*%
%ADD33RoundRect,0.250000X-0.450000X0.350000X-0.450000X-0.350000X0.450000X-0.350000X0.450000X0.350000X0*%
G04 APERTURE END LIST*
D10*
%TO.C,C110*%
X138496000Y-124968000D03*
X140396000Y-124968000D03*
%TD*%
D11*
%TO.C,C118*%
X167049800Y-117812500D03*
X167049800Y-119887500D03*
%TD*%
D12*
%TO.C,C123*%
X170838300Y-123676000D03*
X172913300Y-123676000D03*
%TD*%
D13*
%TO.C,D101*%
X141250000Y-142000000D03*
X144750000Y-142000000D03*
%TD*%
D12*
%TO.C,C122*%
X170838300Y-120120000D03*
X172913300Y-120120000D03*
%TD*%
D10*
%TO.C,C109*%
X138496000Y-129000000D03*
X140396000Y-129000000D03*
%TD*%
D14*
%TO.C,U103*%
X179647800Y-93944000D03*
X179647800Y-96244000D03*
X179647800Y-98544000D03*
D15*
X185947800Y-96244000D03*
%TD*%
D16*
%TO.C,C101*%
X130490000Y-94488000D03*
X128590000Y-94488000D03*
%TD*%
D17*
%TO.C,C108*%
X164338000Y-131892000D03*
X164338000Y-133792000D03*
%TD*%
D18*
%TO.C,L101*%
X151130000Y-107711000D03*
X151130000Y-109761000D03*
%TD*%
D14*
%TO.C,U102*%
X145694000Y-90780000D03*
X145694000Y-93080000D03*
X145694000Y-95380000D03*
D15*
X151994000Y-93080000D03*
%TD*%
D19*
%TO.C,U107*%
X170837500Y-109750000D03*
X170837500Y-110250000D03*
X170837500Y-110750000D03*
X170837500Y-111250000D03*
X170837500Y-111750000D03*
X170837500Y-112250000D03*
X170837500Y-112750000D03*
X170837500Y-113250000D03*
X170837500Y-113750000D03*
X170837500Y-114250000D03*
X170837500Y-114750000D03*
X170837500Y-115250000D03*
D20*
X172250000Y-116662500D03*
X172750000Y-116662500D03*
X173250000Y-116662500D03*
X173750000Y-116662500D03*
X174250000Y-116662500D03*
X174750000Y-116662500D03*
X175250000Y-116662500D03*
X175750000Y-116662500D03*
X176250000Y-116662500D03*
X176750000Y-116662500D03*
X177250000Y-116662500D03*
X177750000Y-116662500D03*
D19*
X179162500Y-115250000D03*
X179162500Y-114750000D03*
X179162500Y-114250000D03*
X179162500Y-113750000D03*
X179162500Y-113250000D03*
X179162500Y-112750000D03*
X179162500Y-112250000D03*
X179162500Y-111750000D03*
X179162500Y-111250000D03*
X179162500Y-110750000D03*
X179162500Y-110250000D03*
X179162500Y-109750000D03*
D20*
X177750000Y-108337500D03*
X177250000Y-108337500D03*
X176750000Y-108337500D03*
X176250000Y-108337500D03*
X175750000Y-108337500D03*
X175250000Y-108337500D03*
X174750000Y-108337500D03*
X174250000Y-108337500D03*
X173750000Y-108337500D03*
X173250000Y-108337500D03*
X172750000Y-108337500D03*
X172250000Y-108337500D03*
%TD*%
D21*
%TO.C,U106*%
X156275000Y-131191000D03*
X156275000Y-132461000D03*
X156275000Y-133731000D03*
X156275000Y-135001000D03*
X161225000Y-135001000D03*
X161225000Y-133731000D03*
X161225000Y-132461000D03*
X161225000Y-131191000D03*
%TD*%
D12*
%TO.C,C120*%
X172641700Y-105235600D03*
X174716700Y-105235600D03*
%TD*%
D22*
%TO.C,L103*%
X174392800Y-127486000D03*
X173422800Y-127486000D03*
%TD*%
D23*
%TO.C,C103*%
X176968800Y-98784000D03*
X175418800Y-98784000D03*
%TD*%
D18*
%TO.C,L102*%
X151130000Y-112029000D03*
X151130000Y-114079000D03*
%TD*%
D10*
%TO.C,C113*%
X145760400Y-118727200D03*
X147660400Y-118727200D03*
%TD*%
D24*
%TO.C,C115*%
X169611300Y-104372000D03*
X167536300Y-104372000D03*
%TD*%
D11*
%TO.C,C117*%
X167303800Y-109176500D03*
X167303800Y-111251500D03*
%TD*%
D25*
%TO.C,U105*%
X134333000Y-114731000D03*
X134333000Y-112881000D03*
X134333000Y-111031000D03*
X134333000Y-109181000D03*
X134333000Y-107331000D03*
D26*
X138358000Y-105156000D03*
X140208000Y-105156000D03*
X142058000Y-105156000D03*
D25*
X146083000Y-107331000D03*
X146083000Y-109181000D03*
X146083000Y-111031000D03*
X146083000Y-112881000D03*
X146083000Y-114731000D03*
D26*
X142058000Y-116906000D03*
X140208000Y-116906000D03*
X138358000Y-116906000D03*
%TD*%
D27*
%TO.C,R102*%
X145516600Y-104842800D03*
X145516600Y-102842800D03*
%TD*%
D28*
%TO.C,Y101*%
X163747800Y-114460000D03*
X163747800Y-118160000D03*
%TD*%
D29*
%TO.C,C112*%
X141224000Y-100772000D03*
X141224000Y-98872000D03*
%TD*%
D14*
%TO.C,U101*%
X133096000Y-91680000D03*
D15*
X139396000Y-93980000D03*
D14*
X133096000Y-93980000D03*
X133096000Y-96280000D03*
%TD*%
D18*
%TO.C,D102*%
X171621800Y-93949000D03*
X171621800Y-95999000D03*
%TD*%
D30*
%TO.C,R101*%
X168065800Y-94061500D03*
X168065800Y-95886500D03*
%TD*%
D10*
%TO.C,C104*%
X132654000Y-100076000D03*
X134554000Y-100076000D03*
%TD*%
D31*
%TO.C,D103*%
X149606000Y-104911000D03*
X149606000Y-102861000D03*
%TD*%
D11*
%TO.C,C121*%
X181019800Y-106382500D03*
X181019800Y-108457500D03*
%TD*%
D10*
%TO.C,C105*%
X142728000Y-88000000D03*
X144628000Y-88000000D03*
%TD*%
D11*
%TO.C,C116*%
X167049800Y-113494500D03*
X167049800Y-115569500D03*
%TD*%
D16*
%TO.C,C107*%
X140396000Y-121158000D03*
X138496000Y-121158000D03*
%TD*%
D32*
%TO.C,R103*%
X177209800Y-123676000D03*
X175384800Y-123676000D03*
%TD*%
D29*
%TO.C,C106*%
X176701800Y-95924000D03*
X176701800Y-94024000D03*
%TD*%
D10*
%TO.C,C102*%
X145100000Y-97906000D03*
X147000000Y-97906000D03*
%TD*%
D33*
%TO.C,R104*%
X178733800Y-102356000D03*
X178733800Y-104356000D03*
%TD*%
D17*
%TO.C,C114*%
X155194000Y-110048000D03*
X155194000Y-111948000D03*
%TD*%
D24*
%TO.C,C119*%
X177993300Y-119612000D03*
X175918300Y-119612000D03*
%TD*%
D29*
%TO.C,C111*%
X153162000Y-134234000D03*
X153162000Y-132334000D03*
%TD*%
M02*
