M48
; DRILL file {KiCad (6.0.7)} date Sun Feb 12 17:06:44 2023
; FORMAT={-:-/ absolute / inch / decimal}
; #@! TF.CreationDate,2023-02-12T17:06:44-05:00
; #@! TF.GenerationSoftware,Kicad,Pcbnew,(6.0.7)
; #@! TF.FileFunction,Plated,1,2,PTH
FMAT,2
INCH
; #@! TA.AperFunction,Plated,PTH,ViaDrill
T1C0.0157
; #@! TA.AperFunction,Plated,PTH,ComponentDrill
T2C0.0256
; #@! TA.AperFunction,Plated,PTH,ViaDrill
T3C0.0315
; #@! TA.AperFunction,Plated,PTH,ComponentDrill
T4C0.0591
; #@! TA.AperFunction,Plated,PTH,ComponentDrill
T5C0.0630
%
G90
G05
T1
X6.6651Y-4.3883
X6.668Y-4.7015
X6.668Y-4.8246
X7.281Y-5.11
T2
X5.88Y-5.74
X5.93Y-5.74
X5.98Y-5.74
X6.03Y-5.74
X6.08Y-5.74
X6.22Y-5.75
X6.27Y-5.75
X6.32Y-5.75
X6.37Y-5.75
X6.42Y-5.75
X6.47Y-5.75
X6.52Y-5.75
X6.57Y-5.75
T3
X5.6077Y-3.6986
X5.6169Y-3.8788
X5.6169Y-5.558
X5.6566Y-3.4558
X6.11Y-5.39
X6.3177Y-4.3901
X6.3863Y-5.4023
X6.3997Y-5.1339
X6.479Y-5.1601
X6.5152Y-5.2855
X6.6291Y-4.6626
X6.668Y-4.8585
X6.6802Y-4.5516
X6.707Y-4.6237
X6.7848Y-4.3512
X6.7848Y-4.429
X6.7879Y-4.3953
X6.8709Y-4.9822
X6.9016Y-3.8062
X6.9016Y-4.1955
X6.9795Y-4.3581
X6.9898Y-4.7741
X7.0075Y-4.1828
X7.0209Y-4.2344
X7.0316Y-4.6624
X7.0573Y-4.2733
X7.0963Y-4.6614
X7.0963Y-5.013
X7.0983Y-4.3521
X7.1352Y-4.1176
X7.19Y-4.99
X7.3709Y-5.2022
X7.3994Y-5.0893
T4
X5.01Y-4.36
T5
X4.91Y-4.26
X4.91Y-4.46
X5.11Y-4.26
X5.11Y-4.46
T0
M30
