%TF.GenerationSoftware,KiCad,Pcbnew,(6.0.7)*%
%TF.CreationDate,2023-02-12T17:06:42-05:00*%
%TF.ProjectId,GPS,4750532e-6b69-4636-9164-5f7063625858,rev?*%
%TF.SameCoordinates,Original*%
%TF.FileFunction,Legend,Top*%
%TF.FilePolarity,Positive*%
%FSLAX46Y46*%
G04 Gerber Fmt 4.6, Leading zero omitted, Abs format (unit mm)*
G04 Created by KiCad (PCBNEW (6.0.7)) date 2023-02-12 17:06:42*
%MOMM*%
%LPD*%
G01*
G04 APERTURE LIST*
%ADD10C,0.150000*%
%ADD11C,0.187500*%
%ADD12C,0.300000*%
%ADD13C,0.750000*%
%ADD14C,0.500000*%
%ADD15C,0.100000*%
%ADD16C,0.120000*%
%ADD17C,0.400000*%
%ADD18C,0.010000*%
G04 APERTURE END LIST*
D10*
X132088857Y-145724571D02*
X132231714Y-145772190D01*
X132279333Y-145819809D01*
X132326952Y-145915047D01*
X132326952Y-146057904D01*
X132279333Y-146153142D01*
X132231714Y-146200761D01*
X132136476Y-146248380D01*
X131755523Y-146248380D01*
X131755523Y-145248380D01*
X132088857Y-145248380D01*
X132184095Y-145296000D01*
X132231714Y-145343619D01*
X132279333Y-145438857D01*
X132279333Y-145534095D01*
X132231714Y-145629333D01*
X132184095Y-145676952D01*
X132088857Y-145724571D01*
X131755523Y-145724571D01*
X132898380Y-146248380D02*
X132803142Y-146200761D01*
X132755523Y-146153142D01*
X132707904Y-146057904D01*
X132707904Y-145772190D01*
X132755523Y-145676952D01*
X132803142Y-145629333D01*
X132898380Y-145581714D01*
X133041238Y-145581714D01*
X133136476Y-145629333D01*
X133184095Y-145676952D01*
X133231714Y-145772190D01*
X133231714Y-146057904D01*
X133184095Y-146153142D01*
X133136476Y-146200761D01*
X133041238Y-146248380D01*
X132898380Y-146248380D01*
X134088857Y-146248380D02*
X134088857Y-145724571D01*
X134041238Y-145629333D01*
X133946000Y-145581714D01*
X133755523Y-145581714D01*
X133660285Y-145629333D01*
X134088857Y-146200761D02*
X133993619Y-146248380D01*
X133755523Y-146248380D01*
X133660285Y-146200761D01*
X133612666Y-146105523D01*
X133612666Y-146010285D01*
X133660285Y-145915047D01*
X133755523Y-145867428D01*
X133993619Y-145867428D01*
X134088857Y-145819809D01*
X134565047Y-146248380D02*
X134565047Y-145581714D01*
X134565047Y-145772190D02*
X134612666Y-145676952D01*
X134660285Y-145629333D01*
X134755523Y-145581714D01*
X134850761Y-145581714D01*
X135612666Y-146248380D02*
X135612666Y-145248380D01*
X135612666Y-146200761D02*
X135517428Y-146248380D01*
X135326952Y-146248380D01*
X135231714Y-146200761D01*
X135184095Y-146153142D01*
X135136476Y-146057904D01*
X135136476Y-145772190D01*
X135184095Y-145676952D01*
X135231714Y-145629333D01*
X135326952Y-145581714D01*
X135517428Y-145581714D01*
X135612666Y-145629333D01*
X136707904Y-145248380D02*
X137279333Y-145248380D01*
X136993619Y-146248380D02*
X136993619Y-145248380D01*
X137993619Y-146200761D02*
X137898380Y-146248380D01*
X137707904Y-146248380D01*
X137612666Y-146200761D01*
X137565047Y-146105523D01*
X137565047Y-145724571D01*
X137612666Y-145629333D01*
X137707904Y-145581714D01*
X137898380Y-145581714D01*
X137993619Y-145629333D01*
X138041238Y-145724571D01*
X138041238Y-145819809D01*
X137565047Y-145915047D01*
X138422190Y-146200761D02*
X138517428Y-146248380D01*
X138707904Y-146248380D01*
X138803142Y-146200761D01*
X138850761Y-146105523D01*
X138850761Y-146057904D01*
X138803142Y-145962666D01*
X138707904Y-145915047D01*
X138565047Y-145915047D01*
X138469809Y-145867428D01*
X138422190Y-145772190D01*
X138422190Y-145724571D01*
X138469809Y-145629333D01*
X138565047Y-145581714D01*
X138707904Y-145581714D01*
X138803142Y-145629333D01*
X139136476Y-145581714D02*
X139517428Y-145581714D01*
X139279333Y-145248380D02*
X139279333Y-146105523D01*
X139326952Y-146200761D01*
X139422190Y-146248380D01*
X139517428Y-146248380D01*
X140612666Y-146248380D02*
X140612666Y-145248380D01*
X141088857Y-145581714D02*
X141088857Y-146248380D01*
X141088857Y-145676952D02*
X141136476Y-145629333D01*
X141231714Y-145581714D01*
X141374571Y-145581714D01*
X141469809Y-145629333D01*
X141517428Y-145724571D01*
X141517428Y-146248380D01*
X141993619Y-145581714D02*
X141993619Y-146581714D01*
X141993619Y-145629333D02*
X142088857Y-145581714D01*
X142279333Y-145581714D01*
X142374571Y-145629333D01*
X142422190Y-145676952D01*
X142469809Y-145772190D01*
X142469809Y-146057904D01*
X142422190Y-146153142D01*
X142374571Y-146200761D01*
X142279333Y-146248380D01*
X142088857Y-146248380D01*
X141993619Y-146200761D01*
X143326952Y-145581714D02*
X143326952Y-146248380D01*
X142898380Y-145581714D02*
X142898380Y-146105523D01*
X142946000Y-146200761D01*
X143041238Y-146248380D01*
X143184095Y-146248380D01*
X143279333Y-146200761D01*
X143326952Y-146153142D01*
X143660285Y-145581714D02*
X144041238Y-145581714D01*
X143803142Y-145248380D02*
X143803142Y-146105523D01*
X143850761Y-146200761D01*
X143946000Y-146248380D01*
X144041238Y-146248380D01*
X145136476Y-145867428D02*
X145898380Y-145867428D01*
X146374571Y-145581714D02*
X147136476Y-145867428D01*
X146374571Y-146153142D01*
X154033600Y-138980304D02*
X153985980Y-139075542D01*
X153985980Y-139218400D01*
X154033600Y-139361257D01*
X154128838Y-139456495D01*
X154224076Y-139504114D01*
X154414552Y-139551733D01*
X154557409Y-139551733D01*
X154747885Y-139504114D01*
X154843123Y-139456495D01*
X154938361Y-139361257D01*
X154985980Y-139218400D01*
X154985980Y-139123161D01*
X154938361Y-138980304D01*
X154890742Y-138932685D01*
X154557409Y-138932685D01*
X154557409Y-139123161D01*
X154985980Y-138504114D02*
X153985980Y-138504114D01*
X154985980Y-137932685D01*
X153985980Y-137932685D01*
X154985980Y-137456495D02*
X153985980Y-137456495D01*
X153985980Y-137218400D01*
X154033600Y-137075542D01*
X154128838Y-136980304D01*
X154224076Y-136932685D01*
X154414552Y-136885066D01*
X154557409Y-136885066D01*
X154747885Y-136932685D01*
X154843123Y-136980304D01*
X154938361Y-137075542D01*
X154985980Y-137218400D01*
X154985980Y-137456495D01*
D11*
X123307857Y-128791857D02*
X123272142Y-128827571D01*
X123165000Y-128863285D01*
X123093571Y-128863285D01*
X122986428Y-128827571D01*
X122915000Y-128756142D01*
X122879285Y-128684714D01*
X122843571Y-128541857D01*
X122843571Y-128434714D01*
X122879285Y-128291857D01*
X122915000Y-128220428D01*
X122986428Y-128149000D01*
X123093571Y-128113285D01*
X123165000Y-128113285D01*
X123272142Y-128149000D01*
X123307857Y-128184714D01*
X123950714Y-128863285D02*
X123950714Y-128470428D01*
X123915000Y-128399000D01*
X123843571Y-128363285D01*
X123700714Y-128363285D01*
X123629285Y-128399000D01*
X123950714Y-128827571D02*
X123879285Y-128863285D01*
X123700714Y-128863285D01*
X123629285Y-128827571D01*
X123593571Y-128756142D01*
X123593571Y-128684714D01*
X123629285Y-128613285D01*
X123700714Y-128577571D01*
X123879285Y-128577571D01*
X123950714Y-128541857D01*
X124307857Y-128363285D02*
X124307857Y-129113285D01*
X124307857Y-128399000D02*
X124379285Y-128363285D01*
X124522142Y-128363285D01*
X124593571Y-128399000D01*
X124629285Y-128434714D01*
X124665000Y-128506142D01*
X124665000Y-128720428D01*
X124629285Y-128791857D01*
X124593571Y-128827571D01*
X124522142Y-128863285D01*
X124379285Y-128863285D01*
X124307857Y-128827571D01*
X124950714Y-128827571D02*
X125022142Y-128863285D01*
X125165000Y-128863285D01*
X125236428Y-128827571D01*
X125272142Y-128756142D01*
X125272142Y-128720428D01*
X125236428Y-128649000D01*
X125165000Y-128613285D01*
X125057857Y-128613285D01*
X124986428Y-128577571D01*
X124950714Y-128506142D01*
X124950714Y-128470428D01*
X124986428Y-128399000D01*
X125057857Y-128363285D01*
X125165000Y-128363285D01*
X125236428Y-128399000D01*
X125629285Y-128827571D02*
X125629285Y-128863285D01*
X125593571Y-128934714D01*
X125557857Y-128970428D01*
X126522142Y-128863285D02*
X126522142Y-128113285D01*
X126700714Y-128113285D01*
X126807857Y-128149000D01*
X126879285Y-128220428D01*
X126915000Y-128291857D01*
X126950714Y-128434714D01*
X126950714Y-128541857D01*
X126915000Y-128684714D01*
X126879285Y-128756142D01*
X126807857Y-128827571D01*
X126700714Y-128863285D01*
X126522142Y-128863285D01*
X127272142Y-128863285D02*
X127272142Y-128363285D01*
X127272142Y-128113285D02*
X127236428Y-128149000D01*
X127272142Y-128184714D01*
X127307857Y-128149000D01*
X127272142Y-128113285D01*
X127272142Y-128184714D01*
X127736428Y-128863285D02*
X127665000Y-128827571D01*
X127629285Y-128791857D01*
X127593571Y-128720428D01*
X127593571Y-128506142D01*
X127629285Y-128434714D01*
X127665000Y-128399000D01*
X127736428Y-128363285D01*
X127843571Y-128363285D01*
X127915000Y-128399000D01*
X127950714Y-128434714D01*
X127986428Y-128506142D01*
X127986428Y-128720428D01*
X127950714Y-128791857D01*
X127915000Y-128827571D01*
X127843571Y-128863285D01*
X127736428Y-128863285D01*
X128629285Y-128863285D02*
X128629285Y-128113285D01*
X128629285Y-128827571D02*
X128557857Y-128863285D01*
X128415000Y-128863285D01*
X128343571Y-128827571D01*
X128307857Y-128791857D01*
X128272142Y-128720428D01*
X128272142Y-128506142D01*
X128307857Y-128434714D01*
X128343571Y-128399000D01*
X128415000Y-128363285D01*
X128557857Y-128363285D01*
X128629285Y-128399000D01*
X129272142Y-128827571D02*
X129200714Y-128863285D01*
X129057857Y-128863285D01*
X128986428Y-128827571D01*
X128950714Y-128756142D01*
X128950714Y-128470428D01*
X128986428Y-128399000D01*
X129057857Y-128363285D01*
X129200714Y-128363285D01*
X129272142Y-128399000D01*
X129307857Y-128470428D01*
X129307857Y-128541857D01*
X128950714Y-128613285D01*
X129593571Y-128827571D02*
X129665000Y-128863285D01*
X129807857Y-128863285D01*
X129879285Y-128827571D01*
X129915000Y-128756142D01*
X129915000Y-128720428D01*
X129879285Y-128649000D01*
X129807857Y-128613285D01*
X129700714Y-128613285D01*
X129629285Y-128577571D01*
X129593571Y-128506142D01*
X129593571Y-128470428D01*
X129629285Y-128399000D01*
X129700714Y-128363285D01*
X129807857Y-128363285D01*
X129879285Y-128399000D01*
X131129285Y-128863285D02*
X131129285Y-128470428D01*
X131093571Y-128399000D01*
X131022142Y-128363285D01*
X130879285Y-128363285D01*
X130807857Y-128399000D01*
X131129285Y-128827571D02*
X131057857Y-128863285D01*
X130879285Y-128863285D01*
X130807857Y-128827571D01*
X130772142Y-128756142D01*
X130772142Y-128684714D01*
X130807857Y-128613285D01*
X130879285Y-128577571D01*
X131057857Y-128577571D01*
X131129285Y-128541857D01*
X131486428Y-128363285D02*
X131486428Y-128863285D01*
X131486428Y-128434714D02*
X131522142Y-128399000D01*
X131593571Y-128363285D01*
X131700714Y-128363285D01*
X131772142Y-128399000D01*
X131807857Y-128470428D01*
X131807857Y-128863285D01*
X132486428Y-128863285D02*
X132486428Y-128113285D01*
X132486428Y-128827571D02*
X132415000Y-128863285D01*
X132272142Y-128863285D01*
X132200714Y-128827571D01*
X132165000Y-128791857D01*
X132129285Y-128720428D01*
X132129285Y-128506142D01*
X132165000Y-128434714D01*
X132200714Y-128399000D01*
X132272142Y-128363285D01*
X132415000Y-128363285D01*
X132486428Y-128399000D01*
X133415000Y-128863285D02*
X133415000Y-128113285D01*
X133415000Y-128470428D02*
X133843571Y-128470428D01*
X133843571Y-128863285D02*
X133843571Y-128113285D01*
X134307857Y-128863285D02*
X134236428Y-128827571D01*
X134200714Y-128791857D01*
X134165000Y-128720428D01*
X134165000Y-128506142D01*
X134200714Y-128434714D01*
X134236428Y-128399000D01*
X134307857Y-128363285D01*
X134415000Y-128363285D01*
X134486428Y-128399000D01*
X134522142Y-128434714D01*
X134557857Y-128506142D01*
X134557857Y-128720428D01*
X134522142Y-128791857D01*
X134486428Y-128827571D01*
X134415000Y-128863285D01*
X134307857Y-128863285D01*
X134879285Y-128363285D02*
X134879285Y-129113285D01*
X134879285Y-128399000D02*
X134950714Y-128363285D01*
X135093571Y-128363285D01*
X135165000Y-128399000D01*
X135200714Y-128434714D01*
X135236428Y-128506142D01*
X135236428Y-128720428D01*
X135200714Y-128791857D01*
X135165000Y-128827571D01*
X135093571Y-128863285D01*
X134950714Y-128863285D01*
X134879285Y-128827571D01*
X135843571Y-128827571D02*
X135772142Y-128863285D01*
X135629285Y-128863285D01*
X135557857Y-128827571D01*
X135522142Y-128756142D01*
X135522142Y-128470428D01*
X135557857Y-128399000D01*
X135629285Y-128363285D01*
X135772142Y-128363285D01*
X135843571Y-128399000D01*
X135879285Y-128470428D01*
X135879285Y-128541857D01*
X135522142Y-128613285D01*
X136200714Y-128791857D02*
X136236428Y-128827571D01*
X136200714Y-128863285D01*
X136165000Y-128827571D01*
X136200714Y-128791857D01*
X136200714Y-128863285D01*
D10*
X158680400Y-103785714D02*
X158680400Y-104452380D01*
X158251828Y-103785714D02*
X158251828Y-104309523D01*
X158299447Y-104404761D01*
X158394685Y-104452380D01*
X158537542Y-104452380D01*
X158632780Y-104404761D01*
X158680400Y-104357142D01*
X159108971Y-104404761D02*
X159204209Y-104452380D01*
X159394685Y-104452380D01*
X159489923Y-104404761D01*
X159537542Y-104309523D01*
X159537542Y-104261904D01*
X159489923Y-104166666D01*
X159394685Y-104119047D01*
X159251828Y-104119047D01*
X159156590Y-104071428D01*
X159108971Y-103976190D01*
X159108971Y-103928571D01*
X159156590Y-103833333D01*
X159251828Y-103785714D01*
X159394685Y-103785714D01*
X159489923Y-103833333D01*
X159918495Y-104404761D02*
X160013733Y-104452380D01*
X160204209Y-104452380D01*
X160299447Y-104404761D01*
X160347066Y-104309523D01*
X160347066Y-104261904D01*
X160299447Y-104166666D01*
X160204209Y-104119047D01*
X160061352Y-104119047D01*
X159966114Y-104071428D01*
X159918495Y-103976190D01*
X159918495Y-103928571D01*
X159966114Y-103833333D01*
X160061352Y-103785714D01*
X160204209Y-103785714D01*
X160299447Y-103833333D01*
X160632780Y-103785714D02*
X161013733Y-103785714D01*
X160775638Y-103452380D02*
X160775638Y-104309523D01*
X160823257Y-104404761D01*
X160918495Y-104452380D01*
X161013733Y-104452380D01*
X161347066Y-104357142D02*
X161394685Y-104404761D01*
X161347066Y-104452380D01*
X161299447Y-104404761D01*
X161347066Y-104357142D01*
X161347066Y-104452380D01*
X162251828Y-104404761D02*
X162156590Y-104452380D01*
X161966114Y-104452380D01*
X161870876Y-104404761D01*
X161823257Y-104357142D01*
X161775638Y-104261904D01*
X161775638Y-103976190D01*
X161823257Y-103880952D01*
X161870876Y-103833333D01*
X161966114Y-103785714D01*
X162156590Y-103785714D01*
X162251828Y-103833333D01*
X163108971Y-104452380D02*
X163108971Y-103928571D01*
X163061352Y-103833333D01*
X162966114Y-103785714D01*
X162775638Y-103785714D01*
X162680400Y-103833333D01*
X163108971Y-104404761D02*
X163013733Y-104452380D01*
X162775638Y-104452380D01*
X162680400Y-104404761D01*
X162632780Y-104309523D01*
X162632780Y-104214285D01*
X162680400Y-104119047D01*
X162775638Y-104071428D01*
X163013733Y-104071428D01*
X163108971Y-104023809D01*
X152350742Y-138995019D02*
X152398361Y-139042638D01*
X152445980Y-139185495D01*
X152445980Y-139280733D01*
X152398361Y-139423590D01*
X152303123Y-139518828D01*
X152207885Y-139566447D01*
X152017409Y-139614066D01*
X151874552Y-139614066D01*
X151684076Y-139566447D01*
X151588838Y-139518828D01*
X151493600Y-139423590D01*
X151445980Y-139280733D01*
X151445980Y-139185495D01*
X151493600Y-139042638D01*
X151541219Y-138995019D01*
X152160266Y-138614066D02*
X152160266Y-138137876D01*
X152445980Y-138709304D02*
X151445980Y-138375971D01*
X152445980Y-138042638D01*
X152445980Y-137709304D02*
X151445980Y-137709304D01*
X152445980Y-137137876D01*
X151445980Y-137137876D01*
X152445980Y-136185495D02*
X152445980Y-136661685D01*
X151445980Y-136661685D01*
D12*
X182070857Y-112621142D02*
X182285142Y-112692571D01*
X182642285Y-112692571D01*
X182785142Y-112621142D01*
X182856571Y-112549714D01*
X182928000Y-112406857D01*
X182928000Y-112264000D01*
X182856571Y-112121142D01*
X182785142Y-112049714D01*
X182642285Y-111978285D01*
X182356571Y-111906857D01*
X182213714Y-111835428D01*
X182142285Y-111764000D01*
X182070857Y-111621142D01*
X182070857Y-111478285D01*
X182142285Y-111335428D01*
X182213714Y-111264000D01*
X182356571Y-111192571D01*
X182713714Y-111192571D01*
X182928000Y-111264000D01*
X183356571Y-111192571D02*
X184213714Y-111192571D01*
X183785142Y-112692571D02*
X183785142Y-111192571D01*
X184713714Y-112692571D02*
X184713714Y-111192571D01*
X185213714Y-112264000D01*
X185713714Y-111192571D01*
X185713714Y-112692571D01*
X188213714Y-111692571D02*
X188213714Y-112692571D01*
X187570857Y-111692571D02*
X187570857Y-112478285D01*
X187642285Y-112621142D01*
X187785142Y-112692571D01*
X187999428Y-112692571D01*
X188142285Y-112621142D01*
X188213714Y-112549714D01*
X189785142Y-112549714D02*
X189713714Y-112621142D01*
X189499428Y-112692571D01*
X189356571Y-112692571D01*
X189142285Y-112621142D01*
X188999428Y-112478285D01*
X188928000Y-112335428D01*
X188856571Y-112049714D01*
X188856571Y-111835428D01*
X188928000Y-111549714D01*
X188999428Y-111406857D01*
X189142285Y-111264000D01*
X189356571Y-111192571D01*
X189499428Y-111192571D01*
X189713714Y-111264000D01*
X189785142Y-111335428D01*
D10*
X148550380Y-139369161D02*
X149550380Y-139035828D01*
X148550380Y-138702495D01*
X149645619Y-138607257D02*
X149645619Y-137845352D01*
X149550380Y-137607257D02*
X148883714Y-137607257D01*
X148550380Y-137607257D02*
X148598000Y-137654876D01*
X148645619Y-137607257D01*
X148598000Y-137559638D01*
X148550380Y-137607257D01*
X148645619Y-137607257D01*
X148883714Y-137131066D02*
X149550380Y-137131066D01*
X148978952Y-137131066D02*
X148931333Y-137083447D01*
X148883714Y-136988209D01*
X148883714Y-136845352D01*
X148931333Y-136750114D01*
X149026571Y-136702495D01*
X149550380Y-136702495D01*
D13*
X155142857Y-89238342D02*
X155142857Y-91666914D01*
X155285714Y-91952628D01*
X155428571Y-92095485D01*
X155714285Y-92238342D01*
X156285714Y-92238342D01*
X156571428Y-92095485D01*
X156714285Y-91952628D01*
X156857142Y-91666914D01*
X156857142Y-89238342D01*
X158142857Y-92095485D02*
X158571428Y-92238342D01*
X159285714Y-92238342D01*
X159571428Y-92095485D01*
X159714285Y-91952628D01*
X159857142Y-91666914D01*
X159857142Y-91381200D01*
X159714285Y-91095485D01*
X159571428Y-90952628D01*
X159285714Y-90809771D01*
X158714285Y-90666914D01*
X158428571Y-90524057D01*
X158285714Y-90381200D01*
X158142857Y-90095485D01*
X158142857Y-89809771D01*
X158285714Y-89524057D01*
X158428571Y-89381200D01*
X158714285Y-89238342D01*
X159428571Y-89238342D01*
X159857142Y-89381200D01*
X161000000Y-92095485D02*
X161428571Y-92238342D01*
X162142857Y-92238342D01*
X162428571Y-92095485D01*
X162571428Y-91952628D01*
X162714285Y-91666914D01*
X162714285Y-91381200D01*
X162571428Y-91095485D01*
X162428571Y-90952628D01*
X162142857Y-90809771D01*
X161571428Y-90666914D01*
X161285714Y-90524057D01*
X161142857Y-90381200D01*
X161000000Y-90095485D01*
X161000000Y-89809771D01*
X161142857Y-89524057D01*
X161285714Y-89381200D01*
X161571428Y-89238342D01*
X162285714Y-89238342D01*
X162714285Y-89381200D01*
X163571428Y-89238342D02*
X165285714Y-89238342D01*
X164428571Y-92238342D02*
X164428571Y-89238342D01*
D14*
X155013733Y-95024533D02*
X155966114Y-95024533D01*
X154823257Y-95595961D02*
X155489923Y-93595961D01*
X156156590Y-95595961D01*
X156632780Y-94262628D02*
X157108971Y-95595961D01*
X157585161Y-94262628D01*
X158347066Y-95595961D02*
X158347066Y-94262628D01*
X158347066Y-93595961D02*
X158251828Y-93691200D01*
X158347066Y-93786438D01*
X158442304Y-93691200D01*
X158347066Y-93595961D01*
X158347066Y-93786438D01*
X159585161Y-95595961D02*
X159394685Y-95500723D01*
X159299447Y-95405485D01*
X159204209Y-95215009D01*
X159204209Y-94643580D01*
X159299447Y-94453104D01*
X159394685Y-94357866D01*
X159585161Y-94262628D01*
X159870876Y-94262628D01*
X160061352Y-94357866D01*
X160156590Y-94453104D01*
X160251828Y-94643580D01*
X160251828Y-95215009D01*
X160156590Y-95405485D01*
X160061352Y-95500723D01*
X159870876Y-95595961D01*
X159585161Y-95595961D01*
X161108971Y-94262628D02*
X161108971Y-95595961D01*
X161108971Y-94453104D02*
X161204209Y-94357866D01*
X161394685Y-94262628D01*
X161680400Y-94262628D01*
X161870876Y-94357866D01*
X161966114Y-94548342D01*
X161966114Y-95595961D01*
X162918495Y-95595961D02*
X162918495Y-94262628D01*
X162918495Y-93595961D02*
X162823257Y-93691200D01*
X162918495Y-93786438D01*
X163013733Y-93691200D01*
X162918495Y-93595961D01*
X162918495Y-93786438D01*
X164728019Y-95500723D02*
X164537542Y-95595961D01*
X164156590Y-95595961D01*
X163966114Y-95500723D01*
X163870876Y-95405485D01*
X163775638Y-95215009D01*
X163775638Y-94643580D01*
X163870876Y-94453104D01*
X163966114Y-94357866D01*
X164156590Y-94262628D01*
X164537542Y-94262628D01*
X164728019Y-94357866D01*
X165489923Y-95500723D02*
X165680400Y-95595961D01*
X166061352Y-95595961D01*
X166251828Y-95500723D01*
X166347066Y-95310247D01*
X166347066Y-95215009D01*
X166251828Y-95024533D01*
X166061352Y-94929295D01*
X165775638Y-94929295D01*
X165585161Y-94834057D01*
X165489923Y-94643580D01*
X165489923Y-94548342D01*
X165585161Y-94357866D01*
X165775638Y-94262628D01*
X166061352Y-94262628D01*
X166251828Y-94357866D01*
D10*
X150979142Y-139088666D02*
X151026761Y-139136285D01*
X151074380Y-139279142D01*
X151074380Y-139374380D01*
X151026761Y-139517238D01*
X150931523Y-139612476D01*
X150836285Y-139660095D01*
X150645809Y-139707714D01*
X150502952Y-139707714D01*
X150312476Y-139660095D01*
X150217238Y-139612476D01*
X150122000Y-139517238D01*
X150074380Y-139374380D01*
X150074380Y-139279142D01*
X150122000Y-139136285D01*
X150169619Y-139088666D01*
X150788666Y-138707714D02*
X150788666Y-138231523D01*
X151074380Y-138802952D02*
X150074380Y-138469619D01*
X151074380Y-138136285D01*
X151074380Y-137802952D02*
X150074380Y-137802952D01*
X151074380Y-137231523D01*
X150074380Y-137231523D01*
X151074380Y-136755333D02*
X150074380Y-136755333D01*
X150550571Y-136755333D02*
X150550571Y-136183904D01*
X151074380Y-136183904D02*
X150074380Y-136183904D01*
D12*
X151400857Y-128297714D02*
X151329428Y-128369142D01*
X151115142Y-128440571D01*
X150972285Y-128440571D01*
X150758000Y-128369142D01*
X150615142Y-128226285D01*
X150543714Y-128083428D01*
X150472285Y-127797714D01*
X150472285Y-127583428D01*
X150543714Y-127297714D01*
X150615142Y-127154857D01*
X150758000Y-127012000D01*
X150972285Y-126940571D01*
X151115142Y-126940571D01*
X151329428Y-127012000D01*
X151400857Y-127083428D01*
X151972285Y-128012000D02*
X152686571Y-128012000D01*
X151829428Y-128440571D02*
X152329428Y-126940571D01*
X152829428Y-128440571D01*
X153329428Y-128440571D02*
X153329428Y-126940571D01*
X154186571Y-128440571D01*
X154186571Y-126940571D01*
X155829428Y-126940571D02*
X156686571Y-126940571D01*
X156258000Y-128440571D02*
X156258000Y-126940571D01*
X157186571Y-128440571D02*
X157186571Y-127440571D01*
X157186571Y-127726285D02*
X157258000Y-127583428D01*
X157329428Y-127512000D01*
X157472285Y-127440571D01*
X157615142Y-127440571D01*
X158758000Y-128440571D02*
X158758000Y-127654857D01*
X158686571Y-127512000D01*
X158543714Y-127440571D01*
X158258000Y-127440571D01*
X158115142Y-127512000D01*
X158758000Y-128369142D02*
X158615142Y-128440571D01*
X158258000Y-128440571D01*
X158115142Y-128369142D01*
X158043714Y-128226285D01*
X158043714Y-128083428D01*
X158115142Y-127940571D01*
X158258000Y-127869142D01*
X158615142Y-127869142D01*
X158758000Y-127797714D01*
X159472285Y-127440571D02*
X159472285Y-128440571D01*
X159472285Y-127583428D02*
X159543714Y-127512000D01*
X159686571Y-127440571D01*
X159900857Y-127440571D01*
X160043714Y-127512000D01*
X160115142Y-127654857D01*
X160115142Y-128440571D01*
X160758000Y-128369142D02*
X160900857Y-128440571D01*
X161186571Y-128440571D01*
X161329428Y-128369142D01*
X161400857Y-128226285D01*
X161400857Y-128154857D01*
X161329428Y-128012000D01*
X161186571Y-127940571D01*
X160972285Y-127940571D01*
X160829428Y-127869142D01*
X160758000Y-127726285D01*
X160758000Y-127654857D01*
X160829428Y-127512000D01*
X160972285Y-127440571D01*
X161186571Y-127440571D01*
X161329428Y-127512000D01*
X162686571Y-128369142D02*
X162543714Y-128440571D01*
X162258000Y-128440571D01*
X162115142Y-128369142D01*
X162043714Y-128297714D01*
X161972285Y-128154857D01*
X161972285Y-127726285D01*
X162043714Y-127583428D01*
X162115142Y-127512000D01*
X162258000Y-127440571D01*
X162543714Y-127440571D01*
X162686571Y-127512000D01*
X163329428Y-128440571D02*
X163329428Y-127440571D01*
X163329428Y-126940571D02*
X163258000Y-127012000D01*
X163329428Y-127083428D01*
X163400857Y-127012000D01*
X163329428Y-126940571D01*
X163329428Y-127083428D01*
X164615142Y-128369142D02*
X164472285Y-128440571D01*
X164186571Y-128440571D01*
X164043714Y-128369142D01*
X163972285Y-128226285D01*
X163972285Y-127654857D01*
X164043714Y-127512000D01*
X164186571Y-127440571D01*
X164472285Y-127440571D01*
X164615142Y-127512000D01*
X164686571Y-127654857D01*
X164686571Y-127797714D01*
X163972285Y-127940571D01*
X165186571Y-127440571D02*
X165543714Y-128440571D01*
X165900857Y-127440571D01*
X167043714Y-128369142D02*
X166900857Y-128440571D01*
X166615142Y-128440571D01*
X166472285Y-128369142D01*
X166400857Y-128226285D01*
X166400857Y-127654857D01*
X166472285Y-127512000D01*
X166615142Y-127440571D01*
X166900857Y-127440571D01*
X167043714Y-127512000D01*
X167115142Y-127654857D01*
X167115142Y-127797714D01*
X166400857Y-127940571D01*
X167758000Y-128440571D02*
X167758000Y-127440571D01*
X167758000Y-127726285D02*
X167829428Y-127583428D01*
X167900857Y-127512000D01*
X168043714Y-127440571D01*
X168186571Y-127440571D01*
D15*
X157180400Y-97190366D02*
X157180400Y-96490366D01*
X157347066Y-96490366D01*
X157447066Y-96523700D01*
X157513733Y-96590366D01*
X157547066Y-96657033D01*
X157580400Y-96790366D01*
X157580400Y-96890366D01*
X157547066Y-97023700D01*
X157513733Y-97090366D01*
X157447066Y-97157033D01*
X157347066Y-97190366D01*
X157180400Y-97190366D01*
X158147066Y-97157033D02*
X158080400Y-97190366D01*
X157947066Y-97190366D01*
X157880400Y-97157033D01*
X157847066Y-97090366D01*
X157847066Y-96823700D01*
X157880400Y-96757033D01*
X157947066Y-96723700D01*
X158080400Y-96723700D01*
X158147066Y-96757033D01*
X158180400Y-96823700D01*
X158180400Y-96890366D01*
X157847066Y-96957033D01*
X158447066Y-97157033D02*
X158513733Y-97190366D01*
X158647066Y-97190366D01*
X158713733Y-97157033D01*
X158747066Y-97090366D01*
X158747066Y-97057033D01*
X158713733Y-96990366D01*
X158647066Y-96957033D01*
X158547066Y-96957033D01*
X158480400Y-96923700D01*
X158447066Y-96857033D01*
X158447066Y-96823700D01*
X158480400Y-96757033D01*
X158547066Y-96723700D01*
X158647066Y-96723700D01*
X158713733Y-96757033D01*
X159047066Y-97190366D02*
X159047066Y-96723700D01*
X159047066Y-96490366D02*
X159013733Y-96523700D01*
X159047066Y-96557033D01*
X159080400Y-96523700D01*
X159047066Y-96490366D01*
X159047066Y-96557033D01*
X159680400Y-96723700D02*
X159680400Y-97290366D01*
X159647066Y-97357033D01*
X159613733Y-97390366D01*
X159547066Y-97423700D01*
X159447066Y-97423700D01*
X159380400Y-97390366D01*
X159680400Y-97157033D02*
X159613733Y-97190366D01*
X159480400Y-97190366D01*
X159413733Y-97157033D01*
X159380400Y-97123700D01*
X159347066Y-97057033D01*
X159347066Y-96857033D01*
X159380400Y-96790366D01*
X159413733Y-96757033D01*
X159480400Y-96723700D01*
X159613733Y-96723700D01*
X159680400Y-96757033D01*
X160013733Y-96723700D02*
X160013733Y-97190366D01*
X160013733Y-96790366D02*
X160047066Y-96757033D01*
X160113733Y-96723700D01*
X160213733Y-96723700D01*
X160280400Y-96757033D01*
X160313733Y-96823700D01*
X160313733Y-97190366D01*
X160913733Y-97157033D02*
X160847066Y-97190366D01*
X160713733Y-97190366D01*
X160647066Y-97157033D01*
X160613733Y-97090366D01*
X160613733Y-96823700D01*
X160647066Y-96757033D01*
X160713733Y-96723700D01*
X160847066Y-96723700D01*
X160913733Y-96757033D01*
X160947066Y-96823700D01*
X160947066Y-96890366D01*
X160613733Y-96957033D01*
X161547066Y-97190366D02*
X161547066Y-96490366D01*
X161547066Y-97157033D02*
X161480400Y-97190366D01*
X161347066Y-97190366D01*
X161280400Y-97157033D01*
X161247066Y-97123700D01*
X161213733Y-97057033D01*
X161213733Y-96857033D01*
X161247066Y-96790366D01*
X161280400Y-96757033D01*
X161347066Y-96723700D01*
X161480400Y-96723700D01*
X161547066Y-96757033D01*
X162647066Y-96823700D02*
X162747066Y-96857033D01*
X162780400Y-96890366D01*
X162813733Y-96957033D01*
X162813733Y-97057033D01*
X162780400Y-97123700D01*
X162747066Y-97157033D01*
X162680400Y-97190366D01*
X162413733Y-97190366D01*
X162413733Y-96490366D01*
X162647066Y-96490366D01*
X162713733Y-96523700D01*
X162747066Y-96557033D01*
X162780400Y-96623700D01*
X162780400Y-96690366D01*
X162747066Y-96757033D01*
X162713733Y-96790366D01*
X162647066Y-96823700D01*
X162413733Y-96823700D01*
X163047066Y-96723700D02*
X163213733Y-97190366D01*
X163380400Y-96723700D02*
X163213733Y-97190366D01*
X163147066Y-97357033D01*
X163113733Y-97390366D01*
X163047066Y-97423700D01*
X163647066Y-97123700D02*
X163680400Y-97157033D01*
X163647066Y-97190366D01*
X163613733Y-97157033D01*
X163647066Y-97123700D01*
X163647066Y-97190366D01*
X163647066Y-96757033D02*
X163680400Y-96790366D01*
X163647066Y-96823700D01*
X163613733Y-96790366D01*
X163647066Y-96757033D01*
X163647066Y-96823700D01*
X156463733Y-98117366D02*
X156797066Y-98117366D01*
X156397066Y-98317366D02*
X156630400Y-97617366D01*
X156863733Y-98317366D01*
X156997066Y-97850700D02*
X157263733Y-97850700D01*
X157097066Y-97617366D02*
X157097066Y-98217366D01*
X157130400Y-98284033D01*
X157197066Y-98317366D01*
X157263733Y-98317366D01*
X157497066Y-98317366D02*
X157497066Y-97617366D01*
X157797066Y-98317366D02*
X157797066Y-97950700D01*
X157763733Y-97884033D01*
X157697066Y-97850700D01*
X157597066Y-97850700D01*
X157530400Y-97884033D01*
X157497066Y-97917366D01*
X158430400Y-98317366D02*
X158430400Y-97950700D01*
X158397066Y-97884033D01*
X158330400Y-97850700D01*
X158197066Y-97850700D01*
X158130400Y-97884033D01*
X158430400Y-98284033D02*
X158363733Y-98317366D01*
X158197066Y-98317366D01*
X158130400Y-98284033D01*
X158097066Y-98217366D01*
X158097066Y-98150700D01*
X158130400Y-98084033D01*
X158197066Y-98050700D01*
X158363733Y-98050700D01*
X158430400Y-98017366D01*
X158763733Y-98317366D02*
X158763733Y-97850700D01*
X158763733Y-97984033D02*
X158797066Y-97917366D01*
X158830400Y-97884033D01*
X158897066Y-97850700D01*
X158963733Y-97850700D01*
X159130400Y-97850700D02*
X159297066Y-98317366D01*
X159463733Y-97850700D01*
X160030400Y-98317366D02*
X160030400Y-97950700D01*
X159997066Y-97884033D01*
X159930400Y-97850700D01*
X159797066Y-97850700D01*
X159730400Y-97884033D01*
X160030400Y-98284033D02*
X159963733Y-98317366D01*
X159797066Y-98317366D01*
X159730400Y-98284033D01*
X159697066Y-98217366D01*
X159697066Y-98150700D01*
X159730400Y-98084033D01*
X159797066Y-98050700D01*
X159963733Y-98050700D01*
X160030400Y-98017366D01*
X160897066Y-98317366D02*
X160897066Y-97617366D01*
X161297066Y-98317366D02*
X160997066Y-97917366D01*
X161297066Y-97617366D02*
X160897066Y-98017366D01*
X161897066Y-97850700D02*
X161897066Y-98317366D01*
X161597066Y-97850700D02*
X161597066Y-98217366D01*
X161630400Y-98284033D01*
X161697066Y-98317366D01*
X161797066Y-98317366D01*
X161863733Y-98284033D01*
X161897066Y-98250700D01*
X162330400Y-98317366D02*
X162263733Y-98284033D01*
X162230400Y-98217366D01*
X162230400Y-97617366D01*
X162597066Y-98317366D02*
X162597066Y-97617366D01*
X162663733Y-98050700D02*
X162863733Y-98317366D01*
X162863733Y-97850700D02*
X162597066Y-98117366D01*
X163463733Y-98317366D02*
X163463733Y-97950700D01*
X163430400Y-97884033D01*
X163363733Y-97850700D01*
X163230400Y-97850700D01*
X163163733Y-97884033D01*
X163463733Y-98284033D02*
X163397066Y-98317366D01*
X163230400Y-98317366D01*
X163163733Y-98284033D01*
X163130400Y-98217366D01*
X163130400Y-98150700D01*
X163163733Y-98084033D01*
X163230400Y-98050700D01*
X163397066Y-98050700D01*
X163463733Y-98017366D01*
X163797066Y-98317366D02*
X163797066Y-97850700D01*
X163797066Y-97984033D02*
X163830400Y-97917366D01*
X163863733Y-97884033D01*
X163930400Y-97850700D01*
X163997066Y-97850700D01*
X164230400Y-97850700D02*
X164230400Y-98317366D01*
X164230400Y-97917366D02*
X164263733Y-97884033D01*
X164330400Y-97850700D01*
X164430400Y-97850700D01*
X164497066Y-97884033D01*
X164530400Y-97950700D01*
X164530400Y-98317366D01*
X164863733Y-98317366D02*
X164863733Y-97850700D01*
X164863733Y-97617366D02*
X164830400Y-97650700D01*
X164863733Y-97684033D01*
X164897066Y-97650700D01*
X164863733Y-97617366D01*
X164863733Y-97684033D01*
X156180400Y-99444366D02*
X156180400Y-98744366D01*
X156347066Y-98744366D01*
X156447066Y-98777700D01*
X156513733Y-98844366D01*
X156547066Y-98911033D01*
X156580400Y-99044366D01*
X156580400Y-99144366D01*
X156547066Y-99277700D01*
X156513733Y-99344366D01*
X156447066Y-99411033D01*
X156347066Y-99444366D01*
X156180400Y-99444366D01*
X156813733Y-98977700D02*
X156980400Y-99444366D01*
X157147066Y-98977700D02*
X156980400Y-99444366D01*
X156913733Y-99611033D01*
X156880400Y-99644366D01*
X156813733Y-99677700D01*
X157513733Y-99444366D02*
X157447066Y-99411033D01*
X157413733Y-99344366D01*
X157413733Y-98744366D01*
X158080400Y-99444366D02*
X158080400Y-99077700D01*
X158047066Y-99011033D01*
X157980400Y-98977700D01*
X157847066Y-98977700D01*
X157780400Y-99011033D01*
X158080400Y-99411033D02*
X158013733Y-99444366D01*
X157847066Y-99444366D01*
X157780400Y-99411033D01*
X157747066Y-99344366D01*
X157747066Y-99277700D01*
X157780400Y-99211033D01*
X157847066Y-99177700D01*
X158013733Y-99177700D01*
X158080400Y-99144366D01*
X158413733Y-98977700D02*
X158413733Y-99444366D01*
X158413733Y-99044366D02*
X158447066Y-99011033D01*
X158513733Y-98977700D01*
X158613733Y-98977700D01*
X158680400Y-99011033D01*
X158713733Y-99077700D01*
X158713733Y-99444366D01*
X159580400Y-99444366D02*
X159580400Y-98744366D01*
X159580400Y-99077700D02*
X159980400Y-99077700D01*
X159980400Y-99444366D02*
X159980400Y-98744366D01*
X160613733Y-99444366D02*
X160613733Y-99077700D01*
X160580400Y-99011033D01*
X160513733Y-98977700D01*
X160380400Y-98977700D01*
X160313733Y-99011033D01*
X160613733Y-99411033D02*
X160547066Y-99444366D01*
X160380400Y-99444366D01*
X160313733Y-99411033D01*
X160280400Y-99344366D01*
X160280400Y-99277700D01*
X160313733Y-99211033D01*
X160380400Y-99177700D01*
X160547066Y-99177700D01*
X160613733Y-99144366D01*
X161247066Y-98977700D02*
X161247066Y-99444366D01*
X160947066Y-98977700D02*
X160947066Y-99344366D01*
X160980400Y-99411033D01*
X161047066Y-99444366D01*
X161147066Y-99444366D01*
X161213733Y-99411033D01*
X161247066Y-99377700D01*
X161547066Y-99411033D02*
X161613733Y-99444366D01*
X161747066Y-99444366D01*
X161813733Y-99411033D01*
X161847066Y-99344366D01*
X161847066Y-99311033D01*
X161813733Y-99244366D01*
X161747066Y-99211033D01*
X161647066Y-99211033D01*
X161580400Y-99177700D01*
X161547066Y-99111033D01*
X161547066Y-99077700D01*
X161580400Y-99011033D01*
X161647066Y-98977700D01*
X161747066Y-98977700D01*
X161813733Y-99011033D01*
X162113733Y-99411033D02*
X162180400Y-99444366D01*
X162313733Y-99444366D01*
X162380400Y-99411033D01*
X162413733Y-99344366D01*
X162413733Y-99311033D01*
X162380400Y-99244366D01*
X162313733Y-99211033D01*
X162213733Y-99211033D01*
X162147066Y-99177700D01*
X162113733Y-99111033D01*
X162113733Y-99077700D01*
X162147066Y-99011033D01*
X162213733Y-98977700D01*
X162313733Y-98977700D01*
X162380400Y-99011033D01*
X162980400Y-99411033D02*
X162913733Y-99444366D01*
X162780400Y-99444366D01*
X162713733Y-99411033D01*
X162680400Y-99344366D01*
X162680400Y-99077700D01*
X162713733Y-99011033D01*
X162780400Y-98977700D01*
X162913733Y-98977700D01*
X162980400Y-99011033D01*
X163013733Y-99077700D01*
X163013733Y-99144366D01*
X162680400Y-99211033D01*
X163613733Y-99411033D02*
X163547066Y-99444366D01*
X163413733Y-99444366D01*
X163347066Y-99411033D01*
X163313733Y-99377700D01*
X163280400Y-99311033D01*
X163280400Y-99111033D01*
X163313733Y-99044366D01*
X163347066Y-99011033D01*
X163413733Y-98977700D01*
X163547066Y-98977700D01*
X163613733Y-99011033D01*
X163913733Y-99444366D02*
X163913733Y-98744366D01*
X163980400Y-99177700D02*
X164180400Y-99444366D01*
X164180400Y-98977700D02*
X163913733Y-99244366D01*
X164747066Y-99411033D02*
X164680400Y-99444366D01*
X164547066Y-99444366D01*
X164480400Y-99411033D01*
X164447066Y-99344366D01*
X164447066Y-99077700D01*
X164480400Y-99011033D01*
X164547066Y-98977700D01*
X164680400Y-98977700D01*
X164747066Y-99011033D01*
X164780400Y-99077700D01*
X164780400Y-99144366D01*
X164447066Y-99211033D01*
X165080400Y-99444366D02*
X165080400Y-98977700D01*
X165080400Y-99111033D02*
X165113733Y-99044366D01*
X165147066Y-99011033D01*
X165213733Y-98977700D01*
X165280400Y-98977700D01*
X155113733Y-100571366D02*
X155113733Y-99871366D01*
X155280400Y-99871366D01*
X155380400Y-99904700D01*
X155447066Y-99971366D01*
X155480400Y-100038033D01*
X155513733Y-100171366D01*
X155513733Y-100271366D01*
X155480400Y-100404700D01*
X155447066Y-100471366D01*
X155380400Y-100538033D01*
X155280400Y-100571366D01*
X155113733Y-100571366D01*
X156113733Y-100571366D02*
X156113733Y-100204700D01*
X156080400Y-100138033D01*
X156013733Y-100104700D01*
X155880400Y-100104700D01*
X155813733Y-100138033D01*
X156113733Y-100538033D02*
X156047066Y-100571366D01*
X155880400Y-100571366D01*
X155813733Y-100538033D01*
X155780400Y-100471366D01*
X155780400Y-100404700D01*
X155813733Y-100338033D01*
X155880400Y-100304700D01*
X156047066Y-100304700D01*
X156113733Y-100271366D01*
X156347066Y-100104700D02*
X156613733Y-100104700D01*
X156447066Y-99871366D02*
X156447066Y-100471366D01*
X156480400Y-100538033D01*
X156547066Y-100571366D01*
X156613733Y-100571366D01*
X157113733Y-100538033D02*
X157047066Y-100571366D01*
X156913733Y-100571366D01*
X156847066Y-100538033D01*
X156813733Y-100471366D01*
X156813733Y-100204700D01*
X156847066Y-100138033D01*
X156913733Y-100104700D01*
X157047066Y-100104700D01*
X157113733Y-100138033D01*
X157147066Y-100204700D01*
X157147066Y-100271366D01*
X156813733Y-100338033D01*
X157447066Y-100504700D02*
X157480400Y-100538033D01*
X157447066Y-100571366D01*
X157413733Y-100538033D01*
X157447066Y-100504700D01*
X157447066Y-100571366D01*
X157447066Y-100138033D02*
X157480400Y-100171366D01*
X157447066Y-100204700D01*
X157413733Y-100171366D01*
X157447066Y-100138033D01*
X157447066Y-100204700D01*
X158680400Y-100571366D02*
X158280400Y-100571366D01*
X158480400Y-100571366D02*
X158480400Y-99871366D01*
X158413733Y-99971366D01*
X158347066Y-100038033D01*
X158280400Y-100071366D01*
X158947066Y-99938033D02*
X158980400Y-99904700D01*
X159047066Y-99871366D01*
X159213733Y-99871366D01*
X159280400Y-99904700D01*
X159313733Y-99938033D01*
X159347066Y-100004700D01*
X159347066Y-100071366D01*
X159313733Y-100171366D01*
X158913733Y-100571366D01*
X159347066Y-100571366D01*
X159547066Y-100104700D02*
X159813733Y-100104700D01*
X159647066Y-99871366D02*
X159647066Y-100471366D01*
X159680400Y-100538033D01*
X159747066Y-100571366D01*
X159813733Y-100571366D01*
X160047066Y-100571366D02*
X160047066Y-99871366D01*
X160347066Y-100571366D02*
X160347066Y-100204700D01*
X160313733Y-100138033D01*
X160247066Y-100104700D01*
X160147066Y-100104700D01*
X160080400Y-100138033D01*
X160047066Y-100171366D01*
X161447066Y-100204700D02*
X161213733Y-100204700D01*
X161213733Y-100571366D02*
X161213733Y-99871366D01*
X161547066Y-99871366D01*
X162080400Y-100538033D02*
X162013733Y-100571366D01*
X161880400Y-100571366D01*
X161813733Y-100538033D01*
X161780400Y-100471366D01*
X161780400Y-100204700D01*
X161813733Y-100138033D01*
X161880400Y-100104700D01*
X162013733Y-100104700D01*
X162080400Y-100138033D01*
X162113733Y-100204700D01*
X162113733Y-100271366D01*
X161780400Y-100338033D01*
X162413733Y-100571366D02*
X162413733Y-99871366D01*
X162413733Y-100138033D02*
X162480400Y-100104700D01*
X162613733Y-100104700D01*
X162680400Y-100138033D01*
X162713733Y-100171366D01*
X162747066Y-100238033D01*
X162747066Y-100438033D01*
X162713733Y-100504700D01*
X162680400Y-100538033D01*
X162613733Y-100571366D01*
X162480400Y-100571366D01*
X162413733Y-100538033D01*
X163080400Y-100538033D02*
X163080400Y-100571366D01*
X163047066Y-100638033D01*
X163013733Y-100671366D01*
X163880400Y-99938033D02*
X163913733Y-99904700D01*
X163980400Y-99871366D01*
X164147066Y-99871366D01*
X164213733Y-99904700D01*
X164247066Y-99938033D01*
X164280400Y-100004700D01*
X164280400Y-100071366D01*
X164247066Y-100171366D01*
X163847066Y-100571366D01*
X164280400Y-100571366D01*
X164713733Y-99871366D02*
X164780400Y-99871366D01*
X164847066Y-99904700D01*
X164880400Y-99938033D01*
X164913733Y-100004700D01*
X164947066Y-100138033D01*
X164947066Y-100304700D01*
X164913733Y-100438033D01*
X164880400Y-100504700D01*
X164847066Y-100538033D01*
X164780400Y-100571366D01*
X164713733Y-100571366D01*
X164647066Y-100538033D01*
X164613733Y-100504700D01*
X164580400Y-100438033D01*
X164547066Y-100304700D01*
X164547066Y-100138033D01*
X164580400Y-100004700D01*
X164613733Y-99938033D01*
X164647066Y-99904700D01*
X164713733Y-99871366D01*
X165213733Y-99938033D02*
X165247066Y-99904700D01*
X165313733Y-99871366D01*
X165480400Y-99871366D01*
X165547066Y-99904700D01*
X165580400Y-99938033D01*
X165613733Y-100004700D01*
X165613733Y-100071366D01*
X165580400Y-100171366D01*
X165180400Y-100571366D01*
X165613733Y-100571366D01*
X165847066Y-99871366D02*
X166280400Y-99871366D01*
X166047066Y-100138033D01*
X166147066Y-100138033D01*
X166213733Y-100171366D01*
X166247066Y-100204700D01*
X166280400Y-100271366D01*
X166280400Y-100438033D01*
X166247066Y-100504700D01*
X166213733Y-100538033D01*
X166147066Y-100571366D01*
X165947066Y-100571366D01*
X165880400Y-100538033D01*
X165847066Y-100504700D01*
X158513733Y-101698366D02*
X158280400Y-101365033D01*
X158113733Y-101698366D02*
X158113733Y-100998366D01*
X158380400Y-100998366D01*
X158447066Y-101031700D01*
X158480400Y-101065033D01*
X158513733Y-101131700D01*
X158513733Y-101231700D01*
X158480400Y-101298366D01*
X158447066Y-101331700D01*
X158380400Y-101365033D01*
X158113733Y-101365033D01*
X159080400Y-101665033D02*
X159013733Y-101698366D01*
X158880400Y-101698366D01*
X158813733Y-101665033D01*
X158780400Y-101598366D01*
X158780400Y-101331700D01*
X158813733Y-101265033D01*
X158880400Y-101231700D01*
X159013733Y-101231700D01*
X159080400Y-101265033D01*
X159113733Y-101331700D01*
X159113733Y-101398366D01*
X158780400Y-101465033D01*
X159347066Y-101231700D02*
X159513733Y-101698366D01*
X159680400Y-101231700D01*
X159947066Y-101698366D02*
X159947066Y-101231700D01*
X159947066Y-100998366D02*
X159913733Y-101031700D01*
X159947066Y-101065033D01*
X159980400Y-101031700D01*
X159947066Y-100998366D01*
X159947066Y-101065033D01*
X160247066Y-101665033D02*
X160313733Y-101698366D01*
X160447066Y-101698366D01*
X160513733Y-101665033D01*
X160547066Y-101598366D01*
X160547066Y-101565033D01*
X160513733Y-101498366D01*
X160447066Y-101465033D01*
X160347066Y-101465033D01*
X160280400Y-101431700D01*
X160247066Y-101365033D01*
X160247066Y-101331700D01*
X160280400Y-101265033D01*
X160347066Y-101231700D01*
X160447066Y-101231700D01*
X160513733Y-101265033D01*
X160847066Y-101698366D02*
X160847066Y-101231700D01*
X160847066Y-100998366D02*
X160813733Y-101031700D01*
X160847066Y-101065033D01*
X160880400Y-101031700D01*
X160847066Y-100998366D01*
X160847066Y-101065033D01*
X161280400Y-101698366D02*
X161213733Y-101665033D01*
X161180400Y-101631700D01*
X161147066Y-101565033D01*
X161147066Y-101365033D01*
X161180400Y-101298366D01*
X161213733Y-101265033D01*
X161280400Y-101231700D01*
X161380400Y-101231700D01*
X161447066Y-101265033D01*
X161480400Y-101298366D01*
X161513733Y-101365033D01*
X161513733Y-101565033D01*
X161480400Y-101631700D01*
X161447066Y-101665033D01*
X161380400Y-101698366D01*
X161280400Y-101698366D01*
X161813733Y-101231700D02*
X161813733Y-101698366D01*
X161813733Y-101298366D02*
X161847066Y-101265033D01*
X161913733Y-101231700D01*
X162013733Y-101231700D01*
X162080400Y-101265033D01*
X162113733Y-101331700D01*
X162113733Y-101698366D01*
X162947066Y-101498366D02*
X163280400Y-101498366D01*
X162880400Y-101698366D02*
X163113733Y-100998366D01*
X163347066Y-101698366D01*
X158397066Y-102158700D02*
X158330400Y-102125366D01*
X158230400Y-102125366D01*
X158130400Y-102158700D01*
X158063733Y-102225366D01*
X158030400Y-102292033D01*
X157997066Y-102425366D01*
X157997066Y-102525366D01*
X158030400Y-102658700D01*
X158063733Y-102725366D01*
X158130400Y-102792033D01*
X158230400Y-102825366D01*
X158297066Y-102825366D01*
X158397066Y-102792033D01*
X158430400Y-102758700D01*
X158430400Y-102525366D01*
X158297066Y-102525366D01*
X158730400Y-102825366D02*
X158730400Y-102125366D01*
X158997066Y-102125366D01*
X159063733Y-102158700D01*
X159097066Y-102192033D01*
X159130400Y-102258700D01*
X159130400Y-102358700D01*
X159097066Y-102425366D01*
X159063733Y-102458700D01*
X158997066Y-102492033D01*
X158730400Y-102492033D01*
X159397066Y-102792033D02*
X159497066Y-102825366D01*
X159663733Y-102825366D01*
X159730400Y-102792033D01*
X159763733Y-102758700D01*
X159797066Y-102692033D01*
X159797066Y-102625366D01*
X159763733Y-102558700D01*
X159730400Y-102525366D01*
X159663733Y-102492033D01*
X159530400Y-102458700D01*
X159463733Y-102425366D01*
X159430400Y-102392033D01*
X159397066Y-102325366D01*
X159397066Y-102258700D01*
X159430400Y-102192033D01*
X159463733Y-102158700D01*
X159530400Y-102125366D01*
X159697066Y-102125366D01*
X159797066Y-102158700D01*
X160863733Y-102458700D02*
X160963733Y-102492033D01*
X160997066Y-102525366D01*
X161030400Y-102592033D01*
X161030400Y-102692033D01*
X160997066Y-102758700D01*
X160963733Y-102792033D01*
X160897066Y-102825366D01*
X160630400Y-102825366D01*
X160630400Y-102125366D01*
X160863733Y-102125366D01*
X160930400Y-102158700D01*
X160963733Y-102192033D01*
X160997066Y-102258700D01*
X160997066Y-102325366D01*
X160963733Y-102392033D01*
X160930400Y-102425366D01*
X160863733Y-102458700D01*
X160630400Y-102458700D01*
X161430400Y-102825366D02*
X161363733Y-102792033D01*
X161330400Y-102758700D01*
X161297066Y-102692033D01*
X161297066Y-102492033D01*
X161330400Y-102425366D01*
X161363733Y-102392033D01*
X161430400Y-102358700D01*
X161530400Y-102358700D01*
X161597066Y-102392033D01*
X161630400Y-102425366D01*
X161663733Y-102492033D01*
X161663733Y-102692033D01*
X161630400Y-102758700D01*
X161597066Y-102792033D01*
X161530400Y-102825366D01*
X161430400Y-102825366D01*
X162263733Y-102825366D02*
X162263733Y-102458700D01*
X162230400Y-102392033D01*
X162163733Y-102358700D01*
X162030400Y-102358700D01*
X161963733Y-102392033D01*
X162263733Y-102792033D02*
X162197066Y-102825366D01*
X162030400Y-102825366D01*
X161963733Y-102792033D01*
X161930400Y-102725366D01*
X161930400Y-102658700D01*
X161963733Y-102592033D01*
X162030400Y-102558700D01*
X162197066Y-102558700D01*
X162263733Y-102525366D01*
X162597066Y-102825366D02*
X162597066Y-102358700D01*
X162597066Y-102492033D02*
X162630400Y-102425366D01*
X162663733Y-102392033D01*
X162730400Y-102358700D01*
X162797066Y-102358700D01*
X163330400Y-102825366D02*
X163330400Y-102125366D01*
X163330400Y-102792033D02*
X163263733Y-102825366D01*
X163130400Y-102825366D01*
X163063733Y-102792033D01*
X163030400Y-102758700D01*
X162997066Y-102692033D01*
X162997066Y-102492033D01*
X163030400Y-102425366D01*
X163063733Y-102392033D01*
X163130400Y-102358700D01*
X163263733Y-102358700D01*
X163330400Y-102392033D01*
D12*
X169851428Y-145474571D02*
X168708571Y-145903142D01*
X169851428Y-146331714D01*
X170565714Y-145903142D02*
X171708571Y-145903142D01*
X174065714Y-145688857D02*
X174280000Y-145760285D01*
X174351428Y-145831714D01*
X174422857Y-145974571D01*
X174422857Y-146188857D01*
X174351428Y-146331714D01*
X174280000Y-146403142D01*
X174137142Y-146474571D01*
X173565714Y-146474571D01*
X173565714Y-144974571D01*
X174065714Y-144974571D01*
X174208571Y-145046000D01*
X174280000Y-145117428D01*
X174351428Y-145260285D01*
X174351428Y-145403142D01*
X174280000Y-145546000D01*
X174208571Y-145617428D01*
X174065714Y-145688857D01*
X173565714Y-145688857D01*
X175280000Y-146474571D02*
X175137142Y-146403142D01*
X175065714Y-146331714D01*
X174994285Y-146188857D01*
X174994285Y-145760285D01*
X175065714Y-145617428D01*
X175137142Y-145546000D01*
X175280000Y-145474571D01*
X175494285Y-145474571D01*
X175637142Y-145546000D01*
X175708571Y-145617428D01*
X175780000Y-145760285D01*
X175780000Y-146188857D01*
X175708571Y-146331714D01*
X175637142Y-146403142D01*
X175494285Y-146474571D01*
X175280000Y-146474571D01*
X177065714Y-146474571D02*
X177065714Y-145688857D01*
X176994285Y-145546000D01*
X176851428Y-145474571D01*
X176565714Y-145474571D01*
X176422857Y-145546000D01*
X177065714Y-146403142D02*
X176922857Y-146474571D01*
X176565714Y-146474571D01*
X176422857Y-146403142D01*
X176351428Y-146260285D01*
X176351428Y-146117428D01*
X176422857Y-145974571D01*
X176565714Y-145903142D01*
X176922857Y-145903142D01*
X177065714Y-145831714D01*
X177780000Y-146474571D02*
X177780000Y-145474571D01*
X177780000Y-145760285D02*
X177851428Y-145617428D01*
X177922857Y-145546000D01*
X178065714Y-145474571D01*
X178208571Y-145474571D01*
X179351428Y-146474571D02*
X179351428Y-144974571D01*
X179351428Y-146403142D02*
X179208571Y-146474571D01*
X178922857Y-146474571D01*
X178780000Y-146403142D01*
X178708571Y-146331714D01*
X178637142Y-146188857D01*
X178637142Y-145760285D01*
X178708571Y-145617428D01*
X178780000Y-145546000D01*
X178922857Y-145474571D01*
X179208571Y-145474571D01*
X179351428Y-145546000D01*
X181208571Y-146474571D02*
X181208571Y-144974571D01*
X182994285Y-144903142D02*
X181708571Y-146831714D01*
X183780000Y-144974571D02*
X184065714Y-144974571D01*
X184208571Y-145046000D01*
X184351428Y-145188857D01*
X184422857Y-145474571D01*
X184422857Y-145974571D01*
X184351428Y-146260285D01*
X184208571Y-146403142D01*
X184065714Y-146474571D01*
X183780000Y-146474571D01*
X183637142Y-146403142D01*
X183494285Y-146260285D01*
X183422857Y-145974571D01*
X183422857Y-145474571D01*
X183494285Y-145188857D01*
X183637142Y-145046000D01*
X183780000Y-144974571D01*
X125579428Y-116685142D02*
X125793714Y-116756571D01*
X126150857Y-116756571D01*
X126293714Y-116685142D01*
X126365142Y-116613714D01*
X126436571Y-116470857D01*
X126436571Y-116328000D01*
X126365142Y-116185142D01*
X126293714Y-116113714D01*
X126150857Y-116042285D01*
X125865142Y-115970857D01*
X125722285Y-115899428D01*
X125650857Y-115828000D01*
X125579428Y-115685142D01*
X125579428Y-115542285D01*
X125650857Y-115399428D01*
X125722285Y-115328000D01*
X125865142Y-115256571D01*
X126222285Y-115256571D01*
X126436571Y-115328000D01*
X127079428Y-116756571D02*
X127079428Y-115256571D01*
X127579428Y-116328000D01*
X128079428Y-115256571D01*
X128079428Y-116756571D01*
X128722285Y-116328000D02*
X129436571Y-116328000D01*
X128579428Y-116756571D02*
X129079428Y-115256571D01*
X129579428Y-116756571D01*
X168392857Y-88586571D02*
X169321428Y-88586571D01*
X168821428Y-89158000D01*
X169035714Y-89158000D01*
X169178571Y-89229428D01*
X169250000Y-89300857D01*
X169321428Y-89443714D01*
X169321428Y-89800857D01*
X169250000Y-89943714D01*
X169178571Y-90015142D01*
X169035714Y-90086571D01*
X168607142Y-90086571D01*
X168464285Y-90015142D01*
X168392857Y-89943714D01*
X169821428Y-89086571D02*
X170178571Y-90086571D01*
X170535714Y-89086571D01*
X170964285Y-88586571D02*
X171892857Y-88586571D01*
X171392857Y-89158000D01*
X171607142Y-89158000D01*
X171750000Y-89229428D01*
X171821428Y-89300857D01*
X171892857Y-89443714D01*
X171892857Y-89800857D01*
X171821428Y-89943714D01*
X171750000Y-90015142D01*
X171607142Y-90086571D01*
X171178571Y-90086571D01*
X171035714Y-90015142D01*
X170964285Y-89943714D01*
X173678571Y-90086571D02*
X173678571Y-89086571D01*
X173678571Y-89372285D02*
X173750000Y-89229428D01*
X173821428Y-89158000D01*
X173964285Y-89086571D01*
X174107142Y-89086571D01*
X175178571Y-90015142D02*
X175035714Y-90086571D01*
X174750000Y-90086571D01*
X174607142Y-90015142D01*
X174535714Y-89872285D01*
X174535714Y-89300857D01*
X174607142Y-89158000D01*
X174750000Y-89086571D01*
X175035714Y-89086571D01*
X175178571Y-89158000D01*
X175250000Y-89300857D01*
X175250000Y-89443714D01*
X174535714Y-89586571D01*
X176535714Y-89086571D02*
X176535714Y-90300857D01*
X176464285Y-90443714D01*
X176392857Y-90515142D01*
X176250000Y-90586571D01*
X176035714Y-90586571D01*
X175892857Y-90515142D01*
X176535714Y-90015142D02*
X176392857Y-90086571D01*
X176107142Y-90086571D01*
X175964285Y-90015142D01*
X175892857Y-89943714D01*
X175821428Y-89800857D01*
X175821428Y-89372285D01*
X175892857Y-89229428D01*
X175964285Y-89158000D01*
X176107142Y-89086571D01*
X176392857Y-89086571D01*
X176535714Y-89158000D01*
X178178571Y-89086571D02*
X178750000Y-89086571D01*
X178392857Y-90086571D02*
X178392857Y-88800857D01*
X178464285Y-88658000D01*
X178607142Y-88586571D01*
X178750000Y-88586571D01*
X179464285Y-90086571D02*
X179321428Y-90015142D01*
X179250000Y-89943714D01*
X179178571Y-89800857D01*
X179178571Y-89372285D01*
X179250000Y-89229428D01*
X179321428Y-89158000D01*
X179464285Y-89086571D01*
X179678571Y-89086571D01*
X179821428Y-89158000D01*
X179892857Y-89229428D01*
X179964285Y-89372285D01*
X179964285Y-89800857D01*
X179892857Y-89943714D01*
X179821428Y-90015142D01*
X179678571Y-90086571D01*
X179464285Y-90086571D01*
X180607142Y-90086571D02*
X180607142Y-89086571D01*
X180607142Y-89372285D02*
X180678571Y-89229428D01*
X180750000Y-89158000D01*
X180892857Y-89086571D01*
X181035714Y-89086571D01*
X182678571Y-88586571D02*
X182678571Y-89800857D01*
X182750000Y-89943714D01*
X182821428Y-90015142D01*
X182964285Y-90086571D01*
X183250000Y-90086571D01*
X183392857Y-90015142D01*
X183464285Y-89943714D01*
X183535714Y-89800857D01*
X183535714Y-88586571D01*
X184178571Y-90015142D02*
X184392857Y-90086571D01*
X184750000Y-90086571D01*
X184892857Y-90015142D01*
X184964285Y-89943714D01*
X185035714Y-89800857D01*
X185035714Y-89658000D01*
X184964285Y-89515142D01*
X184892857Y-89443714D01*
X184750000Y-89372285D01*
X184464285Y-89300857D01*
X184321428Y-89229428D01*
X184250000Y-89158000D01*
X184178571Y-89015142D01*
X184178571Y-88872285D01*
X184250000Y-88729428D01*
X184321428Y-88658000D01*
X184464285Y-88586571D01*
X184821428Y-88586571D01*
X185035714Y-88658000D01*
X186178571Y-89300857D02*
X186392857Y-89372285D01*
X186464285Y-89443714D01*
X186535714Y-89586571D01*
X186535714Y-89800857D01*
X186464285Y-89943714D01*
X186392857Y-90015142D01*
X186250000Y-90086571D01*
X185678571Y-90086571D01*
X185678571Y-88586571D01*
X186178571Y-88586571D01*
X186321428Y-88658000D01*
X186392857Y-88729428D01*
X186464285Y-88872285D01*
X186464285Y-89015142D01*
X186392857Y-89158000D01*
X186321428Y-89229428D01*
X186178571Y-89300857D01*
X185678571Y-89300857D01*
X151265142Y-116344000D02*
X151122285Y-116272571D01*
X150908000Y-116272571D01*
X150693714Y-116344000D01*
X150550857Y-116486857D01*
X150479428Y-116629714D01*
X150408000Y-116915428D01*
X150408000Y-117129714D01*
X150479428Y-117415428D01*
X150550857Y-117558285D01*
X150693714Y-117701142D01*
X150908000Y-117772571D01*
X151050857Y-117772571D01*
X151265142Y-117701142D01*
X151336571Y-117629714D01*
X151336571Y-117129714D01*
X151050857Y-117129714D01*
X151979428Y-117772571D02*
X151979428Y-116272571D01*
X152550857Y-116272571D01*
X152693714Y-116344000D01*
X152765142Y-116415428D01*
X152836571Y-116558285D01*
X152836571Y-116772571D01*
X152765142Y-116915428D01*
X152693714Y-116986857D01*
X152550857Y-117058285D01*
X151979428Y-117058285D01*
X153408000Y-117701142D02*
X153622285Y-117772571D01*
X153979428Y-117772571D01*
X154122285Y-117701142D01*
X154193714Y-117629714D01*
X154265142Y-117486857D01*
X154265142Y-117344000D01*
X154193714Y-117201142D01*
X154122285Y-117129714D01*
X153979428Y-117058285D01*
X153693714Y-116986857D01*
X153550857Y-116915428D01*
X153479428Y-116844000D01*
X153408000Y-116701142D01*
X153408000Y-116558285D01*
X153479428Y-116415428D01*
X153550857Y-116344000D01*
X153693714Y-116272571D01*
X154050857Y-116272571D01*
X154265142Y-116344000D01*
X143577228Y-83178571D02*
X144505800Y-83178571D01*
X144005800Y-83750000D01*
X144220085Y-83750000D01*
X144362942Y-83821428D01*
X144434371Y-83892857D01*
X144505800Y-84035714D01*
X144505800Y-84392857D01*
X144434371Y-84535714D01*
X144362942Y-84607142D01*
X144220085Y-84678571D01*
X143791514Y-84678571D01*
X143648657Y-84607142D01*
X143577228Y-84535714D01*
X145005800Y-83678571D02*
X145362942Y-84678571D01*
X145720085Y-83678571D01*
X146148657Y-83178571D02*
X147077228Y-83178571D01*
X146577228Y-83750000D01*
X146791514Y-83750000D01*
X146934371Y-83821428D01*
X147005800Y-83892857D01*
X147077228Y-84035714D01*
X147077228Y-84392857D01*
X147005800Y-84535714D01*
X146934371Y-84607142D01*
X146791514Y-84678571D01*
X146362942Y-84678571D01*
X146220085Y-84607142D01*
X146148657Y-84535714D01*
X149720085Y-84678571D02*
X149220085Y-83964285D01*
X148862942Y-84678571D02*
X148862942Y-83178571D01*
X149434371Y-83178571D01*
X149577228Y-83250000D01*
X149648657Y-83321428D01*
X149720085Y-83464285D01*
X149720085Y-83678571D01*
X149648657Y-83821428D01*
X149577228Y-83892857D01*
X149434371Y-83964285D01*
X148862942Y-83964285D01*
X150934371Y-84607142D02*
X150791514Y-84678571D01*
X150505800Y-84678571D01*
X150362942Y-84607142D01*
X150291514Y-84464285D01*
X150291514Y-83892857D01*
X150362942Y-83750000D01*
X150505800Y-83678571D01*
X150791514Y-83678571D01*
X150934371Y-83750000D01*
X151005800Y-83892857D01*
X151005800Y-84035714D01*
X150291514Y-84178571D01*
X152291514Y-83678571D02*
X152291514Y-84892857D01*
X152220085Y-85035714D01*
X152148657Y-85107142D01*
X152005800Y-85178571D01*
X151791514Y-85178571D01*
X151648657Y-85107142D01*
X152291514Y-84607142D02*
X152148657Y-84678571D01*
X151862942Y-84678571D01*
X151720085Y-84607142D01*
X151648657Y-84535714D01*
X151577228Y-84392857D01*
X151577228Y-83964285D01*
X151648657Y-83821428D01*
X151720085Y-83750000D01*
X151862942Y-83678571D01*
X152148657Y-83678571D01*
X152291514Y-83750000D01*
D10*
X183563142Y-137310761D02*
X183706000Y-137358380D01*
X183944095Y-137358380D01*
X184039333Y-137310761D01*
X184086952Y-137263142D01*
X184134571Y-137167904D01*
X184134571Y-137072666D01*
X184086952Y-136977428D01*
X184039333Y-136929809D01*
X183944095Y-136882190D01*
X183753619Y-136834571D01*
X183658380Y-136786952D01*
X183610761Y-136739333D01*
X183563142Y-136644095D01*
X183563142Y-136548857D01*
X183610761Y-136453619D01*
X183658380Y-136406000D01*
X183753619Y-136358380D01*
X183991714Y-136358380D01*
X184134571Y-136406000D01*
X184420285Y-136358380D02*
X184991714Y-136358380D01*
X184706000Y-137358380D02*
X184706000Y-136358380D01*
X185325047Y-137358380D02*
X185325047Y-136358380D01*
X185658380Y-137072666D01*
X185991714Y-136358380D01*
X185991714Y-137358380D01*
X187229809Y-137358380D02*
X187229809Y-136358380D01*
X187658380Y-137358380D02*
X187658380Y-136834571D01*
X187610761Y-136739333D01*
X187515523Y-136691714D01*
X187372666Y-136691714D01*
X187277428Y-136739333D01*
X187229809Y-136786952D01*
X188515523Y-137310761D02*
X188420285Y-137358380D01*
X188229809Y-137358380D01*
X188134571Y-137310761D01*
X188086952Y-137215523D01*
X188086952Y-136834571D01*
X188134571Y-136739333D01*
X188229809Y-136691714D01*
X188420285Y-136691714D01*
X188515523Y-136739333D01*
X188563142Y-136834571D01*
X188563142Y-136929809D01*
X188086952Y-137025047D01*
X189420285Y-137358380D02*
X189420285Y-136834571D01*
X189372666Y-136739333D01*
X189277428Y-136691714D01*
X189086952Y-136691714D01*
X188991714Y-136739333D01*
X189420285Y-137310761D02*
X189325047Y-137358380D01*
X189086952Y-137358380D01*
X188991714Y-137310761D01*
X188944095Y-137215523D01*
X188944095Y-137120285D01*
X188991714Y-137025047D01*
X189086952Y-136977428D01*
X189325047Y-136977428D01*
X189420285Y-136929809D01*
X190325047Y-137358380D02*
X190325047Y-136358380D01*
X190325047Y-137310761D02*
X190229809Y-137358380D01*
X190039333Y-137358380D01*
X189944095Y-137310761D01*
X189896476Y-137263142D01*
X189848857Y-137167904D01*
X189848857Y-136882190D01*
X189896476Y-136786952D01*
X189944095Y-136739333D01*
X190039333Y-136691714D01*
X190229809Y-136691714D01*
X190325047Y-136739333D01*
X191182190Y-137310761D02*
X191086952Y-137358380D01*
X190896476Y-137358380D01*
X190801238Y-137310761D01*
X190753619Y-137215523D01*
X190753619Y-136834571D01*
X190801238Y-136739333D01*
X190896476Y-136691714D01*
X191086952Y-136691714D01*
X191182190Y-136739333D01*
X191229809Y-136834571D01*
X191229809Y-136929809D01*
X190753619Y-137025047D01*
X191658380Y-137358380D02*
X191658380Y-136691714D01*
X191658380Y-136882190D02*
X191706000Y-136786952D01*
X191753619Y-136739333D01*
X191848857Y-136691714D01*
X191944095Y-136691714D01*
D12*
X134263142Y-86808571D02*
X133548857Y-86808571D01*
X133477428Y-87522857D01*
X133548857Y-87451428D01*
X133691714Y-87380000D01*
X134048857Y-87380000D01*
X134191714Y-87451428D01*
X134263142Y-87522857D01*
X134334571Y-87665714D01*
X134334571Y-88022857D01*
X134263142Y-88165714D01*
X134191714Y-88237142D01*
X134048857Y-88308571D01*
X133691714Y-88308571D01*
X133548857Y-88237142D01*
X133477428Y-88165714D01*
X134763142Y-86808571D02*
X135263142Y-88308571D01*
X135763142Y-86808571D01*
X137406000Y-88308571D02*
X137406000Y-87308571D01*
X137406000Y-87594285D02*
X137477428Y-87451428D01*
X137548857Y-87380000D01*
X137691714Y-87308571D01*
X137834571Y-87308571D01*
X138906000Y-88237142D02*
X138763142Y-88308571D01*
X138477428Y-88308571D01*
X138334571Y-88237142D01*
X138263142Y-88094285D01*
X138263142Y-87522857D01*
X138334571Y-87380000D01*
X138477428Y-87308571D01*
X138763142Y-87308571D01*
X138906000Y-87380000D01*
X138977428Y-87522857D01*
X138977428Y-87665714D01*
X138263142Y-87808571D01*
X140263142Y-87308571D02*
X140263142Y-88522857D01*
X140191714Y-88665714D01*
X140120285Y-88737142D01*
X139977428Y-88808571D01*
X139763142Y-88808571D01*
X139620285Y-88737142D01*
X140263142Y-88237142D02*
X140120285Y-88308571D01*
X139834571Y-88308571D01*
X139691714Y-88237142D01*
X139620285Y-88165714D01*
X139548857Y-88022857D01*
X139548857Y-87594285D01*
X139620285Y-87451428D01*
X139691714Y-87380000D01*
X139834571Y-87308571D01*
X140120285Y-87308571D01*
X140263142Y-87380000D01*
D10*
%TO.C,C110*%
X138326952Y-127103142D02*
X138279333Y-127150761D01*
X138136476Y-127198380D01*
X138041238Y-127198380D01*
X137898380Y-127150761D01*
X137803142Y-127055523D01*
X137755523Y-126960285D01*
X137707904Y-126769809D01*
X137707904Y-126626952D01*
X137755523Y-126436476D01*
X137803142Y-126341238D01*
X137898380Y-126246000D01*
X138041238Y-126198380D01*
X138136476Y-126198380D01*
X138279333Y-126246000D01*
X138326952Y-126293619D01*
X139279333Y-127198380D02*
X138707904Y-127198380D01*
X138993619Y-127198380D02*
X138993619Y-126198380D01*
X138898380Y-126341238D01*
X138803142Y-126436476D01*
X138707904Y-126484095D01*
X140231714Y-127198380D02*
X139660285Y-127198380D01*
X139946000Y-127198380D02*
X139946000Y-126198380D01*
X139850761Y-126341238D01*
X139755523Y-126436476D01*
X139660285Y-126484095D01*
X140850761Y-126198380D02*
X140946000Y-126198380D01*
X141041238Y-126246000D01*
X141088857Y-126293619D01*
X141136476Y-126388857D01*
X141184095Y-126579333D01*
X141184095Y-126817428D01*
X141136476Y-127007904D01*
X141088857Y-127103142D01*
X141041238Y-127150761D01*
X140946000Y-127198380D01*
X140850761Y-127198380D01*
X140755523Y-127150761D01*
X140707904Y-127103142D01*
X140660285Y-127007904D01*
X140612666Y-126817428D01*
X140612666Y-126579333D01*
X140660285Y-126388857D01*
X140707904Y-126293619D01*
X140755523Y-126246000D01*
X140850761Y-126198380D01*
%TO.C,C118*%
X169086942Y-119969047D02*
X169134561Y-120016666D01*
X169182180Y-120159523D01*
X169182180Y-120254761D01*
X169134561Y-120397619D01*
X169039323Y-120492857D01*
X168944085Y-120540476D01*
X168753609Y-120588095D01*
X168610752Y-120588095D01*
X168420276Y-120540476D01*
X168325038Y-120492857D01*
X168229800Y-120397619D01*
X168182180Y-120254761D01*
X168182180Y-120159523D01*
X168229800Y-120016666D01*
X168277419Y-119969047D01*
X169182180Y-119016666D02*
X169182180Y-119588095D01*
X169182180Y-119302380D02*
X168182180Y-119302380D01*
X168325038Y-119397619D01*
X168420276Y-119492857D01*
X168467895Y-119588095D01*
X169182180Y-118064285D02*
X169182180Y-118635714D01*
X169182180Y-118350000D02*
X168182180Y-118350000D01*
X168325038Y-118445238D01*
X168420276Y-118540476D01*
X168467895Y-118635714D01*
X168610752Y-117492857D02*
X168563133Y-117588095D01*
X168515514Y-117635714D01*
X168420276Y-117683333D01*
X168372657Y-117683333D01*
X168277419Y-117635714D01*
X168229800Y-117588095D01*
X168182180Y-117492857D01*
X168182180Y-117302380D01*
X168229800Y-117207142D01*
X168277419Y-117159523D01*
X168372657Y-117111904D01*
X168420276Y-117111904D01*
X168515514Y-117159523D01*
X168563133Y-117207142D01*
X168610752Y-117302380D01*
X168610752Y-117492857D01*
X168658371Y-117588095D01*
X168705990Y-117635714D01*
X168801228Y-117683333D01*
X168991704Y-117683333D01*
X169086942Y-117635714D01*
X169134561Y-117588095D01*
X169182180Y-117492857D01*
X169182180Y-117302380D01*
X169134561Y-117207142D01*
X169086942Y-117159523D01*
X168991704Y-117111904D01*
X168801228Y-117111904D01*
X168705990Y-117159523D01*
X168658371Y-117207142D01*
X168610752Y-117302380D01*
%TO.C,C123*%
X170756752Y-122353142D02*
X170709133Y-122400761D01*
X170566276Y-122448380D01*
X170471038Y-122448380D01*
X170328180Y-122400761D01*
X170232942Y-122305523D01*
X170185323Y-122210285D01*
X170137704Y-122019809D01*
X170137704Y-121876952D01*
X170185323Y-121686476D01*
X170232942Y-121591238D01*
X170328180Y-121496000D01*
X170471038Y-121448380D01*
X170566276Y-121448380D01*
X170709133Y-121496000D01*
X170756752Y-121543619D01*
X171709133Y-122448380D02*
X171137704Y-122448380D01*
X171423419Y-122448380D02*
X171423419Y-121448380D01*
X171328180Y-121591238D01*
X171232942Y-121686476D01*
X171137704Y-121734095D01*
X172090085Y-121543619D02*
X172137704Y-121496000D01*
X172232942Y-121448380D01*
X172471038Y-121448380D01*
X172566276Y-121496000D01*
X172613895Y-121543619D01*
X172661514Y-121638857D01*
X172661514Y-121734095D01*
X172613895Y-121876952D01*
X172042466Y-122448380D01*
X172661514Y-122448380D01*
X172994847Y-121448380D02*
X173613895Y-121448380D01*
X173280561Y-121829333D01*
X173423419Y-121829333D01*
X173518657Y-121876952D01*
X173566276Y-121924571D01*
X173613895Y-122019809D01*
X173613895Y-122257904D01*
X173566276Y-122353142D01*
X173518657Y-122400761D01*
X173423419Y-122448380D01*
X173137704Y-122448380D01*
X173042466Y-122400761D01*
X172994847Y-122353142D01*
%TO.C,D101*%
X141309523Y-140452380D02*
X141309523Y-139452380D01*
X141547619Y-139452380D01*
X141690476Y-139500000D01*
X141785714Y-139595238D01*
X141833333Y-139690476D01*
X141880952Y-139880952D01*
X141880952Y-140023809D01*
X141833333Y-140214285D01*
X141785714Y-140309523D01*
X141690476Y-140404761D01*
X141547619Y-140452380D01*
X141309523Y-140452380D01*
X142833333Y-140452380D02*
X142261904Y-140452380D01*
X142547619Y-140452380D02*
X142547619Y-139452380D01*
X142452380Y-139595238D01*
X142357142Y-139690476D01*
X142261904Y-139738095D01*
X143452380Y-139452380D02*
X143547619Y-139452380D01*
X143642857Y-139500000D01*
X143690476Y-139547619D01*
X143738095Y-139642857D01*
X143785714Y-139833333D01*
X143785714Y-140071428D01*
X143738095Y-140261904D01*
X143690476Y-140357142D01*
X143642857Y-140404761D01*
X143547619Y-140452380D01*
X143452380Y-140452380D01*
X143357142Y-140404761D01*
X143309523Y-140357142D01*
X143261904Y-140261904D01*
X143214285Y-140071428D01*
X143214285Y-139833333D01*
X143261904Y-139642857D01*
X143309523Y-139547619D01*
X143357142Y-139500000D01*
X143452380Y-139452380D01*
X144738095Y-140452380D02*
X144166666Y-140452380D01*
X144452380Y-140452380D02*
X144452380Y-139452380D01*
X144357142Y-139595238D01*
X144261904Y-139690476D01*
X144166666Y-139738095D01*
%TO.C,JP101*%
X179488085Y-117264380D02*
X179488085Y-117978666D01*
X179440466Y-118121523D01*
X179345228Y-118216761D01*
X179202371Y-118264380D01*
X179107133Y-118264380D01*
X179964276Y-118264380D02*
X179964276Y-117264380D01*
X180345228Y-117264380D01*
X180440466Y-117312000D01*
X180488085Y-117359619D01*
X180535704Y-117454857D01*
X180535704Y-117597714D01*
X180488085Y-117692952D01*
X180440466Y-117740571D01*
X180345228Y-117788190D01*
X179964276Y-117788190D01*
X181488085Y-118264380D02*
X180916657Y-118264380D01*
X181202371Y-118264380D02*
X181202371Y-117264380D01*
X181107133Y-117407238D01*
X181011895Y-117502476D01*
X180916657Y-117550095D01*
X182107133Y-117264380D02*
X182202371Y-117264380D01*
X182297609Y-117312000D01*
X182345228Y-117359619D01*
X182392847Y-117454857D01*
X182440466Y-117645333D01*
X182440466Y-117883428D01*
X182392847Y-118073904D01*
X182345228Y-118169142D01*
X182297609Y-118216761D01*
X182202371Y-118264380D01*
X182107133Y-118264380D01*
X182011895Y-118216761D01*
X181964276Y-118169142D01*
X181916657Y-118073904D01*
X181869038Y-117883428D01*
X181869038Y-117645333D01*
X181916657Y-117454857D01*
X181964276Y-117359619D01*
X182011895Y-117312000D01*
X182107133Y-117264380D01*
X183392847Y-118264380D02*
X182821419Y-118264380D01*
X183107133Y-118264380D02*
X183107133Y-117264380D01*
X183011895Y-117407238D01*
X182916657Y-117502476D01*
X182821419Y-117550095D01*
%TO.C,C122*%
X170756752Y-118797142D02*
X170709133Y-118844761D01*
X170566276Y-118892380D01*
X170471038Y-118892380D01*
X170328180Y-118844761D01*
X170232942Y-118749523D01*
X170185323Y-118654285D01*
X170137704Y-118463809D01*
X170137704Y-118320952D01*
X170185323Y-118130476D01*
X170232942Y-118035238D01*
X170328180Y-117940000D01*
X170471038Y-117892380D01*
X170566276Y-117892380D01*
X170709133Y-117940000D01*
X170756752Y-117987619D01*
X171709133Y-118892380D02*
X171137704Y-118892380D01*
X171423419Y-118892380D02*
X171423419Y-117892380D01*
X171328180Y-118035238D01*
X171232942Y-118130476D01*
X171137704Y-118178095D01*
X172090085Y-117987619D02*
X172137704Y-117940000D01*
X172232942Y-117892380D01*
X172471038Y-117892380D01*
X172566276Y-117940000D01*
X172613895Y-117987619D01*
X172661514Y-118082857D01*
X172661514Y-118178095D01*
X172613895Y-118320952D01*
X172042466Y-118892380D01*
X172661514Y-118892380D01*
X173042466Y-117987619D02*
X173090085Y-117940000D01*
X173185323Y-117892380D01*
X173423419Y-117892380D01*
X173518657Y-117940000D01*
X173566276Y-117987619D01*
X173613895Y-118082857D01*
X173613895Y-118178095D01*
X173566276Y-118320952D01*
X172994847Y-118892380D01*
X173613895Y-118892380D01*
%TO.C,C109*%
X138326952Y-131857142D02*
X138279333Y-131904761D01*
X138136476Y-131952380D01*
X138041238Y-131952380D01*
X137898380Y-131904761D01*
X137803142Y-131809523D01*
X137755523Y-131714285D01*
X137707904Y-131523809D01*
X137707904Y-131380952D01*
X137755523Y-131190476D01*
X137803142Y-131095238D01*
X137898380Y-131000000D01*
X138041238Y-130952380D01*
X138136476Y-130952380D01*
X138279333Y-131000000D01*
X138326952Y-131047619D01*
X139279333Y-131952380D02*
X138707904Y-131952380D01*
X138993619Y-131952380D02*
X138993619Y-130952380D01*
X138898380Y-131095238D01*
X138803142Y-131190476D01*
X138707904Y-131238095D01*
X139898380Y-130952380D02*
X139993619Y-130952380D01*
X140088857Y-131000000D01*
X140136476Y-131047619D01*
X140184095Y-131142857D01*
X140231714Y-131333333D01*
X140231714Y-131571428D01*
X140184095Y-131761904D01*
X140136476Y-131857142D01*
X140088857Y-131904761D01*
X139993619Y-131952380D01*
X139898380Y-131952380D01*
X139803142Y-131904761D01*
X139755523Y-131857142D01*
X139707904Y-131761904D01*
X139660285Y-131571428D01*
X139660285Y-131333333D01*
X139707904Y-131142857D01*
X139755523Y-131047619D01*
X139803142Y-131000000D01*
X139898380Y-130952380D01*
X140707904Y-131952380D02*
X140898380Y-131952380D01*
X140993619Y-131904761D01*
X141041238Y-131857142D01*
X141136476Y-131714285D01*
X141184095Y-131523809D01*
X141184095Y-131142857D01*
X141136476Y-131047619D01*
X141088857Y-131000000D01*
X140993619Y-130952380D01*
X140803142Y-130952380D01*
X140707904Y-131000000D01*
X140660285Y-131047619D01*
X140612666Y-131142857D01*
X140612666Y-131380952D01*
X140660285Y-131476190D01*
X140707904Y-131523809D01*
X140803142Y-131571428D01*
X140993619Y-131571428D01*
X141088857Y-131523809D01*
X141136476Y-131476190D01*
X141184095Y-131380952D01*
%TO.C,U103*%
X181083514Y-91196380D02*
X181083514Y-92005904D01*
X181131133Y-92101142D01*
X181178752Y-92148761D01*
X181273990Y-92196380D01*
X181464466Y-92196380D01*
X181559704Y-92148761D01*
X181607323Y-92101142D01*
X181654942Y-92005904D01*
X181654942Y-91196380D01*
X182654942Y-92196380D02*
X182083514Y-92196380D01*
X182369228Y-92196380D02*
X182369228Y-91196380D01*
X182273990Y-91339238D01*
X182178752Y-91434476D01*
X182083514Y-91482095D01*
X183273990Y-91196380D02*
X183369228Y-91196380D01*
X183464466Y-91244000D01*
X183512085Y-91291619D01*
X183559704Y-91386857D01*
X183607323Y-91577333D01*
X183607323Y-91815428D01*
X183559704Y-92005904D01*
X183512085Y-92101142D01*
X183464466Y-92148761D01*
X183369228Y-92196380D01*
X183273990Y-92196380D01*
X183178752Y-92148761D01*
X183131133Y-92101142D01*
X183083514Y-92005904D01*
X183035895Y-91815428D01*
X183035895Y-91577333D01*
X183083514Y-91386857D01*
X183131133Y-91291619D01*
X183178752Y-91244000D01*
X183273990Y-91196380D01*
X183940657Y-91196380D02*
X184559704Y-91196380D01*
X184226371Y-91577333D01*
X184369228Y-91577333D01*
X184464466Y-91624952D01*
X184512085Y-91672571D01*
X184559704Y-91767809D01*
X184559704Y-92005904D01*
X184512085Y-92101142D01*
X184464466Y-92148761D01*
X184369228Y-92196380D01*
X184083514Y-92196380D01*
X183988276Y-92148761D01*
X183940657Y-92101142D01*
%TO.C,C101*%
X128420952Y-93067142D02*
X128373333Y-93114761D01*
X128230476Y-93162380D01*
X128135238Y-93162380D01*
X127992380Y-93114761D01*
X127897142Y-93019523D01*
X127849523Y-92924285D01*
X127801904Y-92733809D01*
X127801904Y-92590952D01*
X127849523Y-92400476D01*
X127897142Y-92305238D01*
X127992380Y-92210000D01*
X128135238Y-92162380D01*
X128230476Y-92162380D01*
X128373333Y-92210000D01*
X128420952Y-92257619D01*
X129373333Y-93162380D02*
X128801904Y-93162380D01*
X129087619Y-93162380D02*
X129087619Y-92162380D01*
X128992380Y-92305238D01*
X128897142Y-92400476D01*
X128801904Y-92448095D01*
X129992380Y-92162380D02*
X130087619Y-92162380D01*
X130182857Y-92210000D01*
X130230476Y-92257619D01*
X130278095Y-92352857D01*
X130325714Y-92543333D01*
X130325714Y-92781428D01*
X130278095Y-92971904D01*
X130230476Y-93067142D01*
X130182857Y-93114761D01*
X130087619Y-93162380D01*
X129992380Y-93162380D01*
X129897142Y-93114761D01*
X129849523Y-93067142D01*
X129801904Y-92971904D01*
X129754285Y-92781428D01*
X129754285Y-92543333D01*
X129801904Y-92352857D01*
X129849523Y-92257619D01*
X129897142Y-92210000D01*
X129992380Y-92162380D01*
X131278095Y-93162380D02*
X130706666Y-93162380D01*
X130992380Y-93162380D02*
X130992380Y-92162380D01*
X130897142Y-92305238D01*
X130801904Y-92400476D01*
X130706666Y-92448095D01*
%TO.C,C108*%
X166375142Y-133961047D02*
X166422761Y-134008666D01*
X166470380Y-134151523D01*
X166470380Y-134246761D01*
X166422761Y-134389619D01*
X166327523Y-134484857D01*
X166232285Y-134532476D01*
X166041809Y-134580095D01*
X165898952Y-134580095D01*
X165708476Y-134532476D01*
X165613238Y-134484857D01*
X165518000Y-134389619D01*
X165470380Y-134246761D01*
X165470380Y-134151523D01*
X165518000Y-134008666D01*
X165565619Y-133961047D01*
X166470380Y-133008666D02*
X166470380Y-133580095D01*
X166470380Y-133294380D02*
X165470380Y-133294380D01*
X165613238Y-133389619D01*
X165708476Y-133484857D01*
X165756095Y-133580095D01*
X165470380Y-132389619D02*
X165470380Y-132294380D01*
X165518000Y-132199142D01*
X165565619Y-132151523D01*
X165660857Y-132103904D01*
X165851333Y-132056285D01*
X166089428Y-132056285D01*
X166279904Y-132103904D01*
X166375142Y-132151523D01*
X166422761Y-132199142D01*
X166470380Y-132294380D01*
X166470380Y-132389619D01*
X166422761Y-132484857D01*
X166375142Y-132532476D01*
X166279904Y-132580095D01*
X166089428Y-132627714D01*
X165851333Y-132627714D01*
X165660857Y-132580095D01*
X165565619Y-132532476D01*
X165518000Y-132484857D01*
X165470380Y-132389619D01*
X165898952Y-131484857D02*
X165851333Y-131580095D01*
X165803714Y-131627714D01*
X165708476Y-131675333D01*
X165660857Y-131675333D01*
X165565619Y-131627714D01*
X165518000Y-131580095D01*
X165470380Y-131484857D01*
X165470380Y-131294380D01*
X165518000Y-131199142D01*
X165565619Y-131151523D01*
X165660857Y-131103904D01*
X165708476Y-131103904D01*
X165803714Y-131151523D01*
X165851333Y-131199142D01*
X165898952Y-131294380D01*
X165898952Y-131484857D01*
X165946571Y-131580095D01*
X165994190Y-131627714D01*
X166089428Y-131675333D01*
X166279904Y-131675333D01*
X166375142Y-131627714D01*
X166422761Y-131580095D01*
X166470380Y-131484857D01*
X166470380Y-131294380D01*
X166422761Y-131199142D01*
X166375142Y-131151523D01*
X166279904Y-131103904D01*
X166089428Y-131103904D01*
X165994190Y-131151523D01*
X165946571Y-131199142D01*
X165898952Y-131294380D01*
%TO.C,L101*%
X153232380Y-109855047D02*
X153232380Y-110331238D01*
X152232380Y-110331238D01*
X153232380Y-108997904D02*
X153232380Y-109569333D01*
X153232380Y-109283619D02*
X152232380Y-109283619D01*
X152375238Y-109378857D01*
X152470476Y-109474095D01*
X152518095Y-109569333D01*
X152232380Y-108378857D02*
X152232380Y-108283619D01*
X152280000Y-108188380D01*
X152327619Y-108140761D01*
X152422857Y-108093142D01*
X152613333Y-108045523D01*
X152851428Y-108045523D01*
X153041904Y-108093142D01*
X153137142Y-108140761D01*
X153184761Y-108188380D01*
X153232380Y-108283619D01*
X153232380Y-108378857D01*
X153184761Y-108474095D01*
X153137142Y-108521714D01*
X153041904Y-108569333D01*
X152851428Y-108616952D01*
X152613333Y-108616952D01*
X152422857Y-108569333D01*
X152327619Y-108521714D01*
X152280000Y-108474095D01*
X152232380Y-108378857D01*
X153232380Y-107093142D02*
X153232380Y-107664571D01*
X153232380Y-107378857D02*
X152232380Y-107378857D01*
X152375238Y-107474095D01*
X152470476Y-107569333D01*
X152518095Y-107664571D01*
%TO.C,U102*%
X146977314Y-88184780D02*
X146977314Y-88994304D01*
X147024933Y-89089542D01*
X147072552Y-89137161D01*
X147167790Y-89184780D01*
X147358266Y-89184780D01*
X147453504Y-89137161D01*
X147501123Y-89089542D01*
X147548742Y-88994304D01*
X147548742Y-88184780D01*
X148548742Y-89184780D02*
X147977314Y-89184780D01*
X148263028Y-89184780D02*
X148263028Y-88184780D01*
X148167790Y-88327638D01*
X148072552Y-88422876D01*
X147977314Y-88470495D01*
X149167790Y-88184780D02*
X149263028Y-88184780D01*
X149358266Y-88232400D01*
X149405885Y-88280019D01*
X149453504Y-88375257D01*
X149501123Y-88565733D01*
X149501123Y-88803828D01*
X149453504Y-88994304D01*
X149405885Y-89089542D01*
X149358266Y-89137161D01*
X149263028Y-89184780D01*
X149167790Y-89184780D01*
X149072552Y-89137161D01*
X149024933Y-89089542D01*
X148977314Y-88994304D01*
X148929695Y-88803828D01*
X148929695Y-88565733D01*
X148977314Y-88375257D01*
X149024933Y-88280019D01*
X149072552Y-88232400D01*
X149167790Y-88184780D01*
X149882076Y-88280019D02*
X149929695Y-88232400D01*
X150024933Y-88184780D01*
X150263028Y-88184780D01*
X150358266Y-88232400D01*
X150405885Y-88280019D01*
X150453504Y-88375257D01*
X150453504Y-88470495D01*
X150405885Y-88613352D01*
X149834457Y-89184780D01*
X150453504Y-89184780D01*
%TO.C,U107*%
X167875514Y-107380380D02*
X167875514Y-108189904D01*
X167923133Y-108285142D01*
X167970752Y-108332761D01*
X168065990Y-108380380D01*
X168256466Y-108380380D01*
X168351704Y-108332761D01*
X168399323Y-108285142D01*
X168446942Y-108189904D01*
X168446942Y-107380380D01*
X169446942Y-108380380D02*
X168875514Y-108380380D01*
X169161228Y-108380380D02*
X169161228Y-107380380D01*
X169065990Y-107523238D01*
X168970752Y-107618476D01*
X168875514Y-107666095D01*
X170065990Y-107380380D02*
X170161228Y-107380380D01*
X170256466Y-107428000D01*
X170304085Y-107475619D01*
X170351704Y-107570857D01*
X170399323Y-107761333D01*
X170399323Y-107999428D01*
X170351704Y-108189904D01*
X170304085Y-108285142D01*
X170256466Y-108332761D01*
X170161228Y-108380380D01*
X170065990Y-108380380D01*
X169970752Y-108332761D01*
X169923133Y-108285142D01*
X169875514Y-108189904D01*
X169827895Y-107999428D01*
X169827895Y-107761333D01*
X169875514Y-107570857D01*
X169923133Y-107475619D01*
X169970752Y-107428000D01*
X170065990Y-107380380D01*
X170732657Y-107380380D02*
X171399323Y-107380380D01*
X170970752Y-108380380D01*
%TO.C,U106*%
X157035714Y-129148380D02*
X157035714Y-129957904D01*
X157083333Y-130053142D01*
X157130952Y-130100761D01*
X157226190Y-130148380D01*
X157416666Y-130148380D01*
X157511904Y-130100761D01*
X157559523Y-130053142D01*
X157607142Y-129957904D01*
X157607142Y-129148380D01*
X158607142Y-130148380D02*
X158035714Y-130148380D01*
X158321428Y-130148380D02*
X158321428Y-129148380D01*
X158226190Y-129291238D01*
X158130952Y-129386476D01*
X158035714Y-129434095D01*
X159226190Y-129148380D02*
X159321428Y-129148380D01*
X159416666Y-129196000D01*
X159464285Y-129243619D01*
X159511904Y-129338857D01*
X159559523Y-129529333D01*
X159559523Y-129767428D01*
X159511904Y-129957904D01*
X159464285Y-130053142D01*
X159416666Y-130100761D01*
X159321428Y-130148380D01*
X159226190Y-130148380D01*
X159130952Y-130100761D01*
X159083333Y-130053142D01*
X159035714Y-129957904D01*
X158988095Y-129767428D01*
X158988095Y-129529333D01*
X159035714Y-129338857D01*
X159083333Y-129243619D01*
X159130952Y-129196000D01*
X159226190Y-129148380D01*
X160416666Y-129148380D02*
X160226190Y-129148380D01*
X160130952Y-129196000D01*
X160083333Y-129243619D01*
X159988095Y-129386476D01*
X159940476Y-129576952D01*
X159940476Y-129957904D01*
X159988095Y-130053142D01*
X160035714Y-130100761D01*
X160130952Y-130148380D01*
X160321428Y-130148380D01*
X160416666Y-130100761D01*
X160464285Y-130053142D01*
X160511904Y-129957904D01*
X160511904Y-129719809D01*
X160464285Y-129624571D01*
X160416666Y-129576952D01*
X160321428Y-129529333D01*
X160130952Y-129529333D01*
X160035714Y-129576952D01*
X159988095Y-129624571D01*
X159940476Y-129719809D01*
%TO.C,C120*%
X172560152Y-103912742D02*
X172512533Y-103960361D01*
X172369676Y-104007980D01*
X172274438Y-104007980D01*
X172131580Y-103960361D01*
X172036342Y-103865123D01*
X171988723Y-103769885D01*
X171941104Y-103579409D01*
X171941104Y-103436552D01*
X171988723Y-103246076D01*
X172036342Y-103150838D01*
X172131580Y-103055600D01*
X172274438Y-103007980D01*
X172369676Y-103007980D01*
X172512533Y-103055600D01*
X172560152Y-103103219D01*
X173512533Y-104007980D02*
X172941104Y-104007980D01*
X173226819Y-104007980D02*
X173226819Y-103007980D01*
X173131580Y-103150838D01*
X173036342Y-103246076D01*
X172941104Y-103293695D01*
X173893485Y-103103219D02*
X173941104Y-103055600D01*
X174036342Y-103007980D01*
X174274438Y-103007980D01*
X174369676Y-103055600D01*
X174417295Y-103103219D01*
X174464914Y-103198457D01*
X174464914Y-103293695D01*
X174417295Y-103436552D01*
X173845866Y-104007980D01*
X174464914Y-104007980D01*
X175083961Y-103007980D02*
X175179200Y-103007980D01*
X175274438Y-103055600D01*
X175322057Y-103103219D01*
X175369676Y-103198457D01*
X175417295Y-103388933D01*
X175417295Y-103627028D01*
X175369676Y-103817504D01*
X175322057Y-103912742D01*
X175274438Y-103960361D01*
X175179200Y-104007980D01*
X175083961Y-104007980D01*
X174988723Y-103960361D01*
X174941104Y-103912742D01*
X174893485Y-103817504D01*
X174845866Y-103627028D01*
X174845866Y-103388933D01*
X174893485Y-103198457D01*
X174941104Y-103103219D01*
X174988723Y-103055600D01*
X175083961Y-103007980D01*
%TO.C,L103*%
X172788752Y-129108380D02*
X172312561Y-129108380D01*
X172312561Y-128108380D01*
X173645895Y-129108380D02*
X173074466Y-129108380D01*
X173360180Y-129108380D02*
X173360180Y-128108380D01*
X173264942Y-128251238D01*
X173169704Y-128346476D01*
X173074466Y-128394095D01*
X174264942Y-128108380D02*
X174360180Y-128108380D01*
X174455419Y-128156000D01*
X174503038Y-128203619D01*
X174550657Y-128298857D01*
X174598276Y-128489333D01*
X174598276Y-128727428D01*
X174550657Y-128917904D01*
X174503038Y-129013142D01*
X174455419Y-129060761D01*
X174360180Y-129108380D01*
X174264942Y-129108380D01*
X174169704Y-129060761D01*
X174122085Y-129013142D01*
X174074466Y-128917904D01*
X174026847Y-128727428D01*
X174026847Y-128489333D01*
X174074466Y-128298857D01*
X174122085Y-128203619D01*
X174169704Y-128156000D01*
X174264942Y-128108380D01*
X174931609Y-128108380D02*
X175550657Y-128108380D01*
X175217323Y-128489333D01*
X175360180Y-128489333D01*
X175455419Y-128536952D01*
X175503038Y-128584571D01*
X175550657Y-128679809D01*
X175550657Y-128917904D01*
X175503038Y-129013142D01*
X175455419Y-129060761D01*
X175360180Y-129108380D01*
X175074466Y-129108380D01*
X174979228Y-129060761D01*
X174931609Y-129013142D01*
%TO.C,C103*%
X175074752Y-100571142D02*
X175027133Y-100618761D01*
X174884276Y-100666380D01*
X174789038Y-100666380D01*
X174646180Y-100618761D01*
X174550942Y-100523523D01*
X174503323Y-100428285D01*
X174455704Y-100237809D01*
X174455704Y-100094952D01*
X174503323Y-99904476D01*
X174550942Y-99809238D01*
X174646180Y-99714000D01*
X174789038Y-99666380D01*
X174884276Y-99666380D01*
X175027133Y-99714000D01*
X175074752Y-99761619D01*
X176027133Y-100666380D02*
X175455704Y-100666380D01*
X175741419Y-100666380D02*
X175741419Y-99666380D01*
X175646180Y-99809238D01*
X175550942Y-99904476D01*
X175455704Y-99952095D01*
X176646180Y-99666380D02*
X176741419Y-99666380D01*
X176836657Y-99714000D01*
X176884276Y-99761619D01*
X176931895Y-99856857D01*
X176979514Y-100047333D01*
X176979514Y-100285428D01*
X176931895Y-100475904D01*
X176884276Y-100571142D01*
X176836657Y-100618761D01*
X176741419Y-100666380D01*
X176646180Y-100666380D01*
X176550942Y-100618761D01*
X176503323Y-100571142D01*
X176455704Y-100475904D01*
X176408085Y-100285428D01*
X176408085Y-100047333D01*
X176455704Y-99856857D01*
X176503323Y-99761619D01*
X176550942Y-99714000D01*
X176646180Y-99666380D01*
X177312847Y-99666380D02*
X177931895Y-99666380D01*
X177598561Y-100047333D01*
X177741419Y-100047333D01*
X177836657Y-100094952D01*
X177884276Y-100142571D01*
X177931895Y-100237809D01*
X177931895Y-100475904D01*
X177884276Y-100571142D01*
X177836657Y-100618761D01*
X177741419Y-100666380D01*
X177455704Y-100666380D01*
X177360466Y-100618761D01*
X177312847Y-100571142D01*
%TO.C,L102*%
X153232380Y-114173047D02*
X153232380Y-114649238D01*
X152232380Y-114649238D01*
X153232380Y-113315904D02*
X153232380Y-113887333D01*
X153232380Y-113601619D02*
X152232380Y-113601619D01*
X152375238Y-113696857D01*
X152470476Y-113792095D01*
X152518095Y-113887333D01*
X152232380Y-112696857D02*
X152232380Y-112601619D01*
X152280000Y-112506380D01*
X152327619Y-112458761D01*
X152422857Y-112411142D01*
X152613333Y-112363523D01*
X152851428Y-112363523D01*
X153041904Y-112411142D01*
X153137142Y-112458761D01*
X153184761Y-112506380D01*
X153232380Y-112601619D01*
X153232380Y-112696857D01*
X153184761Y-112792095D01*
X153137142Y-112839714D01*
X153041904Y-112887333D01*
X152851428Y-112934952D01*
X152613333Y-112934952D01*
X152422857Y-112887333D01*
X152327619Y-112839714D01*
X152280000Y-112792095D01*
X152232380Y-112696857D01*
X152327619Y-111982571D02*
X152280000Y-111934952D01*
X152232380Y-111839714D01*
X152232380Y-111601619D01*
X152280000Y-111506380D01*
X152327619Y-111458761D01*
X152422857Y-111411142D01*
X152518095Y-111411142D01*
X152660952Y-111458761D01*
X153232380Y-112030190D01*
X153232380Y-111411142D01*
%TO.C,C113*%
X145591352Y-117404342D02*
X145543733Y-117451961D01*
X145400876Y-117499580D01*
X145305638Y-117499580D01*
X145162780Y-117451961D01*
X145067542Y-117356723D01*
X145019923Y-117261485D01*
X144972304Y-117071009D01*
X144972304Y-116928152D01*
X145019923Y-116737676D01*
X145067542Y-116642438D01*
X145162780Y-116547200D01*
X145305638Y-116499580D01*
X145400876Y-116499580D01*
X145543733Y-116547200D01*
X145591352Y-116594819D01*
X146543733Y-117499580D02*
X145972304Y-117499580D01*
X146258019Y-117499580D02*
X146258019Y-116499580D01*
X146162780Y-116642438D01*
X146067542Y-116737676D01*
X145972304Y-116785295D01*
X147496114Y-117499580D02*
X146924685Y-117499580D01*
X147210400Y-117499580D02*
X147210400Y-116499580D01*
X147115161Y-116642438D01*
X147019923Y-116737676D01*
X146924685Y-116785295D01*
X147829447Y-116499580D02*
X148448495Y-116499580D01*
X148115161Y-116880533D01*
X148258019Y-116880533D01*
X148353257Y-116928152D01*
X148400876Y-116975771D01*
X148448495Y-117071009D01*
X148448495Y-117309104D01*
X148400876Y-117404342D01*
X148353257Y-117451961D01*
X148258019Y-117499580D01*
X147972304Y-117499580D01*
X147877066Y-117451961D01*
X147829447Y-117404342D01*
%TO.C,C115*%
X167454752Y-106409142D02*
X167407133Y-106456761D01*
X167264276Y-106504380D01*
X167169038Y-106504380D01*
X167026180Y-106456761D01*
X166930942Y-106361523D01*
X166883323Y-106266285D01*
X166835704Y-106075809D01*
X166835704Y-105932952D01*
X166883323Y-105742476D01*
X166930942Y-105647238D01*
X167026180Y-105552000D01*
X167169038Y-105504380D01*
X167264276Y-105504380D01*
X167407133Y-105552000D01*
X167454752Y-105599619D01*
X168407133Y-106504380D02*
X167835704Y-106504380D01*
X168121419Y-106504380D02*
X168121419Y-105504380D01*
X168026180Y-105647238D01*
X167930942Y-105742476D01*
X167835704Y-105790095D01*
X169359514Y-106504380D02*
X168788085Y-106504380D01*
X169073800Y-106504380D02*
X169073800Y-105504380D01*
X168978561Y-105647238D01*
X168883323Y-105742476D01*
X168788085Y-105790095D01*
X170264276Y-105504380D02*
X169788085Y-105504380D01*
X169740466Y-105980571D01*
X169788085Y-105932952D01*
X169883323Y-105885333D01*
X170121419Y-105885333D01*
X170216657Y-105932952D01*
X170264276Y-105980571D01*
X170311895Y-106075809D01*
X170311895Y-106313904D01*
X170264276Y-106409142D01*
X170216657Y-106456761D01*
X170121419Y-106504380D01*
X169883323Y-106504380D01*
X169788085Y-106456761D01*
X169740466Y-106409142D01*
%TO.C,C117*%
X169340942Y-111333047D02*
X169388561Y-111380666D01*
X169436180Y-111523523D01*
X169436180Y-111618761D01*
X169388561Y-111761619D01*
X169293323Y-111856857D01*
X169198085Y-111904476D01*
X169007609Y-111952095D01*
X168864752Y-111952095D01*
X168674276Y-111904476D01*
X168579038Y-111856857D01*
X168483800Y-111761619D01*
X168436180Y-111618761D01*
X168436180Y-111523523D01*
X168483800Y-111380666D01*
X168531419Y-111333047D01*
X169436180Y-110380666D02*
X169436180Y-110952095D01*
X169436180Y-110666380D02*
X168436180Y-110666380D01*
X168579038Y-110761619D01*
X168674276Y-110856857D01*
X168721895Y-110952095D01*
X169436180Y-109428285D02*
X169436180Y-109999714D01*
X169436180Y-109714000D02*
X168436180Y-109714000D01*
X168579038Y-109809238D01*
X168674276Y-109904476D01*
X168721895Y-109999714D01*
X168436180Y-109094952D02*
X168436180Y-108428285D01*
X169436180Y-108856857D01*
%TO.C,U105*%
X129710380Y-112745285D02*
X130519904Y-112745285D01*
X130615142Y-112697666D01*
X130662761Y-112650047D01*
X130710380Y-112554809D01*
X130710380Y-112364333D01*
X130662761Y-112269095D01*
X130615142Y-112221476D01*
X130519904Y-112173857D01*
X129710380Y-112173857D01*
X130710380Y-111173857D02*
X130710380Y-111745285D01*
X130710380Y-111459571D02*
X129710380Y-111459571D01*
X129853238Y-111554809D01*
X129948476Y-111650047D01*
X129996095Y-111745285D01*
X129710380Y-110554809D02*
X129710380Y-110459571D01*
X129758000Y-110364333D01*
X129805619Y-110316714D01*
X129900857Y-110269095D01*
X130091333Y-110221476D01*
X130329428Y-110221476D01*
X130519904Y-110269095D01*
X130615142Y-110316714D01*
X130662761Y-110364333D01*
X130710380Y-110459571D01*
X130710380Y-110554809D01*
X130662761Y-110650047D01*
X130615142Y-110697666D01*
X130519904Y-110745285D01*
X130329428Y-110792904D01*
X130091333Y-110792904D01*
X129900857Y-110745285D01*
X129805619Y-110697666D01*
X129758000Y-110650047D01*
X129710380Y-110554809D01*
X129710380Y-109316714D02*
X129710380Y-109792904D01*
X130186571Y-109840523D01*
X130138952Y-109792904D01*
X130091333Y-109697666D01*
X130091333Y-109459571D01*
X130138952Y-109364333D01*
X130186571Y-109316714D01*
X130281809Y-109269095D01*
X130519904Y-109269095D01*
X130615142Y-109316714D01*
X130662761Y-109364333D01*
X130710380Y-109459571D01*
X130710380Y-109697666D01*
X130662761Y-109792904D01*
X130615142Y-109840523D01*
%TO.C,R102*%
X144318980Y-104961847D02*
X143842790Y-105295180D01*
X144318980Y-105533276D02*
X143318980Y-105533276D01*
X143318980Y-105152323D01*
X143366600Y-105057085D01*
X143414219Y-105009466D01*
X143509457Y-104961847D01*
X143652314Y-104961847D01*
X143747552Y-105009466D01*
X143795171Y-105057085D01*
X143842790Y-105152323D01*
X143842790Y-105533276D01*
X144318980Y-104009466D02*
X144318980Y-104580895D01*
X144318980Y-104295180D02*
X143318980Y-104295180D01*
X143461838Y-104390419D01*
X143557076Y-104485657D01*
X143604695Y-104580895D01*
X143318980Y-103390419D02*
X143318980Y-103295180D01*
X143366600Y-103199942D01*
X143414219Y-103152323D01*
X143509457Y-103104704D01*
X143699933Y-103057085D01*
X143938028Y-103057085D01*
X144128504Y-103104704D01*
X144223742Y-103152323D01*
X144271361Y-103199942D01*
X144318980Y-103295180D01*
X144318980Y-103390419D01*
X144271361Y-103485657D01*
X144223742Y-103533276D01*
X144128504Y-103580895D01*
X143938028Y-103628514D01*
X143699933Y-103628514D01*
X143509457Y-103580895D01*
X143414219Y-103533276D01*
X143366600Y-103485657D01*
X143318980Y-103390419D01*
X143414219Y-102676133D02*
X143366600Y-102628514D01*
X143318980Y-102533276D01*
X143318980Y-102295180D01*
X143366600Y-102199942D01*
X143414219Y-102152323D01*
X143509457Y-102104704D01*
X143604695Y-102104704D01*
X143747552Y-102152323D01*
X144318980Y-102723752D01*
X144318980Y-102104704D01*
%TO.C,Y101*%
X161183990Y-117556571D02*
X161660180Y-117556571D01*
X160660180Y-117889904D02*
X161183990Y-117556571D01*
X160660180Y-117223238D01*
X161660180Y-116366095D02*
X161660180Y-116937523D01*
X161660180Y-116651809D02*
X160660180Y-116651809D01*
X160803038Y-116747047D01*
X160898276Y-116842285D01*
X160945895Y-116937523D01*
X160660180Y-115747047D02*
X160660180Y-115651809D01*
X160707800Y-115556571D01*
X160755419Y-115508952D01*
X160850657Y-115461333D01*
X161041133Y-115413714D01*
X161279228Y-115413714D01*
X161469704Y-115461333D01*
X161564942Y-115508952D01*
X161612561Y-115556571D01*
X161660180Y-115651809D01*
X161660180Y-115747047D01*
X161612561Y-115842285D01*
X161564942Y-115889904D01*
X161469704Y-115937523D01*
X161279228Y-115985142D01*
X161041133Y-115985142D01*
X160850657Y-115937523D01*
X160755419Y-115889904D01*
X160707800Y-115842285D01*
X160660180Y-115747047D01*
X161660180Y-114461333D02*
X161660180Y-115032761D01*
X161660180Y-114747047D02*
X160660180Y-114747047D01*
X160803038Y-114842285D01*
X160898276Y-114937523D01*
X160945895Y-115032761D01*
%TO.C,C112*%
X139901142Y-100941047D02*
X139948761Y-100988666D01*
X139996380Y-101131523D01*
X139996380Y-101226761D01*
X139948761Y-101369619D01*
X139853523Y-101464857D01*
X139758285Y-101512476D01*
X139567809Y-101560095D01*
X139424952Y-101560095D01*
X139234476Y-101512476D01*
X139139238Y-101464857D01*
X139044000Y-101369619D01*
X138996380Y-101226761D01*
X138996380Y-101131523D01*
X139044000Y-100988666D01*
X139091619Y-100941047D01*
X139996380Y-99988666D02*
X139996380Y-100560095D01*
X139996380Y-100274380D02*
X138996380Y-100274380D01*
X139139238Y-100369619D01*
X139234476Y-100464857D01*
X139282095Y-100560095D01*
X139996380Y-99036285D02*
X139996380Y-99607714D01*
X139996380Y-99322000D02*
X138996380Y-99322000D01*
X139139238Y-99417238D01*
X139234476Y-99512476D01*
X139282095Y-99607714D01*
X139091619Y-98655333D02*
X139044000Y-98607714D01*
X138996380Y-98512476D01*
X138996380Y-98274380D01*
X139044000Y-98179142D01*
X139091619Y-98131523D01*
X139186857Y-98083904D01*
X139282095Y-98083904D01*
X139424952Y-98131523D01*
X139996380Y-98702952D01*
X139996380Y-98083904D01*
%TO.C,U101*%
X134531714Y-88932380D02*
X134531714Y-89741904D01*
X134579333Y-89837142D01*
X134626952Y-89884761D01*
X134722190Y-89932380D01*
X134912666Y-89932380D01*
X135007904Y-89884761D01*
X135055523Y-89837142D01*
X135103142Y-89741904D01*
X135103142Y-88932380D01*
X136103142Y-89932380D02*
X135531714Y-89932380D01*
X135817428Y-89932380D02*
X135817428Y-88932380D01*
X135722190Y-89075238D01*
X135626952Y-89170476D01*
X135531714Y-89218095D01*
X136722190Y-88932380D02*
X136817428Y-88932380D01*
X136912666Y-88980000D01*
X136960285Y-89027619D01*
X137007904Y-89122857D01*
X137055523Y-89313333D01*
X137055523Y-89551428D01*
X137007904Y-89741904D01*
X136960285Y-89837142D01*
X136912666Y-89884761D01*
X136817428Y-89932380D01*
X136722190Y-89932380D01*
X136626952Y-89884761D01*
X136579333Y-89837142D01*
X136531714Y-89741904D01*
X136484095Y-89551428D01*
X136484095Y-89313333D01*
X136531714Y-89122857D01*
X136579333Y-89027619D01*
X136626952Y-88980000D01*
X136722190Y-88932380D01*
X138007904Y-89932380D02*
X137436476Y-89932380D01*
X137722190Y-89932380D02*
X137722190Y-88932380D01*
X137626952Y-89075238D01*
X137531714Y-89170476D01*
X137436476Y-89218095D01*
%TO.C,J103*%
X155805380Y-144903214D02*
X156519666Y-144903214D01*
X156662523Y-144950833D01*
X156757761Y-145046071D01*
X156805380Y-145188928D01*
X156805380Y-145284166D01*
X156805380Y-143903214D02*
X156805380Y-144474642D01*
X156805380Y-144188928D02*
X155805380Y-144188928D01*
X155948238Y-144284166D01*
X156043476Y-144379404D01*
X156091095Y-144474642D01*
X155805380Y-143284166D02*
X155805380Y-143188928D01*
X155853000Y-143093690D01*
X155900619Y-143046071D01*
X155995857Y-142998452D01*
X156186333Y-142950833D01*
X156424428Y-142950833D01*
X156614904Y-142998452D01*
X156710142Y-143046071D01*
X156757761Y-143093690D01*
X156805380Y-143188928D01*
X156805380Y-143284166D01*
X156757761Y-143379404D01*
X156710142Y-143427023D01*
X156614904Y-143474642D01*
X156424428Y-143522261D01*
X156186333Y-143522261D01*
X155995857Y-143474642D01*
X155900619Y-143427023D01*
X155853000Y-143379404D01*
X155805380Y-143284166D01*
X155805380Y-142617500D02*
X155805380Y-141998452D01*
X156186333Y-142331785D01*
X156186333Y-142188928D01*
X156233952Y-142093690D01*
X156281571Y-142046071D01*
X156376809Y-141998452D01*
X156614904Y-141998452D01*
X156710142Y-142046071D01*
X156757761Y-142093690D01*
X156805380Y-142188928D01*
X156805380Y-142474642D01*
X156757761Y-142569880D01*
X156710142Y-142617500D01*
%TO.C,D102*%
X173724180Y-96664476D02*
X172724180Y-96664476D01*
X172724180Y-96426380D01*
X172771800Y-96283523D01*
X172867038Y-96188285D01*
X172962276Y-96140666D01*
X173152752Y-96093047D01*
X173295609Y-96093047D01*
X173486085Y-96140666D01*
X173581323Y-96188285D01*
X173676561Y-96283523D01*
X173724180Y-96426380D01*
X173724180Y-96664476D01*
X173724180Y-95140666D02*
X173724180Y-95712095D01*
X173724180Y-95426380D02*
X172724180Y-95426380D01*
X172867038Y-95521619D01*
X172962276Y-95616857D01*
X173009895Y-95712095D01*
X172724180Y-94521619D02*
X172724180Y-94426380D01*
X172771800Y-94331142D01*
X172819419Y-94283523D01*
X172914657Y-94235904D01*
X173105133Y-94188285D01*
X173343228Y-94188285D01*
X173533704Y-94235904D01*
X173628942Y-94283523D01*
X173676561Y-94331142D01*
X173724180Y-94426380D01*
X173724180Y-94521619D01*
X173676561Y-94616857D01*
X173628942Y-94664476D01*
X173533704Y-94712095D01*
X173343228Y-94759714D01*
X173105133Y-94759714D01*
X172914657Y-94712095D01*
X172819419Y-94664476D01*
X172771800Y-94616857D01*
X172724180Y-94521619D01*
X172819419Y-93807333D02*
X172771800Y-93759714D01*
X172724180Y-93664476D01*
X172724180Y-93426380D01*
X172771800Y-93331142D01*
X172819419Y-93283523D01*
X172914657Y-93235904D01*
X173009895Y-93235904D01*
X173152752Y-93283523D01*
X173724180Y-93854952D01*
X173724180Y-93235904D01*
%TO.C,R101*%
X170168180Y-96093047D02*
X169691990Y-96426380D01*
X170168180Y-96664476D02*
X169168180Y-96664476D01*
X169168180Y-96283523D01*
X169215800Y-96188285D01*
X169263419Y-96140666D01*
X169358657Y-96093047D01*
X169501514Y-96093047D01*
X169596752Y-96140666D01*
X169644371Y-96188285D01*
X169691990Y-96283523D01*
X169691990Y-96664476D01*
X170168180Y-95140666D02*
X170168180Y-95712095D01*
X170168180Y-95426380D02*
X169168180Y-95426380D01*
X169311038Y-95521619D01*
X169406276Y-95616857D01*
X169453895Y-95712095D01*
X169168180Y-94521619D02*
X169168180Y-94426380D01*
X169215800Y-94331142D01*
X169263419Y-94283523D01*
X169358657Y-94235904D01*
X169549133Y-94188285D01*
X169787228Y-94188285D01*
X169977704Y-94235904D01*
X170072942Y-94283523D01*
X170120561Y-94331142D01*
X170168180Y-94426380D01*
X170168180Y-94521619D01*
X170120561Y-94616857D01*
X170072942Y-94664476D01*
X169977704Y-94712095D01*
X169787228Y-94759714D01*
X169549133Y-94759714D01*
X169358657Y-94712095D01*
X169263419Y-94664476D01*
X169215800Y-94616857D01*
X169168180Y-94521619D01*
X170168180Y-93235904D02*
X170168180Y-93807333D01*
X170168180Y-93521619D02*
X169168180Y-93521619D01*
X169311038Y-93616857D01*
X169406276Y-93712095D01*
X169453895Y-93807333D01*
%TO.C,C104*%
X132484952Y-98753142D02*
X132437333Y-98800761D01*
X132294476Y-98848380D01*
X132199238Y-98848380D01*
X132056380Y-98800761D01*
X131961142Y-98705523D01*
X131913523Y-98610285D01*
X131865904Y-98419809D01*
X131865904Y-98276952D01*
X131913523Y-98086476D01*
X131961142Y-97991238D01*
X132056380Y-97896000D01*
X132199238Y-97848380D01*
X132294476Y-97848380D01*
X132437333Y-97896000D01*
X132484952Y-97943619D01*
X133437333Y-98848380D02*
X132865904Y-98848380D01*
X133151619Y-98848380D02*
X133151619Y-97848380D01*
X133056380Y-97991238D01*
X132961142Y-98086476D01*
X132865904Y-98134095D01*
X134056380Y-97848380D02*
X134151619Y-97848380D01*
X134246857Y-97896000D01*
X134294476Y-97943619D01*
X134342095Y-98038857D01*
X134389714Y-98229333D01*
X134389714Y-98467428D01*
X134342095Y-98657904D01*
X134294476Y-98753142D01*
X134246857Y-98800761D01*
X134151619Y-98848380D01*
X134056380Y-98848380D01*
X133961142Y-98800761D01*
X133913523Y-98753142D01*
X133865904Y-98657904D01*
X133818285Y-98467428D01*
X133818285Y-98229333D01*
X133865904Y-98038857D01*
X133913523Y-97943619D01*
X133961142Y-97896000D01*
X134056380Y-97848380D01*
X135246857Y-98181714D02*
X135246857Y-98848380D01*
X135008761Y-97800761D02*
X134770666Y-98515047D01*
X135389714Y-98515047D01*
%TO.C,D103*%
X148408380Y-105576476D02*
X147408380Y-105576476D01*
X147408380Y-105338380D01*
X147456000Y-105195523D01*
X147551238Y-105100285D01*
X147646476Y-105052666D01*
X147836952Y-105005047D01*
X147979809Y-105005047D01*
X148170285Y-105052666D01*
X148265523Y-105100285D01*
X148360761Y-105195523D01*
X148408380Y-105338380D01*
X148408380Y-105576476D01*
X148408380Y-104052666D02*
X148408380Y-104624095D01*
X148408380Y-104338380D02*
X147408380Y-104338380D01*
X147551238Y-104433619D01*
X147646476Y-104528857D01*
X147694095Y-104624095D01*
X147408380Y-103433619D02*
X147408380Y-103338380D01*
X147456000Y-103243142D01*
X147503619Y-103195523D01*
X147598857Y-103147904D01*
X147789333Y-103100285D01*
X148027428Y-103100285D01*
X148217904Y-103147904D01*
X148313142Y-103195523D01*
X148360761Y-103243142D01*
X148408380Y-103338380D01*
X148408380Y-103433619D01*
X148360761Y-103528857D01*
X148313142Y-103576476D01*
X148217904Y-103624095D01*
X148027428Y-103671714D01*
X147789333Y-103671714D01*
X147598857Y-103624095D01*
X147503619Y-103576476D01*
X147456000Y-103528857D01*
X147408380Y-103433619D01*
X147408380Y-102766952D02*
X147408380Y-102147904D01*
X147789333Y-102481238D01*
X147789333Y-102338380D01*
X147836952Y-102243142D01*
X147884571Y-102195523D01*
X147979809Y-102147904D01*
X148217904Y-102147904D01*
X148313142Y-102195523D01*
X148360761Y-102243142D01*
X148408380Y-102338380D01*
X148408380Y-102624095D01*
X148360761Y-102719333D01*
X148313142Y-102766952D01*
%TO.C,C121*%
X183056942Y-108539047D02*
X183104561Y-108586666D01*
X183152180Y-108729523D01*
X183152180Y-108824761D01*
X183104561Y-108967619D01*
X183009323Y-109062857D01*
X182914085Y-109110476D01*
X182723609Y-109158095D01*
X182580752Y-109158095D01*
X182390276Y-109110476D01*
X182295038Y-109062857D01*
X182199800Y-108967619D01*
X182152180Y-108824761D01*
X182152180Y-108729523D01*
X182199800Y-108586666D01*
X182247419Y-108539047D01*
X183152180Y-107586666D02*
X183152180Y-108158095D01*
X183152180Y-107872380D02*
X182152180Y-107872380D01*
X182295038Y-107967619D01*
X182390276Y-108062857D01*
X182437895Y-108158095D01*
X182247419Y-107205714D02*
X182199800Y-107158095D01*
X182152180Y-107062857D01*
X182152180Y-106824761D01*
X182199800Y-106729523D01*
X182247419Y-106681904D01*
X182342657Y-106634285D01*
X182437895Y-106634285D01*
X182580752Y-106681904D01*
X183152180Y-107253333D01*
X183152180Y-106634285D01*
X183152180Y-105681904D02*
X183152180Y-106253333D01*
X183152180Y-105967619D02*
X182152180Y-105967619D01*
X182295038Y-106062857D01*
X182390276Y-106158095D01*
X182437895Y-106253333D01*
%TO.C,U104*%
X124777714Y-105624380D02*
X124777714Y-106433904D01*
X124825333Y-106529142D01*
X124872952Y-106576761D01*
X124968190Y-106624380D01*
X125158666Y-106624380D01*
X125253904Y-106576761D01*
X125301523Y-106529142D01*
X125349142Y-106433904D01*
X125349142Y-105624380D01*
X126349142Y-106624380D02*
X125777714Y-106624380D01*
X126063428Y-106624380D02*
X126063428Y-105624380D01*
X125968190Y-105767238D01*
X125872952Y-105862476D01*
X125777714Y-105910095D01*
X126968190Y-105624380D02*
X127063428Y-105624380D01*
X127158666Y-105672000D01*
X127206285Y-105719619D01*
X127253904Y-105814857D01*
X127301523Y-106005333D01*
X127301523Y-106243428D01*
X127253904Y-106433904D01*
X127206285Y-106529142D01*
X127158666Y-106576761D01*
X127063428Y-106624380D01*
X126968190Y-106624380D01*
X126872952Y-106576761D01*
X126825333Y-106529142D01*
X126777714Y-106433904D01*
X126730095Y-106243428D01*
X126730095Y-106005333D01*
X126777714Y-105814857D01*
X126825333Y-105719619D01*
X126872952Y-105672000D01*
X126968190Y-105624380D01*
X128158666Y-105957714D02*
X128158666Y-106624380D01*
X127920571Y-105576761D02*
X127682476Y-106291047D01*
X128301523Y-106291047D01*
%TO.C,C105*%
X142558952Y-86677142D02*
X142511333Y-86724761D01*
X142368476Y-86772380D01*
X142273238Y-86772380D01*
X142130380Y-86724761D01*
X142035142Y-86629523D01*
X141987523Y-86534285D01*
X141939904Y-86343809D01*
X141939904Y-86200952D01*
X141987523Y-86010476D01*
X142035142Y-85915238D01*
X142130380Y-85820000D01*
X142273238Y-85772380D01*
X142368476Y-85772380D01*
X142511333Y-85820000D01*
X142558952Y-85867619D01*
X143511333Y-86772380D02*
X142939904Y-86772380D01*
X143225619Y-86772380D02*
X143225619Y-85772380D01*
X143130380Y-85915238D01*
X143035142Y-86010476D01*
X142939904Y-86058095D01*
X144130380Y-85772380D02*
X144225619Y-85772380D01*
X144320857Y-85820000D01*
X144368476Y-85867619D01*
X144416095Y-85962857D01*
X144463714Y-86153333D01*
X144463714Y-86391428D01*
X144416095Y-86581904D01*
X144368476Y-86677142D01*
X144320857Y-86724761D01*
X144225619Y-86772380D01*
X144130380Y-86772380D01*
X144035142Y-86724761D01*
X143987523Y-86677142D01*
X143939904Y-86581904D01*
X143892285Y-86391428D01*
X143892285Y-86153333D01*
X143939904Y-85962857D01*
X143987523Y-85867619D01*
X144035142Y-85820000D01*
X144130380Y-85772380D01*
X145368476Y-85772380D02*
X144892285Y-85772380D01*
X144844666Y-86248571D01*
X144892285Y-86200952D01*
X144987523Y-86153333D01*
X145225619Y-86153333D01*
X145320857Y-86200952D01*
X145368476Y-86248571D01*
X145416095Y-86343809D01*
X145416095Y-86581904D01*
X145368476Y-86677142D01*
X145320857Y-86724761D01*
X145225619Y-86772380D01*
X144987523Y-86772380D01*
X144892285Y-86724761D01*
X144844666Y-86677142D01*
%TO.C,C116*%
X169086942Y-115651047D02*
X169134561Y-115698666D01*
X169182180Y-115841523D01*
X169182180Y-115936761D01*
X169134561Y-116079619D01*
X169039323Y-116174857D01*
X168944085Y-116222476D01*
X168753609Y-116270095D01*
X168610752Y-116270095D01*
X168420276Y-116222476D01*
X168325038Y-116174857D01*
X168229800Y-116079619D01*
X168182180Y-115936761D01*
X168182180Y-115841523D01*
X168229800Y-115698666D01*
X168277419Y-115651047D01*
X169182180Y-114698666D02*
X169182180Y-115270095D01*
X169182180Y-114984380D02*
X168182180Y-114984380D01*
X168325038Y-115079619D01*
X168420276Y-115174857D01*
X168467895Y-115270095D01*
X169182180Y-113746285D02*
X169182180Y-114317714D01*
X169182180Y-114032000D02*
X168182180Y-114032000D01*
X168325038Y-114127238D01*
X168420276Y-114222476D01*
X168467895Y-114317714D01*
X168182180Y-112889142D02*
X168182180Y-113079619D01*
X168229800Y-113174857D01*
X168277419Y-113222476D01*
X168420276Y-113317714D01*
X168610752Y-113365333D01*
X168991704Y-113365333D01*
X169086942Y-113317714D01*
X169134561Y-113270095D01*
X169182180Y-113174857D01*
X169182180Y-112984380D01*
X169134561Y-112889142D01*
X169086942Y-112841523D01*
X168991704Y-112793904D01*
X168753609Y-112793904D01*
X168658371Y-112841523D01*
X168610752Y-112889142D01*
X168563133Y-112984380D01*
X168563133Y-113174857D01*
X168610752Y-113270095D01*
X168658371Y-113317714D01*
X168753609Y-113365333D01*
%TO.C,C107*%
X138326952Y-123195142D02*
X138279333Y-123242761D01*
X138136476Y-123290380D01*
X138041238Y-123290380D01*
X137898380Y-123242761D01*
X137803142Y-123147523D01*
X137755523Y-123052285D01*
X137707904Y-122861809D01*
X137707904Y-122718952D01*
X137755523Y-122528476D01*
X137803142Y-122433238D01*
X137898380Y-122338000D01*
X138041238Y-122290380D01*
X138136476Y-122290380D01*
X138279333Y-122338000D01*
X138326952Y-122385619D01*
X139279333Y-123290380D02*
X138707904Y-123290380D01*
X138993619Y-123290380D02*
X138993619Y-122290380D01*
X138898380Y-122433238D01*
X138803142Y-122528476D01*
X138707904Y-122576095D01*
X139898380Y-122290380D02*
X139993619Y-122290380D01*
X140088857Y-122338000D01*
X140136476Y-122385619D01*
X140184095Y-122480857D01*
X140231714Y-122671333D01*
X140231714Y-122909428D01*
X140184095Y-123099904D01*
X140136476Y-123195142D01*
X140088857Y-123242761D01*
X139993619Y-123290380D01*
X139898380Y-123290380D01*
X139803142Y-123242761D01*
X139755523Y-123195142D01*
X139707904Y-123099904D01*
X139660285Y-122909428D01*
X139660285Y-122671333D01*
X139707904Y-122480857D01*
X139755523Y-122385619D01*
X139803142Y-122338000D01*
X139898380Y-122290380D01*
X140565047Y-122290380D02*
X141231714Y-122290380D01*
X140803142Y-123290380D01*
%TO.C,J104*%
X187182285Y-135008380D02*
X187182285Y-135722666D01*
X187134666Y-135865523D01*
X187039428Y-135960761D01*
X186896571Y-136008380D01*
X186801333Y-136008380D01*
X188182285Y-136008380D02*
X187610857Y-136008380D01*
X187896571Y-136008380D02*
X187896571Y-135008380D01*
X187801333Y-135151238D01*
X187706095Y-135246476D01*
X187610857Y-135294095D01*
X188801333Y-135008380D02*
X188896571Y-135008380D01*
X188991809Y-135056000D01*
X189039428Y-135103619D01*
X189087047Y-135198857D01*
X189134666Y-135389333D01*
X189134666Y-135627428D01*
X189087047Y-135817904D01*
X189039428Y-135913142D01*
X188991809Y-135960761D01*
X188896571Y-136008380D01*
X188801333Y-136008380D01*
X188706095Y-135960761D01*
X188658476Y-135913142D01*
X188610857Y-135817904D01*
X188563238Y-135627428D01*
X188563238Y-135389333D01*
X188610857Y-135198857D01*
X188658476Y-135103619D01*
X188706095Y-135056000D01*
X188801333Y-135008380D01*
X189991809Y-135341714D02*
X189991809Y-136008380D01*
X189753714Y-134960761D02*
X189515619Y-135675047D01*
X190134666Y-135675047D01*
%TO.C,R103*%
X175178252Y-125778380D02*
X174844919Y-125302190D01*
X174606823Y-125778380D02*
X174606823Y-124778380D01*
X174987776Y-124778380D01*
X175083014Y-124826000D01*
X175130633Y-124873619D01*
X175178252Y-124968857D01*
X175178252Y-125111714D01*
X175130633Y-125206952D01*
X175083014Y-125254571D01*
X174987776Y-125302190D01*
X174606823Y-125302190D01*
X176130633Y-125778380D02*
X175559204Y-125778380D01*
X175844919Y-125778380D02*
X175844919Y-124778380D01*
X175749680Y-124921238D01*
X175654442Y-125016476D01*
X175559204Y-125064095D01*
X176749680Y-124778380D02*
X176844919Y-124778380D01*
X176940157Y-124826000D01*
X176987776Y-124873619D01*
X177035395Y-124968857D01*
X177083014Y-125159333D01*
X177083014Y-125397428D01*
X177035395Y-125587904D01*
X176987776Y-125683142D01*
X176940157Y-125730761D01*
X176844919Y-125778380D01*
X176749680Y-125778380D01*
X176654442Y-125730761D01*
X176606823Y-125683142D01*
X176559204Y-125587904D01*
X176511585Y-125397428D01*
X176511585Y-125159333D01*
X176559204Y-124968857D01*
X176606823Y-124873619D01*
X176654442Y-124826000D01*
X176749680Y-124778380D01*
X177416347Y-124778380D02*
X178035395Y-124778380D01*
X177702061Y-125159333D01*
X177844919Y-125159333D01*
X177940157Y-125206952D01*
X177987776Y-125254571D01*
X178035395Y-125349809D01*
X178035395Y-125587904D01*
X177987776Y-125683142D01*
X177940157Y-125730761D01*
X177844919Y-125778380D01*
X177559204Y-125778380D01*
X177463966Y-125730761D01*
X177416347Y-125683142D01*
%TO.C,C106*%
X175378942Y-96093047D02*
X175426561Y-96140666D01*
X175474180Y-96283523D01*
X175474180Y-96378761D01*
X175426561Y-96521619D01*
X175331323Y-96616857D01*
X175236085Y-96664476D01*
X175045609Y-96712095D01*
X174902752Y-96712095D01*
X174712276Y-96664476D01*
X174617038Y-96616857D01*
X174521800Y-96521619D01*
X174474180Y-96378761D01*
X174474180Y-96283523D01*
X174521800Y-96140666D01*
X174569419Y-96093047D01*
X175474180Y-95140666D02*
X175474180Y-95712095D01*
X175474180Y-95426380D02*
X174474180Y-95426380D01*
X174617038Y-95521619D01*
X174712276Y-95616857D01*
X174759895Y-95712095D01*
X174474180Y-94521619D02*
X174474180Y-94426380D01*
X174521800Y-94331142D01*
X174569419Y-94283523D01*
X174664657Y-94235904D01*
X174855133Y-94188285D01*
X175093228Y-94188285D01*
X175283704Y-94235904D01*
X175378942Y-94283523D01*
X175426561Y-94331142D01*
X175474180Y-94426380D01*
X175474180Y-94521619D01*
X175426561Y-94616857D01*
X175378942Y-94664476D01*
X175283704Y-94712095D01*
X175093228Y-94759714D01*
X174855133Y-94759714D01*
X174664657Y-94712095D01*
X174569419Y-94664476D01*
X174521800Y-94616857D01*
X174474180Y-94521619D01*
X174474180Y-93331142D02*
X174474180Y-93521619D01*
X174521800Y-93616857D01*
X174569419Y-93664476D01*
X174712276Y-93759714D01*
X174902752Y-93807333D01*
X175283704Y-93807333D01*
X175378942Y-93759714D01*
X175426561Y-93712095D01*
X175474180Y-93616857D01*
X175474180Y-93426380D01*
X175426561Y-93331142D01*
X175378942Y-93283523D01*
X175283704Y-93235904D01*
X175045609Y-93235904D01*
X174950371Y-93283523D01*
X174902752Y-93331142D01*
X174855133Y-93426380D01*
X174855133Y-93616857D01*
X174902752Y-93712095D01*
X174950371Y-93759714D01*
X175045609Y-93807333D01*
%TO.C,C102*%
X148740952Y-98771142D02*
X148693333Y-98818761D01*
X148550476Y-98866380D01*
X148455238Y-98866380D01*
X148312380Y-98818761D01*
X148217142Y-98723523D01*
X148169523Y-98628285D01*
X148121904Y-98437809D01*
X148121904Y-98294952D01*
X148169523Y-98104476D01*
X148217142Y-98009238D01*
X148312380Y-97914000D01*
X148455238Y-97866380D01*
X148550476Y-97866380D01*
X148693333Y-97914000D01*
X148740952Y-97961619D01*
X149693333Y-98866380D02*
X149121904Y-98866380D01*
X149407619Y-98866380D02*
X149407619Y-97866380D01*
X149312380Y-98009238D01*
X149217142Y-98104476D01*
X149121904Y-98152095D01*
X150312380Y-97866380D02*
X150407619Y-97866380D01*
X150502857Y-97914000D01*
X150550476Y-97961619D01*
X150598095Y-98056857D01*
X150645714Y-98247333D01*
X150645714Y-98485428D01*
X150598095Y-98675904D01*
X150550476Y-98771142D01*
X150502857Y-98818761D01*
X150407619Y-98866380D01*
X150312380Y-98866380D01*
X150217142Y-98818761D01*
X150169523Y-98771142D01*
X150121904Y-98675904D01*
X150074285Y-98485428D01*
X150074285Y-98247333D01*
X150121904Y-98056857D01*
X150169523Y-97961619D01*
X150217142Y-97914000D01*
X150312380Y-97866380D01*
X151026666Y-97961619D02*
X151074285Y-97914000D01*
X151169523Y-97866380D01*
X151407619Y-97866380D01*
X151502857Y-97914000D01*
X151550476Y-97961619D01*
X151598095Y-98056857D01*
X151598095Y-98152095D01*
X151550476Y-98294952D01*
X150979047Y-98866380D01*
X151598095Y-98866380D01*
%TO.C,R104*%
X180836180Y-104475047D02*
X180359990Y-104808380D01*
X180836180Y-105046476D02*
X179836180Y-105046476D01*
X179836180Y-104665523D01*
X179883800Y-104570285D01*
X179931419Y-104522666D01*
X180026657Y-104475047D01*
X180169514Y-104475047D01*
X180264752Y-104522666D01*
X180312371Y-104570285D01*
X180359990Y-104665523D01*
X180359990Y-105046476D01*
X180836180Y-103522666D02*
X180836180Y-104094095D01*
X180836180Y-103808380D02*
X179836180Y-103808380D01*
X179979038Y-103903619D01*
X180074276Y-103998857D01*
X180121895Y-104094095D01*
X179836180Y-102903619D02*
X179836180Y-102808380D01*
X179883800Y-102713142D01*
X179931419Y-102665523D01*
X180026657Y-102617904D01*
X180217133Y-102570285D01*
X180455228Y-102570285D01*
X180645704Y-102617904D01*
X180740942Y-102665523D01*
X180788561Y-102713142D01*
X180836180Y-102808380D01*
X180836180Y-102903619D01*
X180788561Y-102998857D01*
X180740942Y-103046476D01*
X180645704Y-103094095D01*
X180455228Y-103141714D01*
X180217133Y-103141714D01*
X180026657Y-103094095D01*
X179931419Y-103046476D01*
X179883800Y-102998857D01*
X179836180Y-102903619D01*
X180169514Y-101713142D02*
X180836180Y-101713142D01*
X179788561Y-101951238D02*
X180502847Y-102189333D01*
X180502847Y-101570285D01*
%TO.C,C114*%
X157633942Y-114326847D02*
X157681561Y-114374466D01*
X157729180Y-114517323D01*
X157729180Y-114612561D01*
X157681561Y-114755419D01*
X157586323Y-114850657D01*
X157491085Y-114898276D01*
X157300609Y-114945895D01*
X157157752Y-114945895D01*
X156967276Y-114898276D01*
X156872038Y-114850657D01*
X156776800Y-114755419D01*
X156729180Y-114612561D01*
X156729180Y-114517323D01*
X156776800Y-114374466D01*
X156824419Y-114326847D01*
X157729180Y-113374466D02*
X157729180Y-113945895D01*
X157729180Y-113660180D02*
X156729180Y-113660180D01*
X156872038Y-113755419D01*
X156967276Y-113850657D01*
X157014895Y-113945895D01*
X157729180Y-112422085D02*
X157729180Y-112993514D01*
X157729180Y-112707800D02*
X156729180Y-112707800D01*
X156872038Y-112803038D01*
X156967276Y-112898276D01*
X157014895Y-112993514D01*
X157062514Y-111564942D02*
X157729180Y-111564942D01*
X156681561Y-111803038D02*
X157395847Y-112041133D01*
X157395847Y-111422085D01*
%TO.C,J102*%
X147169380Y-144649214D02*
X147883666Y-144649214D01*
X148026523Y-144696833D01*
X148121761Y-144792071D01*
X148169380Y-144934928D01*
X148169380Y-145030166D01*
X148169380Y-143649214D02*
X148169380Y-144220642D01*
X148169380Y-143934928D02*
X147169380Y-143934928D01*
X147312238Y-144030166D01*
X147407476Y-144125404D01*
X147455095Y-144220642D01*
X147169380Y-143030166D02*
X147169380Y-142934928D01*
X147217000Y-142839690D01*
X147264619Y-142792071D01*
X147359857Y-142744452D01*
X147550333Y-142696833D01*
X147788428Y-142696833D01*
X147978904Y-142744452D01*
X148074142Y-142792071D01*
X148121761Y-142839690D01*
X148169380Y-142934928D01*
X148169380Y-143030166D01*
X148121761Y-143125404D01*
X148074142Y-143173023D01*
X147978904Y-143220642D01*
X147788428Y-143268261D01*
X147550333Y-143268261D01*
X147359857Y-143220642D01*
X147264619Y-143173023D01*
X147217000Y-143125404D01*
X147169380Y-143030166D01*
X147264619Y-142315880D02*
X147217000Y-142268261D01*
X147169380Y-142173023D01*
X147169380Y-141934928D01*
X147217000Y-141839690D01*
X147264619Y-141792071D01*
X147359857Y-141744452D01*
X147455095Y-141744452D01*
X147597952Y-141792071D01*
X148169380Y-142363500D01*
X148169380Y-141744452D01*
%TO.C,C119*%
X175836752Y-121649142D02*
X175789133Y-121696761D01*
X175646276Y-121744380D01*
X175551038Y-121744380D01*
X175408180Y-121696761D01*
X175312942Y-121601523D01*
X175265323Y-121506285D01*
X175217704Y-121315809D01*
X175217704Y-121172952D01*
X175265323Y-120982476D01*
X175312942Y-120887238D01*
X175408180Y-120792000D01*
X175551038Y-120744380D01*
X175646276Y-120744380D01*
X175789133Y-120792000D01*
X175836752Y-120839619D01*
X176789133Y-121744380D02*
X176217704Y-121744380D01*
X176503419Y-121744380D02*
X176503419Y-120744380D01*
X176408180Y-120887238D01*
X176312942Y-120982476D01*
X176217704Y-121030095D01*
X177741514Y-121744380D02*
X177170085Y-121744380D01*
X177455800Y-121744380D02*
X177455800Y-120744380D01*
X177360561Y-120887238D01*
X177265323Y-120982476D01*
X177170085Y-121030095D01*
X178217704Y-121744380D02*
X178408180Y-121744380D01*
X178503419Y-121696761D01*
X178551038Y-121649142D01*
X178646276Y-121506285D01*
X178693895Y-121315809D01*
X178693895Y-120934857D01*
X178646276Y-120839619D01*
X178598657Y-120792000D01*
X178503419Y-120744380D01*
X178312942Y-120744380D01*
X178217704Y-120792000D01*
X178170085Y-120839619D01*
X178122466Y-120934857D01*
X178122466Y-121172952D01*
X178170085Y-121268190D01*
X178217704Y-121315809D01*
X178312942Y-121363428D01*
X178503419Y-121363428D01*
X178598657Y-121315809D01*
X178646276Y-121268190D01*
X178693895Y-121172952D01*
%TO.C,C111*%
X151839142Y-134403047D02*
X151886761Y-134450666D01*
X151934380Y-134593523D01*
X151934380Y-134688761D01*
X151886761Y-134831619D01*
X151791523Y-134926857D01*
X151696285Y-134974476D01*
X151505809Y-135022095D01*
X151362952Y-135022095D01*
X151172476Y-134974476D01*
X151077238Y-134926857D01*
X150982000Y-134831619D01*
X150934380Y-134688761D01*
X150934380Y-134593523D01*
X150982000Y-134450666D01*
X151029619Y-134403047D01*
X151934380Y-133450666D02*
X151934380Y-134022095D01*
X151934380Y-133736380D02*
X150934380Y-133736380D01*
X151077238Y-133831619D01*
X151172476Y-133926857D01*
X151220095Y-134022095D01*
X151934380Y-132498285D02*
X151934380Y-133069714D01*
X151934380Y-132784000D02*
X150934380Y-132784000D01*
X151077238Y-132879238D01*
X151172476Y-132974476D01*
X151220095Y-133069714D01*
X151934380Y-131545904D02*
X151934380Y-132117333D01*
X151934380Y-131831619D02*
X150934380Y-131831619D01*
X151077238Y-131926857D01*
X151172476Y-132022095D01*
X151220095Y-132117333D01*
D16*
%TO.C,C110*%
X139184748Y-125703000D02*
X139707252Y-125703000D01*
X139184748Y-124233000D02*
X139707252Y-124233000D01*
%TO.C,C118*%
X166314800Y-118588748D02*
X166314800Y-119111252D01*
X167784800Y-118588748D02*
X167784800Y-119111252D01*
%TO.C,C123*%
X171614548Y-122941000D02*
X172137052Y-122941000D01*
X171614548Y-124411000D02*
X172137052Y-124411000D01*
%TO.C,D101*%
X140450000Y-141000000D02*
X140450000Y-143000000D01*
X144750000Y-141000000D02*
X140450000Y-141000000D01*
X140450000Y-143000000D02*
X144750000Y-143000000D01*
%TO.C,JP101*%
X179873800Y-120612000D02*
X179873800Y-118612000D01*
X182673800Y-120612000D02*
X179873800Y-120612000D01*
X179873800Y-118612000D02*
X182673800Y-118612000D01*
X182673800Y-118612000D02*
X182673800Y-120612000D01*
%TO.C,C122*%
X171614548Y-120855000D02*
X172137052Y-120855000D01*
X171614548Y-119385000D02*
X172137052Y-119385000D01*
%TO.C,C109*%
X139184748Y-128265000D02*
X139707252Y-128265000D01*
X139184748Y-129735000D02*
X139707252Y-129735000D01*
%TO.C,U103*%
X184707800Y-92834000D02*
X184707800Y-94094000D01*
X178697800Y-92834000D02*
X184707800Y-92834000D01*
X180947800Y-99654000D02*
X184707800Y-99654000D01*
X184707800Y-99654000D02*
X184707800Y-98394000D01*
%TO.C,C101*%
X129801252Y-95223000D02*
X129278748Y-95223000D01*
X129801252Y-93753000D02*
X129278748Y-93753000D01*
%TO.C,C108*%
X165073000Y-132580748D02*
X165073000Y-133103252D01*
X163603000Y-132580748D02*
X163603000Y-133103252D01*
%TO.C,L101*%
X151840000Y-108474748D02*
X151840000Y-108997252D01*
X150420000Y-108474748D02*
X150420000Y-108997252D01*
%TO.C,U102*%
X146994000Y-96490000D02*
X150754000Y-96490000D01*
X150754000Y-96490000D02*
X150754000Y-95230000D01*
X144744000Y-89670000D02*
X150754000Y-89670000D01*
X150754000Y-89670000D02*
X150754000Y-90930000D01*
%TO.C,U107*%
X171390000Y-108890000D02*
X171390000Y-109340000D01*
X178610000Y-108890000D02*
X178610000Y-109340000D01*
X178160000Y-108890000D02*
X178610000Y-108890000D01*
X178160000Y-116110000D02*
X178610000Y-116110000D01*
X171390000Y-109340000D02*
X170100000Y-109340000D01*
X171390000Y-116110000D02*
X171390000Y-115660000D01*
X178610000Y-116110000D02*
X178610000Y-115660000D01*
X171840000Y-116110000D02*
X171390000Y-116110000D01*
X171840000Y-108890000D02*
X171390000Y-108890000D01*
%TO.C,U106*%
X158750000Y-135656000D02*
X160700000Y-135656000D01*
X158750000Y-130536000D02*
X155300000Y-130536000D01*
X158750000Y-135656000D02*
X156800000Y-135656000D01*
X158750000Y-130536000D02*
X160700000Y-130536000D01*
%TO.C,C120*%
X173417948Y-104500600D02*
X173940452Y-104500600D01*
X173417948Y-105970600D02*
X173940452Y-105970600D01*
%TO.C,C103*%
X176334380Y-98274000D02*
X176053220Y-98274000D01*
X176334380Y-99294000D02*
X176053220Y-99294000D01*
%TO.C,L102*%
X151840000Y-112792748D02*
X151840000Y-113315252D01*
X150420000Y-112792748D02*
X150420000Y-113315252D01*
%TO.C,C113*%
X146449148Y-119462200D02*
X146971652Y-119462200D01*
X146449148Y-117992200D02*
X146971652Y-117992200D01*
%TO.C,C115*%
X168835052Y-105107000D02*
X168312548Y-105107000D01*
X168835052Y-103637000D02*
X168312548Y-103637000D01*
%TO.C,C117*%
X168038800Y-109952748D02*
X168038800Y-110475252D01*
X166568800Y-109952748D02*
X166568800Y-110475252D01*
%TO.C,U105*%
X139008000Y-106556000D02*
X139558000Y-106556000D01*
X140858000Y-115531000D02*
X141408000Y-115531000D01*
X144708000Y-110381000D02*
X144708000Y-109831000D01*
X135708000Y-115531000D02*
X135708000Y-115381000D01*
X135708000Y-106531000D02*
X137708000Y-106531000D01*
X135708000Y-112231000D02*
X135708000Y-111681000D01*
X144708000Y-108531000D02*
X144708000Y-107981000D01*
X144708000Y-114081000D02*
X144708000Y-113531000D01*
X135708000Y-114081000D02*
X135708000Y-113531000D01*
X135708000Y-115531000D02*
X137708000Y-115531000D01*
X135708000Y-106681000D02*
X135708000Y-106531000D01*
X140858000Y-106556000D02*
X141408000Y-106556000D01*
X135708000Y-110381000D02*
X135708000Y-109831000D01*
X139008000Y-115531000D02*
X139558000Y-115531000D01*
X144708000Y-115531000D02*
X144708000Y-115381000D01*
X144708000Y-112231000D02*
X144708000Y-111681000D01*
X142708000Y-106531000D02*
X144708000Y-106531000D01*
X135708000Y-108531000D02*
X135708000Y-107981000D01*
X142708000Y-115531000D02*
X144708000Y-115531000D01*
X144708000Y-106681000D02*
X144708000Y-106531000D01*
D17*
X135549421Y-115831000D02*
G75*
G03*
X135549421Y-115831000I-141421J0D01*
G01*
D16*
%TO.C,R102*%
X144781600Y-104069864D02*
X144781600Y-103615736D01*
X146251600Y-104069864D02*
X146251600Y-103615736D01*
%TO.C,Y101*%
X165547800Y-119010000D02*
X165547800Y-113260000D01*
X161947800Y-113260000D02*
X161947800Y-119010000D01*
X165547800Y-113260000D02*
X161947800Y-113260000D01*
%TO.C,C112*%
X141959000Y-100083252D02*
X141959000Y-99560748D01*
X140489000Y-100083252D02*
X140489000Y-99560748D01*
%TO.C,U101*%
X134396000Y-97390000D02*
X138156000Y-97390000D01*
X138156000Y-90570000D02*
X138156000Y-91830000D01*
X132146000Y-90570000D02*
X138156000Y-90570000D01*
X138156000Y-97390000D02*
X138156000Y-96130000D01*
%TO.C,J103*%
X161538000Y-140490000D02*
X162058000Y-140490000D01*
X157228000Y-146810000D02*
X157228000Y-146050000D01*
X164957677Y-145610000D02*
X164988323Y-145610000D01*
X166243000Y-145610000D02*
X166243000Y-144490000D01*
X164078000Y-144490000D02*
X164078000Y-140490000D01*
X167573000Y-144490000D02*
X167573000Y-145610000D01*
X163328000Y-140490000D02*
X163328000Y-144490000D01*
X160788000Y-140490000D02*
X160788000Y-144490000D01*
X157293000Y-145290000D02*
X157293000Y-144490000D01*
X162808000Y-144490000D02*
X162808000Y-140490000D01*
X164598000Y-140490000D02*
X164598000Y-144490000D01*
X166618000Y-140490000D02*
X167138000Y-140490000D01*
X159893000Y-145610000D02*
X159893000Y-144490000D01*
X167138000Y-140490000D02*
X167138000Y-144490000D01*
X162058000Y-140490000D02*
X162058000Y-144490000D01*
X157788000Y-144490000D02*
X157788000Y-140490000D01*
X165348000Y-140490000D02*
X165868000Y-140490000D01*
X161163000Y-145610000D02*
X161163000Y-144490000D01*
X167573000Y-145610000D02*
X167497677Y-145610000D01*
X166618000Y-144490000D02*
X166618000Y-140490000D01*
X160268000Y-140490000D02*
X160788000Y-140490000D01*
X162417677Y-145610000D02*
X162448323Y-145610000D01*
X164973000Y-145610000D02*
X164973000Y-144490000D01*
X158148000Y-144490000D02*
X158148000Y-140490000D01*
X158028000Y-144490000D02*
X158028000Y-140490000D01*
X159877677Y-145610000D02*
X159908323Y-145610000D01*
X157908000Y-144490000D02*
X157908000Y-140490000D01*
X162808000Y-140490000D02*
X163328000Y-140490000D01*
X159518000Y-140490000D02*
X159518000Y-144490000D01*
X165348000Y-144490000D02*
X165348000Y-140490000D01*
X158248000Y-140490000D02*
X158248000Y-144490000D01*
X157728000Y-144490000D02*
X157728000Y-140490000D01*
X165868000Y-140490000D02*
X165868000Y-144490000D01*
X157988000Y-146810000D02*
X157228000Y-146810000D01*
X162433000Y-145610000D02*
X162433000Y-144490000D01*
X160268000Y-144490000D02*
X160268000Y-140490000D01*
X163687677Y-145610000D02*
X163718323Y-145610000D01*
X158998000Y-144490000D02*
X158998000Y-140490000D01*
X163703000Y-145610000D02*
X163703000Y-144490000D01*
X158998000Y-140490000D02*
X159518000Y-140490000D01*
X164078000Y-140490000D02*
X164598000Y-140490000D01*
X161538000Y-144490000D02*
X161538000Y-140490000D01*
X166227677Y-145610000D02*
X166258323Y-145610000D01*
X157293000Y-144490000D02*
X167573000Y-144490000D01*
X161147677Y-145610000D02*
X161178323Y-145610000D01*
X157728000Y-140490000D02*
X158248000Y-140490000D01*
X158623000Y-145290000D02*
X158623000Y-144490000D01*
%TO.C,D102*%
X172581800Y-95974000D02*
X172581800Y-93114000D01*
X170661800Y-93114000D02*
X170661800Y-95974000D01*
X172581800Y-93114000D02*
X170661800Y-93114000D01*
%TO.C,R101*%
X167330800Y-94746936D02*
X167330800Y-95201064D01*
X168800800Y-94746936D02*
X168800800Y-95201064D01*
%TO.C,C104*%
X133342748Y-99341000D02*
X133865252Y-99341000D01*
X133342748Y-100811000D02*
X133865252Y-100811000D01*
%TO.C,D103*%
X150566000Y-105746000D02*
X150566000Y-102886000D01*
X148646000Y-102886000D02*
X148646000Y-105746000D01*
X148646000Y-105746000D02*
X150566000Y-105746000D01*
%TO.C,C121*%
X181754800Y-107158748D02*
X181754800Y-107681252D01*
X180284800Y-107158748D02*
X180284800Y-107681252D01*
%TO.C,U104*%
X131029000Y-106969000D02*
X131029000Y-114519000D01*
X123479000Y-106969000D02*
X131029000Y-106969000D01*
X131029000Y-114519000D02*
X123479000Y-114519000D01*
X123479000Y-106969000D02*
X123479000Y-114519000D01*
%TO.C,REF\u002A\u002A*%
G36*
X126518749Y-124090036D02*
G01*
X126562544Y-124106972D01*
X126629293Y-124140601D01*
X126725137Y-124193334D01*
X126732599Y-124197525D01*
X126820871Y-124248001D01*
X126895363Y-124292223D01*
X126948760Y-124325731D01*
X126973746Y-124344064D01*
X126974445Y-124344962D01*
X126968409Y-124370414D01*
X126940723Y-124427255D01*
X126893188Y-124512389D01*
X126827611Y-124622717D01*
X126745797Y-124755144D01*
X126649548Y-124906571D01*
X126625594Y-124943707D01*
X126563183Y-125046757D01*
X126517737Y-125135432D01*
X126493246Y-125201714D01*
X126490733Y-125214807D01*
X126491848Y-125272443D01*
X126504343Y-125363865D01*
X126526660Y-125483208D01*
X126557240Y-125624609D01*
X126594528Y-125782203D01*
X126636965Y-125950126D01*
X126682994Y-126122514D01*
X126731057Y-126293501D01*
X126779597Y-126457224D01*
X126827057Y-126607818D01*
X126871878Y-126739420D01*
X126912503Y-126846163D01*
X126940823Y-126909494D01*
X126974183Y-126976957D01*
X127005682Y-127041511D01*
X127007387Y-127045045D01*
X127059498Y-127110250D01*
X127135554Y-127154156D01*
X127224092Y-127175197D01*
X127313648Y-127171807D01*
X127392758Y-127142423D01*
X127437264Y-127103736D01*
X127501356Y-126997636D01*
X127548322Y-126865405D01*
X127574090Y-126720527D01*
X127577741Y-126638394D01*
X127563039Y-126485105D01*
X127519890Y-126358166D01*
X127445972Y-126251418D01*
X127422921Y-126227657D01*
X127354325Y-126161009D01*
X127349614Y-125689916D01*
X127344903Y-125218822D01*
X127464946Y-125037106D01*
X127521277Y-124954856D01*
X127575528Y-124880865D01*
X127619959Y-124825448D01*
X127639056Y-124805056D01*
X127693124Y-124754723D01*
X127766350Y-124794158D01*
X127812633Y-124822415D01*
X127837957Y-124844354D01*
X127839576Y-124848299D01*
X127856884Y-124865023D01*
X127886497Y-124877476D01*
X127915114Y-124888700D01*
X127958934Y-124910024D01*
X128021718Y-124943529D01*
X128107228Y-124991296D01*
X128219226Y-125055407D01*
X128361473Y-125137944D01*
X128438773Y-125183065D01*
X128529702Y-125237111D01*
X128589339Y-125275604D01*
X128622961Y-125303044D01*
X128635844Y-125323934D01*
X128633265Y-125342775D01*
X128631115Y-125347152D01*
X128610197Y-125374714D01*
X128565440Y-125426416D01*
X128502057Y-125496475D01*
X128425262Y-125579107D01*
X128358844Y-125649156D01*
X128205790Y-125815414D01*
X128086056Y-125959519D01*
X127998573Y-126082921D01*
X127942274Y-126187068D01*
X127923284Y-126239954D01*
X127915440Y-126286250D01*
X127907338Y-126365221D01*
X127899691Y-126467846D01*
X127893212Y-126585103D01*
X127890163Y-126659248D01*
X127885908Y-126787427D01*
X127884036Y-126881138D01*
X127885099Y-126947583D01*
X127889646Y-126993961D01*
X127898227Y-127027474D01*
X127911394Y-127055321D01*
X127921735Y-127072324D01*
X127981456Y-127137862D01*
X128058411Y-127183532D01*
X128139380Y-127203450D01*
X128200058Y-127196244D01*
X128254999Y-127165066D01*
X128323867Y-127109230D01*
X128397005Y-127038474D01*
X128464752Y-126962537D01*
X128517450Y-126891159D01*
X128536853Y-126856668D01*
X128565919Y-126809441D01*
X128618783Y-126737506D01*
X128690616Y-126646485D01*
X128776588Y-126542000D01*
X128871868Y-126429675D01*
X128971627Y-126315130D01*
X129071034Y-126203990D01*
X129165259Y-126101875D01*
X129249473Y-126014408D01*
X129315591Y-125950198D01*
X129388999Y-125886057D01*
X129450753Y-125838763D01*
X129494066Y-125813235D01*
X129508445Y-125810429D01*
X129530479Y-125821752D01*
X129585438Y-125852144D01*
X129670152Y-125899780D01*
X129781448Y-125962835D01*
X129916156Y-126039485D01*
X130071103Y-126127905D01*
X130243119Y-126226270D01*
X130429032Y-126332756D01*
X130625670Y-126445537D01*
X130829863Y-126562789D01*
X131038439Y-126682687D01*
X131248225Y-126803407D01*
X131456052Y-126923123D01*
X131658747Y-127040011D01*
X131853140Y-127152246D01*
X132036058Y-127258004D01*
X132204330Y-127355460D01*
X132354785Y-127442788D01*
X132484251Y-127518165D01*
X132589557Y-127579765D01*
X132667532Y-127625764D01*
X132715004Y-127654337D01*
X132728763Y-127663304D01*
X132710231Y-127665076D01*
X132651933Y-127666799D01*
X132555809Y-127668464D01*
X132423799Y-127670063D01*
X132257846Y-127671587D01*
X132059889Y-127673029D01*
X131831870Y-127674380D01*
X131575729Y-127675632D01*
X131293408Y-127676776D01*
X130986847Y-127677804D01*
X130657987Y-127678708D01*
X130308769Y-127679479D01*
X129941135Y-127680109D01*
X129557024Y-127680590D01*
X129158377Y-127680914D01*
X128747137Y-127681072D01*
X128574580Y-127681087D01*
X124400586Y-127681087D01*
X124698268Y-127164954D01*
X124761286Y-127055665D01*
X124842406Y-126914940D01*
X124938916Y-126747486D01*
X125048103Y-126558012D01*
X125167255Y-126351223D01*
X125293660Y-126131828D01*
X125424605Y-125904533D01*
X125557379Y-125674046D01*
X125689269Y-125445073D01*
X125722624Y-125387163D01*
X125844247Y-125176232D01*
X125960228Y-124975535D01*
X126068825Y-124788059D01*
X126168294Y-124616792D01*
X126256892Y-124464723D01*
X126332878Y-124334838D01*
X126394507Y-124230125D01*
X126440037Y-124153573D01*
X126467725Y-124108169D01*
X126475472Y-124096609D01*
X126491772Y-124087385D01*
X126518749Y-124090036D01*
G37*
D18*
X126518749Y-124090036D02*
X126562544Y-124106972D01*
X126629293Y-124140601D01*
X126725137Y-124193334D01*
X126732599Y-124197525D01*
X126820871Y-124248001D01*
X126895363Y-124292223D01*
X126948760Y-124325731D01*
X126973746Y-124344064D01*
X126974445Y-124344962D01*
X126968409Y-124370414D01*
X126940723Y-124427255D01*
X126893188Y-124512389D01*
X126827611Y-124622717D01*
X126745797Y-124755144D01*
X126649548Y-124906571D01*
X126625594Y-124943707D01*
X126563183Y-125046757D01*
X126517737Y-125135432D01*
X126493246Y-125201714D01*
X126490733Y-125214807D01*
X126491848Y-125272443D01*
X126504343Y-125363865D01*
X126526660Y-125483208D01*
X126557240Y-125624609D01*
X126594528Y-125782203D01*
X126636965Y-125950126D01*
X126682994Y-126122514D01*
X126731057Y-126293501D01*
X126779597Y-126457224D01*
X126827057Y-126607818D01*
X126871878Y-126739420D01*
X126912503Y-126846163D01*
X126940823Y-126909494D01*
X126974183Y-126976957D01*
X127005682Y-127041511D01*
X127007387Y-127045045D01*
X127059498Y-127110250D01*
X127135554Y-127154156D01*
X127224092Y-127175197D01*
X127313648Y-127171807D01*
X127392758Y-127142423D01*
X127437264Y-127103736D01*
X127501356Y-126997636D01*
X127548322Y-126865405D01*
X127574090Y-126720527D01*
X127577741Y-126638394D01*
X127563039Y-126485105D01*
X127519890Y-126358166D01*
X127445972Y-126251418D01*
X127422921Y-126227657D01*
X127354325Y-126161009D01*
X127349614Y-125689916D01*
X127344903Y-125218822D01*
X127464946Y-125037106D01*
X127521277Y-124954856D01*
X127575528Y-124880865D01*
X127619959Y-124825448D01*
X127639056Y-124805056D01*
X127693124Y-124754723D01*
X127766350Y-124794158D01*
X127812633Y-124822415D01*
X127837957Y-124844354D01*
X127839576Y-124848299D01*
X127856884Y-124865023D01*
X127886497Y-124877476D01*
X127915114Y-124888700D01*
X127958934Y-124910024D01*
X128021718Y-124943529D01*
X128107228Y-124991296D01*
X128219226Y-125055407D01*
X128361473Y-125137944D01*
X128438773Y-125183065D01*
X128529702Y-125237111D01*
X128589339Y-125275604D01*
X128622961Y-125303044D01*
X128635844Y-125323934D01*
X128633265Y-125342775D01*
X128631115Y-125347152D01*
X128610197Y-125374714D01*
X128565440Y-125426416D01*
X128502057Y-125496475D01*
X128425262Y-125579107D01*
X128358844Y-125649156D01*
X128205790Y-125815414D01*
X128086056Y-125959519D01*
X127998573Y-126082921D01*
X127942274Y-126187068D01*
X127923284Y-126239954D01*
X127915440Y-126286250D01*
X127907338Y-126365221D01*
X127899691Y-126467846D01*
X127893212Y-126585103D01*
X127890163Y-126659248D01*
X127885908Y-126787427D01*
X127884036Y-126881138D01*
X127885099Y-126947583D01*
X127889646Y-126993961D01*
X127898227Y-127027474D01*
X127911394Y-127055321D01*
X127921735Y-127072324D01*
X127981456Y-127137862D01*
X128058411Y-127183532D01*
X128139380Y-127203450D01*
X128200058Y-127196244D01*
X128254999Y-127165066D01*
X128323867Y-127109230D01*
X128397005Y-127038474D01*
X128464752Y-126962537D01*
X128517450Y-126891159D01*
X128536853Y-126856668D01*
X128565919Y-126809441D01*
X128618783Y-126737506D01*
X128690616Y-126646485D01*
X128776588Y-126542000D01*
X128871868Y-126429675D01*
X128971627Y-126315130D01*
X129071034Y-126203990D01*
X129165259Y-126101875D01*
X129249473Y-126014408D01*
X129315591Y-125950198D01*
X129388999Y-125886057D01*
X129450753Y-125838763D01*
X129494066Y-125813235D01*
X129508445Y-125810429D01*
X129530479Y-125821752D01*
X129585438Y-125852144D01*
X129670152Y-125899780D01*
X129781448Y-125962835D01*
X129916156Y-126039485D01*
X130071103Y-126127905D01*
X130243119Y-126226270D01*
X130429032Y-126332756D01*
X130625670Y-126445537D01*
X130829863Y-126562789D01*
X131038439Y-126682687D01*
X131248225Y-126803407D01*
X131456052Y-126923123D01*
X131658747Y-127040011D01*
X131853140Y-127152246D01*
X132036058Y-127258004D01*
X132204330Y-127355460D01*
X132354785Y-127442788D01*
X132484251Y-127518165D01*
X132589557Y-127579765D01*
X132667532Y-127625764D01*
X132715004Y-127654337D01*
X132728763Y-127663304D01*
X132710231Y-127665076D01*
X132651933Y-127666799D01*
X132555809Y-127668464D01*
X132423799Y-127670063D01*
X132257846Y-127671587D01*
X132059889Y-127673029D01*
X131831870Y-127674380D01*
X131575729Y-127675632D01*
X131293408Y-127676776D01*
X130986847Y-127677804D01*
X130657987Y-127678708D01*
X130308769Y-127679479D01*
X129941135Y-127680109D01*
X129557024Y-127680590D01*
X129158377Y-127680914D01*
X128747137Y-127681072D01*
X128574580Y-127681087D01*
X124400586Y-127681087D01*
X124698268Y-127164954D01*
X124761286Y-127055665D01*
X124842406Y-126914940D01*
X124938916Y-126747486D01*
X125048103Y-126558012D01*
X125167255Y-126351223D01*
X125293660Y-126131828D01*
X125424605Y-125904533D01*
X125557379Y-125674046D01*
X125689269Y-125445073D01*
X125722624Y-125387163D01*
X125844247Y-125176232D01*
X125960228Y-124975535D01*
X126068825Y-124788059D01*
X126168294Y-124616792D01*
X126256892Y-124464723D01*
X126332878Y-124334838D01*
X126394507Y-124230125D01*
X126440037Y-124153573D01*
X126467725Y-124108169D01*
X126475472Y-124096609D01*
X126491772Y-124087385D01*
X126518749Y-124090036D01*
G36*
X128998878Y-119774166D02*
G01*
X129029876Y-119824538D01*
X129077634Y-119904341D01*
X129140194Y-120010180D01*
X129215597Y-120138659D01*
X129301885Y-120286384D01*
X129397101Y-120449958D01*
X129499285Y-120625987D01*
X129606481Y-120811075D01*
X129716729Y-121001827D01*
X129828071Y-121194847D01*
X129938550Y-121386741D01*
X130046207Y-121574111D01*
X130149084Y-121753565D01*
X130245223Y-121921705D01*
X130332665Y-122075137D01*
X130409453Y-122210465D01*
X130473628Y-122324294D01*
X130523233Y-122413229D01*
X130556309Y-122473874D01*
X130570897Y-122502833D01*
X130571431Y-122504644D01*
X130553321Y-122529217D01*
X130502980Y-122566807D01*
X130426395Y-122613722D01*
X130329552Y-122666274D01*
X130228167Y-122716213D01*
X130090215Y-122776769D01*
X129945142Y-122831179D01*
X129787950Y-122880651D01*
X129613643Y-122926395D01*
X129417222Y-122969620D01*
X129193689Y-123011534D01*
X128938048Y-123053347D01*
X128673606Y-123092284D01*
X128443852Y-123126828D01*
X128250917Y-123161026D01*
X128089964Y-123196577D01*
X127956155Y-123235182D01*
X127844650Y-123278539D01*
X127750614Y-123328348D01*
X127669206Y-123386309D01*
X127595590Y-123454120D01*
X127571851Y-123479312D01*
X127520397Y-123537958D01*
X127482334Y-123585815D01*
X127464677Y-123613958D01*
X127464206Y-123616265D01*
X127458028Y-123630416D01*
X127436590Y-123630575D01*
X127395533Y-123614861D01*
X127330501Y-123581391D01*
X127237137Y-123528281D01*
X127172252Y-123490088D01*
X127075501Y-123430385D01*
X127000312Y-123379263D01*
X126951739Y-123340399D01*
X126934835Y-123317472D01*
X126934845Y-123317305D01*
X126945328Y-123295456D01*
X126974931Y-123240739D01*
X127021938Y-123156136D01*
X127084629Y-123044629D01*
X127161286Y-122909201D01*
X127250191Y-122752833D01*
X127349626Y-122578507D01*
X127457872Y-122389206D01*
X127573211Y-122187911D01*
X127693924Y-121977605D01*
X127818294Y-121761271D01*
X127944601Y-121541889D01*
X128071127Y-121322442D01*
X128196155Y-121105912D01*
X128317965Y-120895281D01*
X128434839Y-120693532D01*
X128545060Y-120503647D01*
X128646908Y-120328606D01*
X128738665Y-120171394D01*
X128818613Y-120034991D01*
X128885034Y-119922380D01*
X128936209Y-119836543D01*
X128970420Y-119780462D01*
X128985948Y-119757119D01*
X128986598Y-119756621D01*
X128998878Y-119774166D01*
G37*
X128998878Y-119774166D02*
X129029876Y-119824538D01*
X129077634Y-119904341D01*
X129140194Y-120010180D01*
X129215597Y-120138659D01*
X129301885Y-120286384D01*
X129397101Y-120449958D01*
X129499285Y-120625987D01*
X129606481Y-120811075D01*
X129716729Y-121001827D01*
X129828071Y-121194847D01*
X129938550Y-121386741D01*
X130046207Y-121574111D01*
X130149084Y-121753565D01*
X130245223Y-121921705D01*
X130332665Y-122075137D01*
X130409453Y-122210465D01*
X130473628Y-122324294D01*
X130523233Y-122413229D01*
X130556309Y-122473874D01*
X130570897Y-122502833D01*
X130571431Y-122504644D01*
X130553321Y-122529217D01*
X130502980Y-122566807D01*
X130426395Y-122613722D01*
X130329552Y-122666274D01*
X130228167Y-122716213D01*
X130090215Y-122776769D01*
X129945142Y-122831179D01*
X129787950Y-122880651D01*
X129613643Y-122926395D01*
X129417222Y-122969620D01*
X129193689Y-123011534D01*
X128938048Y-123053347D01*
X128673606Y-123092284D01*
X128443852Y-123126828D01*
X128250917Y-123161026D01*
X128089964Y-123196577D01*
X127956155Y-123235182D01*
X127844650Y-123278539D01*
X127750614Y-123328348D01*
X127669206Y-123386309D01*
X127595590Y-123454120D01*
X127571851Y-123479312D01*
X127520397Y-123537958D01*
X127482334Y-123585815D01*
X127464677Y-123613958D01*
X127464206Y-123616265D01*
X127458028Y-123630416D01*
X127436590Y-123630575D01*
X127395533Y-123614861D01*
X127330501Y-123581391D01*
X127237137Y-123528281D01*
X127172252Y-123490088D01*
X127075501Y-123430385D01*
X127000312Y-123379263D01*
X126951739Y-123340399D01*
X126934835Y-123317472D01*
X126934845Y-123317305D01*
X126945328Y-123295456D01*
X126974931Y-123240739D01*
X127021938Y-123156136D01*
X127084629Y-123044629D01*
X127161286Y-122909201D01*
X127250191Y-122752833D01*
X127349626Y-122578507D01*
X127457872Y-122389206D01*
X127573211Y-122187911D01*
X127693924Y-121977605D01*
X127818294Y-121761271D01*
X127944601Y-121541889D01*
X128071127Y-121322442D01*
X128196155Y-121105912D01*
X128317965Y-120895281D01*
X128434839Y-120693532D01*
X128545060Y-120503647D01*
X128646908Y-120328606D01*
X128738665Y-120171394D01*
X128818613Y-120034991D01*
X128885034Y-119922380D01*
X128936209Y-119836543D01*
X128970420Y-119780462D01*
X128985948Y-119757119D01*
X128986598Y-119756621D01*
X128998878Y-119774166D01*
G36*
X131454146Y-124013908D02*
G01*
X131469469Y-124039590D01*
X131503911Y-124098469D01*
X131555769Y-124187602D01*
X131623340Y-124304049D01*
X131704921Y-124444867D01*
X131798809Y-124607114D01*
X131903299Y-124787849D01*
X132016690Y-124984130D01*
X132137278Y-125193016D01*
X132261313Y-125408017D01*
X132387987Y-125627649D01*
X132509608Y-125838495D01*
X132624412Y-126037499D01*
X132730638Y-126221607D01*
X132826523Y-126387765D01*
X132910302Y-126532917D01*
X132980214Y-126654009D01*
X133034496Y-126747988D01*
X133071385Y-126811797D01*
X133088731Y-126841719D01*
X133117007Y-126892271D01*
X133132382Y-126923914D01*
X133133224Y-126929420D01*
X133114488Y-126919082D01*
X133062386Y-126889407D01*
X132979640Y-126841968D01*
X132868975Y-126778333D01*
X132733114Y-126700074D01*
X132574781Y-126608759D01*
X132396698Y-126505960D01*
X132201590Y-126393247D01*
X131992180Y-126272189D01*
X131771191Y-126144357D01*
X131687113Y-126095702D01*
X131462170Y-125965567D01*
X131247524Y-125841497D01*
X131045932Y-125725077D01*
X130860148Y-125617893D01*
X130692928Y-125521531D01*
X130547027Y-125437578D01*
X130425201Y-125367620D01*
X130330204Y-125313243D01*
X130264792Y-125276034D01*
X130231720Y-125257578D01*
X130228262Y-125255830D01*
X130238339Y-125240005D01*
X130273407Y-125197692D01*
X130329885Y-125132790D01*
X130404193Y-125049196D01*
X130492752Y-124950809D01*
X130591980Y-124841525D01*
X130698298Y-124725244D01*
X130808125Y-124605862D01*
X130917882Y-124487277D01*
X131023988Y-124373388D01*
X131122862Y-124268092D01*
X131210926Y-124175287D01*
X131284599Y-124098870D01*
X131340300Y-124042740D01*
X131359403Y-124024335D01*
X131422708Y-123964872D01*
X131454146Y-124013908D01*
G37*
X131454146Y-124013908D02*
X131469469Y-124039590D01*
X131503911Y-124098469D01*
X131555769Y-124187602D01*
X131623340Y-124304049D01*
X131704921Y-124444867D01*
X131798809Y-124607114D01*
X131903299Y-124787849D01*
X132016690Y-124984130D01*
X132137278Y-125193016D01*
X132261313Y-125408017D01*
X132387987Y-125627649D01*
X132509608Y-125838495D01*
X132624412Y-126037499D01*
X132730638Y-126221607D01*
X132826523Y-126387765D01*
X132910302Y-126532917D01*
X132980214Y-126654009D01*
X133034496Y-126747988D01*
X133071385Y-126811797D01*
X133088731Y-126841719D01*
X133117007Y-126892271D01*
X133132382Y-126923914D01*
X133133224Y-126929420D01*
X133114488Y-126919082D01*
X133062386Y-126889407D01*
X132979640Y-126841968D01*
X132868975Y-126778333D01*
X132733114Y-126700074D01*
X132574781Y-126608759D01*
X132396698Y-126505960D01*
X132201590Y-126393247D01*
X131992180Y-126272189D01*
X131771191Y-126144357D01*
X131687113Y-126095702D01*
X131462170Y-125965567D01*
X131247524Y-125841497D01*
X131045932Y-125725077D01*
X130860148Y-125617893D01*
X130692928Y-125521531D01*
X130547027Y-125437578D01*
X130425201Y-125367620D01*
X130330204Y-125313243D01*
X130264792Y-125276034D01*
X130231720Y-125257578D01*
X130228262Y-125255830D01*
X130238339Y-125240005D01*
X130273407Y-125197692D01*
X130329885Y-125132790D01*
X130404193Y-125049196D01*
X130492752Y-124950809D01*
X130591980Y-124841525D01*
X130698298Y-124725244D01*
X130808125Y-124605862D01*
X130917882Y-124487277D01*
X131023988Y-124373388D01*
X131122862Y-124268092D01*
X131210926Y-124175287D01*
X131284599Y-124098870D01*
X131340300Y-124042740D01*
X131359403Y-124024335D01*
X131422708Y-123964872D01*
X131454146Y-124013908D01*
D16*
%TO.C,C105*%
X143416748Y-87265000D02*
X143939252Y-87265000D01*
X143416748Y-88735000D02*
X143939252Y-88735000D01*
%TO.C,C116*%
X167784800Y-114270748D02*
X167784800Y-114793252D01*
X166314800Y-114270748D02*
X166314800Y-114793252D01*
%TO.C,C107*%
X139707252Y-120423000D02*
X139184748Y-120423000D01*
X139707252Y-121893000D02*
X139184748Y-121893000D01*
%TO.C,J104*%
X186563000Y-131826000D02*
X186563000Y-131191000D01*
X187198000Y-131826000D02*
X186563000Y-131826000D01*
%TO.C,R103*%
X176524364Y-122941000D02*
X176070236Y-122941000D01*
X176524364Y-124411000D02*
X176070236Y-124411000D01*
%TO.C,C106*%
X177436800Y-95235252D02*
X177436800Y-94712748D01*
X175966800Y-95235252D02*
X175966800Y-94712748D01*
%TO.C,C102*%
X145788748Y-97171000D02*
X146311252Y-97171000D01*
X145788748Y-98641000D02*
X146311252Y-98641000D01*
%TO.C,R104*%
X177998800Y-103128936D02*
X177998800Y-103583064D01*
X179468800Y-103128936D02*
X179468800Y-103583064D01*
%TO.C,C114*%
X155929000Y-110736748D02*
X155929000Y-111259252D01*
X154459000Y-110736748D02*
X154459000Y-111259252D01*
%TO.C,J102*%
X150362000Y-144236000D02*
X150362000Y-140236000D01*
X154172000Y-144236000D02*
X154172000Y-140236000D01*
X149092000Y-144236000D02*
X149092000Y-140236000D01*
X153797000Y-145356000D02*
X153797000Y-144236000D01*
X149612000Y-140236000D02*
X149612000Y-144236000D01*
X148657000Y-144236000D02*
X155127000Y-144236000D01*
X152527000Y-145356000D02*
X152527000Y-144236000D01*
X150882000Y-140236000D02*
X150882000Y-144236000D01*
X149352000Y-146556000D02*
X148592000Y-146556000D01*
X155127000Y-144236000D02*
X155127000Y-145356000D01*
X154692000Y-140236000D02*
X154692000Y-144236000D01*
X149987000Y-145036000D02*
X149987000Y-144236000D01*
X149512000Y-144236000D02*
X149512000Y-140236000D01*
X152511677Y-145356000D02*
X152542323Y-145356000D01*
X151632000Y-140236000D02*
X152152000Y-140236000D01*
X152902000Y-144236000D02*
X152902000Y-140236000D01*
X148657000Y-145036000D02*
X148657000Y-144236000D01*
X152902000Y-140236000D02*
X153422000Y-140236000D01*
X151632000Y-144236000D02*
X151632000Y-140236000D01*
X150362000Y-140236000D02*
X150882000Y-140236000D01*
X149092000Y-140236000D02*
X149612000Y-140236000D01*
X149272000Y-144236000D02*
X149272000Y-140236000D01*
X151241677Y-145356000D02*
X151272323Y-145356000D01*
X153781677Y-145356000D02*
X153812323Y-145356000D01*
X152152000Y-140236000D02*
X152152000Y-144236000D01*
X151257000Y-145356000D02*
X151257000Y-144236000D01*
X149392000Y-144236000D02*
X149392000Y-140236000D01*
X149152000Y-144236000D02*
X149152000Y-140236000D01*
X154172000Y-140236000D02*
X154692000Y-140236000D01*
X155127000Y-145356000D02*
X155051677Y-145356000D01*
X148592000Y-146556000D02*
X148592000Y-145796000D01*
X153422000Y-140236000D02*
X153422000Y-144236000D01*
%TO.C,C119*%
X177217052Y-120347000D02*
X176694548Y-120347000D01*
X177217052Y-118877000D02*
X176694548Y-118877000D01*
%TO.C,C111*%
X153897000Y-133545252D02*
X153897000Y-133022748D01*
X152427000Y-133545252D02*
X152427000Y-133022748D01*
%TD*%
M02*
